<?xml version="1.0" encoding="UTF-8" standalone="no"?>
<!DOCTYPE svg PUBLIC "-//W3C//DTD SVG 1.1//EN"
 "http://www.w3.org/Graphics/SVG/1.1/DTD/svg11.dtd">
<!-- Generated by graphviz version 2.40.1 (20161225.0304)
 -->
<!-- Title: FieldRepo.H Pages: 1 -->
<svg width="3917pt" height="252pt"
 viewBox="0.00 0.00 3916.50 252.00" xmlns="http://www.w3.org/2000/svg" xmlns:xlink="http://www.w3.org/1999/xlink">
<g id="graph0" class="graph" transform="scale(1 1) rotate(0) translate(4 248)">
<title>FieldRepo.H</title>
<polygon fill="#ffffff" stroke="transparent" points="-4,4 -4,-248 3912.5,-248 3912.5,4 -4,4"/>
<!-- Node20 -->
<g id="node1" class="node">
<title>Node20</title>
<polygon fill="#bfbfbf" stroke="#000000" points="1871,-224.5 1871,-243.5 1945,-243.5 1945,-224.5 1871,-224.5"/>
<text text-anchor="middle" x="1908" y="-231.5" font-family="Helvetica,sans-Serif" font-size="10.00" fill="#000000">FieldRepo.H</text>
</g>
<!-- Node21 -->
<g id="node2" class="node">
<title>Node21</title>
<g id="a_node2"><a xlink:href="_b_c_interface_8cpp.html" target="_top" xlink:title="BCInterface.cpp">
<polygon fill="#ffffff" stroke="#000000" points="0,-112.5 0,-131.5 94,-131.5 94,-112.5 0,-112.5"/>
<text text-anchor="middle" x="47" y="-119.5" font-family="Helvetica,sans-Serif" font-size="10.00" fill="#000000">BCInterface.cpp</text>
</a>
</g>
</g>
<!-- Node20&#45;&gt;Node21 -->
<g id="edge1" class="edge">
<title>Node20&#45;&gt;Node21</title>
<path fill="none" stroke="#191970" d="M1860.5497,-233.828C1584.0429,-232.6955 190.063,-225.1551 108,-188 81.8466,-176.1587 61.776,-147.2436 52.5551,-131.9155"/>
<polygon fill="#191970" stroke="#191970" points="1860.6427,-237.3283 1870.6567,-233.8686 1860.6708,-230.3284 1860.6427,-237.3283"/>
</g>
<!-- Node22 -->
<g id="node3" class="node">
<title>Node22</title>
<g id="a_node3"><a xlink:href="_fixed_gradient_b_c_8_h.html" target="_top" xlink:title="FixedGradientBC.H">
<polygon fill="#ffffff" stroke="#000000" points="117,-168.5 117,-187.5 225,-187.5 225,-168.5 117,-168.5"/>
<text text-anchor="middle" x="171" y="-175.5" font-family="Helvetica,sans-Serif" font-size="10.00" fill="#000000">FixedGradientBC.H</text>
</a>
</g>
</g>
<!-- Node20&#45;&gt;Node22 -->
<g id="edge2" class="edge">
<title>Node20&#45;&gt;Node22</title>
<path fill="none" stroke="#191970" d="M1860.5868,-233.0819C1670.2989,-229.296 943.5365,-213.8661 346,-188 305.564,-186.2496 259.9088,-183.6189 225.3717,-181.4949"/>
<polygon fill="#191970" stroke="#191970" points="1860.7322,-236.5854 1870.7996,-233.2841 1860.8708,-229.5867 1860.7322,-236.5854"/>
</g>
<!-- Node24 -->
<g id="node5" class="node">
<title>Node24</title>
<g id="a_node5"><a xlink:href="_c_f_d_sim_8_h.html" target="_top" xlink:title="CFDSim.H">
<polygon fill="#ffffff" stroke="#ff0000" points="1274.5,-168.5 1274.5,-187.5 1339.5,-187.5 1339.5,-168.5 1274.5,-168.5"/>
<text text-anchor="middle" x="1307" y="-175.5" font-family="Helvetica,sans-Serif" font-size="10.00" fill="#000000">CFDSim.H</text>
</a>
</g>
</g>
<!-- Node20&#45;&gt;Node24 -->
<g id="edge5" class="edge">
<title>Node20&#45;&gt;Node24</title>
<path fill="none" stroke="#191970" d="M1860.7759,-232.53C1764.1497,-228.9918 1537.1197,-217.9581 1349,-188 1346.0391,-187.5285 1342.9781,-186.9602 1339.9206,-186.3368"/>
<polygon fill="#191970" stroke="#191970" points="1860.6924,-236.0291 1870.8107,-232.8874 1860.9417,-229.0335 1860.6924,-236.0291"/>
</g>
<!-- Node25 -->
<g id="node6" class="node">
<title>Node25</title>
<g id="a_node6"><a xlink:href="incflo_8_h.html" target="_top" xlink:title="incflo.H">
<polygon fill="#ffffff" stroke="#ff0000" points="938.5,-112.5 938.5,-131.5 991.5,-131.5 991.5,-112.5 938.5,-112.5"/>
<text text-anchor="middle" x="965" y="-119.5" font-family="Helvetica,sans-Serif" font-size="10.00" fill="#000000">incflo.H</text>
</a>
</g>
</g>
<!-- Node20&#45;&gt;Node25 -->
<g id="edge26" class="edge">
<title>Node20&#45;&gt;Node25</title>
<path fill="none" stroke="#191970" d="M1860.7161,-232.9058C1753.981,-229.9366 1486.4044,-219.6927 1265,-188 1162.8499,-173.3778 1043.725,-143.1529 991.6472,-129.2662"/>
<polygon fill="#191970" stroke="#191970" points="1860.7454,-236.4077 1870.8362,-233.1787 1860.9342,-229.4103 1860.7454,-236.4077"/>
</g>
<!-- Node57 -->
<g id="node10" class="node">
<title>Node57</title>
<g id="a_node10"><a xlink:href="_a_b_l_mean_boussinesq_8_h.html" target="_top" xlink:title="ABLMeanBoussinesq.H">
<polygon fill="#ffffff" stroke="#ff0000" points="855,-56.5 855,-75.5 983,-75.5 983,-56.5 855,-56.5"/>
<text text-anchor="middle" x="919" y="-63.5" font-family="Helvetica,sans-Serif" font-size="10.00" fill="#000000">ABLMeanBoussinesq.H</text>
</a>
</g>
</g>
<!-- Node20&#45;&gt;Node57 -->
<g id="edge48" class="edge">
<title>Node20&#45;&gt;Node57</title>
<path fill="none" stroke="#191970" d="M1860.3447,-232.2465C1716.8628,-226.7853 1290.3811,-209.173 1153,-188 1051.5779,-172.369 998.0506,-207.913 929,-132 914.9635,-116.5685 915.722,-90.2081 917.4094,-75.9167"/>
<polygon fill="#191970" stroke="#191970" points="1860.4508,-235.753 1870.576,-232.6336 1860.7155,-228.758 1860.4508,-235.753"/>
</g>
<!-- Node110 -->
<g id="node18" class="node">
<title>Node110</title>
<g id="a_node18"><a xlink:href="_p_d_e_base_8cpp.html" target="_top" xlink:title="PDEBase.cpp">
<polygon fill="#ffffff" stroke="#000000" points="1861,-112.5 1861,-131.5 1941,-131.5 1941,-112.5 1861,-112.5"/>
<text text-anchor="middle" x="1901" y="-119.5" font-family="Helvetica,sans-Serif" font-size="10.00" fill="#000000">PDEBase.cpp</text>
</a>
</g>
</g>
<!-- Node20&#45;&gt;Node110 -->
<g id="edge54" class="edge">
<title>Node20&#45;&gt;Node110</title>
<path fill="none" stroke="#191970" d="M1860.5191,-232.2197C1756.9615,-227.8488 1518.1011,-214.9274 1494,-188 1440.2975,-128.0001 1772.3905,-144.0945 1852,-132 1854.9185,-131.5566 1857.9261,-131.0546 1860.9476,-130.5174"/>
<polygon fill="#191970" stroke="#191970" points="1860.5598,-235.7243 1870.6957,-232.64 1860.8487,-228.7303 1860.5598,-235.7243"/>
</g>
<!-- Node117 -->
<g id="node19" class="node">
<title>Node117</title>
<g id="a_node19"><a xlink:href="_tioga_interface_8cpp.html" target="_top" xlink:title="TiogaInterface.cpp">
<polygon fill="#ffffff" stroke="#000000" points="1959.5,-112.5 1959.5,-131.5 2066.5,-131.5 2066.5,-112.5 1959.5,-112.5"/>
<text text-anchor="middle" x="2013" y="-119.5" font-family="Helvetica,sans-Serif" font-size="10.00" fill="#000000">TiogaInterface.cpp</text>
</a>
</g>
</g>
<!-- Node20&#45;&gt;Node117 -->
<g id="edge61" class="edge">
<title>Node20&#45;&gt;Node117</title>
<path fill="none" stroke="#191970" d="M1860.3998,-233.056C1749.4753,-230.0184 1486.53,-217.5544 1532,-168 1563.5168,-133.6521 1903.7282,-137.6576 1950,-132 1953.0779,-131.6237 1956.2362,-131.21 1959.4205,-130.7717"/>
<polygon fill="#191970" stroke="#191970" points="1860.5571,-236.5612 1870.6444,-233.3215 1860.7385,-229.5635 1860.5571,-236.5612"/>
</g>
<!-- Node167 -->
<g id="node20" class="node">
<title>Node167</title>
<g id="a_node20"><a xlink:href="_actuator_8cpp.html" target="_top" xlink:title="Actuator.cpp">
<polygon fill="#ffffff" stroke="#000000" points="2084.5,-112.5 2084.5,-131.5 2161.5,-131.5 2161.5,-112.5 2084.5,-112.5"/>
<text text-anchor="middle" x="2123" y="-119.5" font-family="Helvetica,sans-Serif" font-size="10.00" fill="#000000">Actuator.cpp</text>
</a>
</g>
</g>
<!-- Node20&#45;&gt;Node167 -->
<g id="edge68" class="edge">
<title>Node20&#45;&gt;Node167</title>
<path fill="none" stroke="#191970" d="M1860.5239,-231.0554C1770.9354,-225.0128 1584.1694,-209.9118 1565,-188 1559.1472,-181.3099 1558.9395,-174.5025 1565,-168 1603.8075,-126.3623 2019.6383,-139.9418 2076,-132 2078.7261,-131.6159 2081.5303,-131.1646 2084.3472,-130.6699"/>
<polygon fill="#191970" stroke="#191970" points="1860.4819,-234.5603 1870.6919,-231.7304 1860.9457,-227.5756 1860.4819,-234.5603"/>
</g>
<!-- Node177 -->
<g id="node21" class="node">
<title>Node177</title>
<g id="a_node21"><a xlink:href="velocity__bcs_8_h.html" target="_top" xlink:title="velocity_bcs.H">
<polygon fill="#ffffff" stroke="#ff0000" points="1574,-168.5 1574,-187.5 1662,-187.5 1662,-168.5 1574,-168.5"/>
<text text-anchor="middle" x="1618" y="-175.5" font-family="Helvetica,sans-Serif" font-size="10.00" fill="#000000">velocity_bcs.H</text>
</a>
</g>
</g>
<!-- Node20&#45;&gt;Node177 -->
<g id="edge27" class="edge">
<title>Node20&#45;&gt;Node177</title>
<path fill="none" stroke="#191970" d="M1860.8223,-224.8898C1805.9471,-214.2932 1716.0458,-196.933 1662.3907,-186.572"/>
<polygon fill="#191970" stroke="#191970" points="1860.4945,-228.3911 1870.9767,-226.8507 1861.8218,-221.5181 1860.4945,-228.3911"/>
</g>
<!-- Node178 -->
<g id="node22" class="node">
<title>Node178</title>
<g id="a_node22"><a xlink:href="_godunov_8_h.html" target="_top" xlink:title="Godunov.H">
<polygon fill="#ffffff" stroke="#ff0000" points="1680,-168.5 1680,-187.5 1750,-187.5 1750,-168.5 1680,-168.5"/>
<text text-anchor="middle" x="1715" y="-175.5" font-family="Helvetica,sans-Serif" font-size="10.00" fill="#000000">Godunov.H</text>
</a>
</g>
</g>
<!-- Node20&#45;&gt;Node178 -->
<g id="edge28" class="edge">
<title>Node20&#45;&gt;Node178</title>
<path fill="none" stroke="#191970" d="M1864.7683,-221.4561C1829.3404,-211.1765 1779.963,-196.8494 1747.7449,-187.5011"/>
<polygon fill="#191970" stroke="#191970" points="1864.2429,-224.9479 1874.8221,-224.3733 1866.1936,-218.2252 1864.2429,-224.9479"/>
</g>
<!-- Node184 -->
<g id="node23" class="node">
<title>Node184</title>
<g id="a_node23"><a xlink:href="_m_o_l_8_h.html" target="_top" xlink:title="MOL.H">
<polygon fill="#ffffff" stroke="#ff0000" points="1768,-168.5 1768,-187.5 1816,-187.5 1816,-168.5 1768,-168.5"/>
<text text-anchor="middle" x="1792" y="-175.5" font-family="Helvetica,sans-Serif" font-size="10.00" fill="#000000">MOL.H</text>
</a>
</g>
</g>
<!-- Node20&#45;&gt;Node184 -->
<g id="edge29" class="edge">
<title>Node20&#45;&gt;Node184</title>
<path fill="none" stroke="#191970" d="M1878.9463,-219.9741C1857.9435,-209.8348 1830.1309,-196.408 1811.6809,-187.5011"/>
<polygon fill="#191970" stroke="#191970" points="1877.5317,-223.1776 1888.0589,-224.3733 1880.575,-216.8738 1877.5317,-223.1776"/>
</g>
<!-- Node187 -->
<g id="node24" class="node">
<title>Node187</title>
<g id="a_node24"><a xlink:href="_field_8cpp.html" target="_top" xlink:title="Field.cpp">
<polygon fill="#ffffff" stroke="#000000" points="1834.5,-168.5 1834.5,-187.5 1893.5,-187.5 1893.5,-168.5 1834.5,-168.5"/>
<text text-anchor="middle" x="1864" y="-175.5" font-family="Helvetica,sans-Serif" font-size="10.00" fill="#000000">Field.cpp</text>
</a>
</g>
</g>
<!-- Node20&#45;&gt;Node187 -->
<g id="edge30" class="edge">
<title>Node20&#45;&gt;Node187</title>
<path fill="none" stroke="#191970" d="M1894.0231,-216.2112C1886.5871,-206.7472 1877.734,-195.4797 1871.5764,-187.6427"/>
<polygon fill="#191970" stroke="#191970" points="1891.4054,-218.5447 1900.3358,-224.2455 1896.9097,-214.22 1891.4054,-218.5447"/>
</g>
<!-- Node188 -->
<g id="node25" class="node">
<title>Node188</title>
<g id="a_node25"><a xlink:href="_field_repo_8cpp.html" target="_top" xlink:title="FieldRepo.cpp">
<polygon fill="#ffffff" stroke="#000000" points="1911.5,-168.5 1911.5,-187.5 1994.5,-187.5 1994.5,-168.5 1911.5,-168.5"/>
<text text-anchor="middle" x="1953" y="-175.5" font-family="Helvetica,sans-Serif" font-size="10.00" fill="#000000">FieldRepo.cpp</text>
</a>
</g>
</g>
<!-- Node20&#45;&gt;Node188 -->
<g id="edge31" class="edge">
<title>Node20&#45;&gt;Node188</title>
<path fill="none" stroke="#191970" d="M1922.2946,-216.2112C1929.8996,-206.7472 1938.9538,-195.4797 1945.2514,-187.6427"/>
<polygon fill="#191970" stroke="#191970" points="1919.3741,-214.2581 1915.8384,-224.2455 1924.8306,-218.6428 1919.3741,-214.2581"/>
</g>
<!-- Node189 -->
<g id="node26" class="node">
<title>Node189</title>
<g id="a_node26"><a xlink:href="_int_field_8cpp.html" target="_top" xlink:title="IntField.cpp">
<polygon fill="#ffffff" stroke="#000000" points="2013,-168.5 2013,-187.5 2085,-187.5 2085,-168.5 2013,-168.5"/>
<text text-anchor="middle" x="2049" y="-175.5" font-family="Helvetica,sans-Serif" font-size="10.00" fill="#000000">IntField.cpp</text>
</a>
</g>
</g>
<!-- Node20&#45;&gt;Node189 -->
<g id="edge32" class="edge">
<title>Node20&#45;&gt;Node189</title>
<path fill="none" stroke="#191970" d="M1941.6032,-220.6541C1967.3159,-210.4419 2002.1461,-196.6086 2025.0775,-187.5011"/>
<polygon fill="#191970" stroke="#191970" points="1940.2407,-217.4292 1932.2388,-224.3733 1942.8245,-223.9349 1940.2407,-217.4292"/>
</g>
<!-- Node190 -->
<g id="node27" class="node">
<title>Node190</title>
<g id="a_node27"><a xlink:href="_scratch_field_8cpp.html" target="_top" xlink:title="ScratchField.cpp">
<polygon fill="#ffffff" stroke="#000000" points="2103.5,-168.5 2103.5,-187.5 2198.5,-187.5 2198.5,-168.5 2103.5,-168.5"/>
<text text-anchor="middle" x="2151" y="-175.5" font-family="Helvetica,sans-Serif" font-size="10.00" fill="#000000">ScratchField.cpp</text>
</a>
</g>
</g>
<!-- Node20&#45;&gt;Node190 -->
<g id="edge33" class="edge">
<title>Node20&#45;&gt;Node190</title>
<path fill="none" stroke="#191970" d="M1954.9577,-223.1785C1999.8538,-212.8321 2066.8815,-197.3853 2109.7665,-187.5024"/>
<polygon fill="#191970" stroke="#191970" points="1954.1296,-219.7775 1945.171,-225.4338 1955.7016,-226.5987 1954.1296,-219.7775"/>
</g>
<!-- Node191 -->
<g id="node28" class="node">
<title>Node191</title>
<g id="a_node28"><a xlink:href="_view_field_8cpp.html" target="_top" xlink:title="ViewField.cpp">
<polygon fill="#ffffff" stroke="#000000" points="2216.5,-168.5 2216.5,-187.5 2299.5,-187.5 2299.5,-168.5 2216.5,-168.5"/>
<text text-anchor="middle" x="2258" y="-175.5" font-family="Helvetica,sans-Serif" font-size="10.00" fill="#000000">ViewField.cpp</text>
</a>
</g>
</g>
<!-- Node20&#45;&gt;Node191 -->
<g id="edge34" class="edge">
<title>Node20&#45;&gt;Node191</title>
<path fill="none" stroke="#191970" d="M1955.1939,-227.4373C2014.3809,-219.052 2118.9105,-203.7308 2208,-188 2210.7025,-187.5228 2213.4836,-187.0146 2216.2847,-186.4898"/>
<polygon fill="#191970" stroke="#191970" points="1954.4489,-224.0077 1945.0364,-228.8712 1955.4275,-230.9389 1954.4489,-224.0077"/>
</g>
<!-- Node192 -->
<g id="node29" class="node">
<title>Node192</title>
<g id="a_node29"><a xlink:href="field__algebra_8cpp.html" target="_top" xlink:title="field_algebra.cpp">
<polygon fill="#ffffff" stroke="#000000" points="2318,-168.5 2318,-187.5 2418,-187.5 2418,-168.5 2318,-168.5"/>
<text text-anchor="middle" x="2368" y="-175.5" font-family="Helvetica,sans-Serif" font-size="10.00" fill="#000000">field_algebra.cpp</text>
</a>
</g>
</g>
<!-- Node20&#45;&gt;Node192 -->
<g id="edge35" class="edge">
<title>Node20&#45;&gt;Node192</title>
<path fill="none" stroke="#191970" d="M1955.2038,-229.4144C2030.2784,-221.9347 2181.4456,-206.1125 2309,-188 2311.8801,-187.591 2314.8359,-187.1519 2317.8166,-186.6941"/>
<polygon fill="#191970" stroke="#191970" points="1954.7316,-225.9439 1945.1258,-230.4138 1955.4224,-232.9098 1954.7316,-225.9439"/>
</g>
<!-- Node193 -->
<g id="node30" class="node">
<title>Node193</title>
<g id="a_node30"><a xlink:href="diffusion_8_h.html" target="_top" xlink:title="diffusion.H">
<polygon fill="#ffffff" stroke="#ff0000" points="2436.5,-168.5 2436.5,-187.5 2505.5,-187.5 2505.5,-168.5 2436.5,-168.5"/>
<text text-anchor="middle" x="2471" y="-175.5" font-family="Helvetica,sans-Serif" font-size="10.00" fill="#000000">diffusion.H</text>
</a>
</g>
</g>
<!-- Node20&#45;&gt;Node193 -->
<g id="edge36" class="edge">
<title>Node20&#45;&gt;Node193</title>
<path fill="none" stroke="#191970" d="M1955.0636,-231.9606C2046.4832,-227.5289 2254.2673,-215.1562 2427,-188 2430.0955,-187.5133 2433.2978,-186.9346 2436.4981,-186.3045"/>
<polygon fill="#191970" stroke="#191970" points="1954.8434,-228.467 1945.0209,-232.4379 1955.1759,-235.4591 1954.8434,-228.467"/>
</g>
<!-- Node194 -->
<g id="node31" class="node">
<title>Node194</title>
<g id="a_node31"><a xlink:href="_p_d_e_helpers_8_h.html" target="_top" xlink:title="PDEHelpers.H">
<polygon fill="#ffffff" stroke="#ff0000" points="1358,-168.5 1358,-187.5 1442,-187.5 1442,-168.5 1358,-168.5"/>
<text text-anchor="middle" x="1400" y="-175.5" font-family="Helvetica,sans-Serif" font-size="10.00" fill="#000000">PDEHelpers.H</text>
</a>
</g>
</g>
<!-- Node20&#45;&gt;Node194 -->
<g id="edge37" class="edge">
<title>Node20&#45;&gt;Node194</title>
<path fill="none" stroke="#191970" d="M1860.9319,-230.3847C1778.6048,-223.7993 1603.2023,-208.6036 1456,-188 1451.5009,-187.3703 1446.8105,-186.644 1442.1429,-185.8761"/>
<polygon fill="#191970" stroke="#191970" points="1860.7292,-233.8795 1870.9749,-231.1822 1861.2834,-226.9015 1860.7292,-233.8795"/>
</g>
<!-- Node195 -->
<g id="node32" class="node">
<title>Node195</title>
<g id="a_node32"><a xlink:href="_density_source_8_h.html" target="_top" xlink:title="DensitySource.H">
<polygon fill="#ffffff" stroke="#ff0000" points="2524,-168.5 2524,-187.5 2622,-187.5 2622,-168.5 2524,-168.5"/>
<text text-anchor="middle" x="2573" y="-175.5" font-family="Helvetica,sans-Serif" font-size="10.00" fill="#000000">DensitySource.H</text>
</a>
</g>
</g>
<!-- Node20&#45;&gt;Node195 -->
<g id="edge40" class="edge">
<title>Node20&#45;&gt;Node195</title>
<path fill="none" stroke="#191970" d="M1955.0758,-231.9597C2057.3019,-227.1946 2307.1284,-213.7373 2515,-188 2517.8394,-187.6484 2520.7515,-187.2542 2523.6864,-186.8307"/>
<polygon fill="#191970" stroke="#191970" points="1954.9018,-228.4639 1945.0733,-232.4201 1955.2237,-235.4565 1954.9018,-228.4639"/>
</g>
<!-- Node196 -->
<g id="node33" class="node">
<title>Node196</title>
<g id="a_node33"><a xlink:href="_momentum_source_8_h.html" target="_top" xlink:title="MomentumSource.H">
<polygon fill="#ffffff" stroke="#ff0000" points="596,-168.5 596,-187.5 712,-187.5 712,-168.5 596,-168.5"/>
<text text-anchor="middle" x="654" y="-175.5" font-family="Helvetica,sans-Serif" font-size="10.00" fill="#000000">MomentumSource.H</text>
</a>
</g>
</g>
<!-- Node20&#45;&gt;Node196 -->
<g id="edge41" class="edge">
<title>Node20&#45;&gt;Node196</title>
<path fill="none" stroke="#191970" d="M1860.5637,-232.8138C1704.7259,-228.7593 1194.3744,-214.2313 773,-188 753.1352,-186.7634 731.4346,-185.048 712.0686,-183.3868"/>
<polygon fill="#191970" stroke="#191970" points="1860.6517,-236.3171 1870.7388,-233.0767 1860.8326,-229.3195 1860.6517,-236.3171"/>
</g>
<!-- Node200 -->
<g id="node34" class="node">
<title>Node200</title>
<g id="a_node34"><a xlink:href="_boussinesq_buoyancy_8_h.html" target="_top" xlink:title="BoussinesqBuoyancy.H">
<polygon fill="#ffffff" stroke="#ff0000" points="248.5,-112.5 248.5,-131.5 377.5,-131.5 377.5,-112.5 248.5,-112.5"/>
<text text-anchor="middle" x="313" y="-119.5" font-family="Helvetica,sans-Serif" font-size="10.00" fill="#000000">BoussinesqBuoyancy.H</text>
</a>
</g>
</g>
<!-- Node20&#45;&gt;Node200 -->
<g id="edge49" class="edge">
<title>Node20&#45;&gt;Node200</title>
<path fill="none" stroke="#191970" d="M1860.4147,-233.2212C1631.6573,-229.3704 650.5095,-211.6006 516,-188 448.29,-176.1198 372.1197,-146.8027 335.3016,-131.5564"/>
<polygon fill="#191970" stroke="#191970" points="1860.6756,-236.726 1870.7328,-233.394 1860.7929,-229.727 1860.6756,-236.726"/>
</g>
<!-- Node201 -->
<g id="node35" class="node">
<title>Node201</title>
<g id="a_node35"><a xlink:href="_coriolis_forcing_8_h.html" target="_top" xlink:title="CoriolisForcing.H">
<polygon fill="#ffffff" stroke="#ff0000" points="395.5,-112.5 395.5,-131.5 494.5,-131.5 494.5,-112.5 395.5,-112.5"/>
<text text-anchor="middle" x="445" y="-119.5" font-family="Helvetica,sans-Serif" font-size="10.00" fill="#000000">CoriolisForcing.H</text>
</a>
</g>
</g>
<!-- Node20&#45;&gt;Node201 -->
<g id="edge50" class="edge">
<title>Node20&#45;&gt;Node201</title>
<path fill="none" stroke="#191970" d="M1860.7093,-233.6296C1637.6919,-231.7142 696.5812,-221.6843 570,-188 526.1266,-176.3249 480.385,-147.0567 458.3874,-131.72"/>
<polygon fill="#191970" stroke="#191970" points="1860.751,-237.13 1870.7803,-233.7148 1860.8103,-230.1303 1860.751,-237.13"/>
</g>
<!-- Node202 -->
<g id="node36" class="node">
<title>Node202</title>
<g id="a_node36"><a xlink:href="_density_buoyancy_8_h.html" target="_top" xlink:title="DensityBuoyancy.H">
<polygon fill="#ffffff" stroke="#ff0000" points="512.5,-112.5 512.5,-131.5 623.5,-131.5 623.5,-112.5 512.5,-112.5"/>
<text text-anchor="middle" x="568" y="-119.5" font-family="Helvetica,sans-Serif" font-size="10.00" fill="#000000">DensityBuoyancy.H</text>
</a>
</g>
</g>
<!-- Node20&#45;&gt;Node202 -->
<g id="edge51" class="edge">
<title>Node20&#45;&gt;Node202</title>
<path fill="none" stroke="#191970" d="M1860.7672,-233.8985C1630.8985,-233.2107 638.1695,-227.9308 587,-188 569.7036,-174.5026 567.4554,-146.312 567.5589,-131.5225"/>
<polygon fill="#191970" stroke="#191970" points="1860.8093,-237.3986 1870.8192,-233.9271 1860.8292,-230.3986 1860.8093,-237.3986"/>
</g>
<!-- Node204 -->
<g id="node37" class="node">
<title>Node204</title>
<g id="a_node37"><a xlink:href="_gravity_forcing_8_h.html" target="_top" xlink:title="GravityForcing.H">
<polygon fill="#ffffff" stroke="#ff0000" points="680,-112.5 680,-131.5 778,-131.5 778,-112.5 680,-112.5"/>
<text text-anchor="middle" x="729" y="-119.5" font-family="Helvetica,sans-Serif" font-size="10.00" fill="#000000">GravityForcing.H</text>
</a>
</g>
</g>
<!-- Node20&#45;&gt;Node204 -->
<g id="edge52" class="edge">
<title>Node20&#45;&gt;Node204</title>
<path fill="none" stroke="#191970" d="M1860.5181,-233.0286C1669.5354,-228.9683 963.0522,-212.4231 866,-188 818.6351,-176.0807 768.1815,-146.9212 743.8388,-131.6636"/>
<polygon fill="#191970" stroke="#191970" points="1860.7179,-236.5335 1870.7896,-233.2455 1860.8658,-229.5351 1860.7179,-236.5335"/>
</g>
<!-- Node206 -->
<g id="node38" class="node">
<title>Node206</title>
<g id="a_node38"><a xlink:href="_m_m_s_forcing_8_h.html" target="_top" xlink:title="MMSForcing.H">
<polygon fill="#ffffff" stroke="#ff0000" points="796.5,-112.5 796.5,-131.5 881.5,-131.5 881.5,-112.5 796.5,-112.5"/>
<text text-anchor="middle" x="839" y="-119.5" font-family="Helvetica,sans-Serif" font-size="10.00" fill="#000000">MMSForcing.H</text>
</a>
</g>
</g>
<!-- Node20&#45;&gt;Node206 -->
<g id="edge60" class="edge">
<title>Node20&#45;&gt;Node206</title>
<path fill="none" stroke="#191970" d="M1860.6531,-232.8884C1666.5455,-228.198 939.8408,-209.282 896,-188 870.9391,-175.8345 852.4569,-147.0612 844.0431,-131.8385"/>
<polygon fill="#191970" stroke="#191970" points="1860.7374,-236.3914 1870.8187,-233.1328 1860.9057,-229.3934 1860.7374,-236.3914"/>
</g>
<!-- Node207 -->
<g id="node39" class="node">
<title>Node207</title>
<g id="a_node39"><a xlink:href="_source_term_8_h.html" target="_top" xlink:title="SourceTerm.H">
<polygon fill="#ffffff" stroke="#ff0000" points="2640,-168.5 2640,-187.5 2724,-187.5 2724,-168.5 2640,-168.5"/>
<text text-anchor="middle" x="2682" y="-175.5" font-family="Helvetica,sans-Serif" font-size="10.00" fill="#000000">SourceTerm.H</text>
</a>
</g>
</g>
<!-- Node20&#45;&gt;Node207 -->
<g id="edge53" class="edge">
<title>Node20&#45;&gt;Node207</title>
<path fill="none" stroke="#191970" d="M1955.3063,-233.1173C2071.0553,-230.4959 2377.5885,-220.7644 2631,-188 2633.8635,-187.6298 2636.8079,-187.1959 2639.7684,-186.72"/>
<polygon fill="#191970" stroke="#191970" points="1954.9519,-229.6242 1945.031,-233.3425 1955.1054,-236.6225 1954.9519,-229.6242"/>
</g>
<!-- Node208 -->
<g id="node40" class="node">
<title>Node208</title>
<g id="a_node40"><a xlink:href="_s_d_r_source_8_h.html" target="_top" xlink:title="SDRSource.H">
<polygon fill="#ffffff" stroke="#ff0000" points="2742,-168.5 2742,-187.5 2822,-187.5 2822,-168.5 2742,-168.5"/>
<text text-anchor="middle" x="2782" y="-175.5" font-family="Helvetica,sans-Serif" font-size="10.00" fill="#000000">SDRSource.H</text>
</a>
</g>
</g>
<!-- Node20&#45;&gt;Node208 -->
<g id="edge55" class="edge">
<title>Node20&#45;&gt;Node208</title>
<path fill="none" stroke="#191970" d="M1955.8433,-232.2501C2108.217,-226.5323 2581.0406,-207.6363 2733,-188 2735.9276,-187.6217 2738.9419,-187.1675 2741.9682,-186.6642"/>
<polygon fill="#191970" stroke="#191970" points="1955.2974,-228.7679 1945.435,-232.6388 1955.5587,-235.763 1955.2974,-228.7679"/>
</g>
<!-- Node210 -->
<g id="node41" class="node">
<title>Node210</title>
<g id="a_node41"><a xlink:href="_temperature_source_8_h.html" target="_top" xlink:title="TemperatureSource.H">
<polygon fill="#ffffff" stroke="#ff0000" points="2840,-168.5 2840,-187.5 2962,-187.5 2962,-168.5 2840,-168.5"/>
<text text-anchor="middle" x="2901" y="-175.5" font-family="Helvetica,sans-Serif" font-size="10.00" fill="#000000">TemperatureSource.H</text>
</a>
</g>
</g>
<!-- Node20&#45;&gt;Node210 -->
<g id="edge56" class="edge">
<title>Node20&#45;&gt;Node210</title>
<path fill="none" stroke="#191970" d="M1955.0986,-233.1838C2091.1494,-230.4966 2496.3514,-220.1735 2831,-188 2833.9328,-187.718 2836.9309,-187.4011 2839.9563,-187.0581"/>
<polygon fill="#191970" stroke="#191970" points="1954.9499,-229.6859 1945.0194,-233.3785 1955.0852,-236.6846 1954.9499,-229.6859"/>
</g>
<!-- Node211 -->
<g id="node42" class="node">
<title>Node211</title>
<g id="a_node42"><a xlink:href="_t_k_e_source_8_h.html" target="_top" xlink:title="TKESource.H">
<polygon fill="#ffffff" stroke="#ff0000" points="2980.5,-168.5 2980.5,-187.5 3059.5,-187.5 3059.5,-168.5 2980.5,-168.5"/>
<text text-anchor="middle" x="3020" y="-175.5" font-family="Helvetica,sans-Serif" font-size="10.00" fill="#000000">TKESource.H</text>
</a>
</g>
</g>
<!-- Node20&#45;&gt;Node211 -->
<g id="edge57" class="edge">
<title>Node20&#45;&gt;Node211</title>
<path fill="none" stroke="#191970" d="M1955.2853,-232.9488C2134.2542,-228.8157 2770.117,-212.6875 2971,-188 2974.0161,-187.6293 2977.1234,-187.1731 2980.2406,-186.6616"/>
<polygon fill="#191970" stroke="#191970" points="1955.058,-229.453 1945.1409,-233.1815 1955.2186,-236.4512 1955.058,-229.453"/>
</g>
<!-- Node215 -->
<g id="node43" class="node">
<title>Node215</title>
<g id="a_node43"><a xlink:href="_split_advection_8_h.html" target="_top" xlink:title="SplitAdvection.H">
<polygon fill="#ffffff" stroke="#ff0000" points="3077,-168.5 3077,-187.5 3175,-187.5 3175,-168.5 3077,-168.5"/>
<text text-anchor="middle" x="3126" y="-175.5" font-family="Helvetica,sans-Serif" font-size="10.00" fill="#000000">SplitAdvection.H</text>
</a>
</g>
</g>
<!-- Node20&#45;&gt;Node215 -->
<g id="edge58" class="edge">
<title>Node20&#45;&gt;Node215</title>
<path fill="none" stroke="#191970" d="M1955.1899,-232.9759C2144.2699,-228.7418 2847.5401,-211.7055 3069,-188 3071.5974,-187.722 3074.2551,-187.3973 3076.9342,-187.0382"/>
<polygon fill="#191970" stroke="#191970" points="1954.9436,-229.4805 1945.0241,-233.2023 1955.0996,-236.4787 1954.9436,-229.4805"/>
</g>
<!-- Node217 -->
<g id="node44" class="node">
<title>Node217</title>
<g id="a_node44"><a xlink:href="fvm__utils_8_h.html" target="_top" xlink:title="fvm_utils.H">
<polygon fill="#ffffff" stroke="#ff0000" points="3193.5,-168.5 3193.5,-187.5 3266.5,-187.5 3266.5,-168.5 3193.5,-168.5"/>
<text text-anchor="middle" x="3230" y="-175.5" font-family="Helvetica,sans-Serif" font-size="10.00" fill="#000000">fvm_utils.H</text>
</a>
</g>
</g>
<!-- Node20&#45;&gt;Node217 -->
<g id="edge59" class="edge">
<title>Node20&#45;&gt;Node217</title>
<path fill="none" stroke="#191970" d="M1955.2124,-233.4238C2155.9336,-230.8005 2939.2954,-218.7602 3184,-188 3187.0814,-187.6127 3190.2615,-187.12 3193.4432,-186.5618"/>
<polygon fill="#191970" stroke="#191970" points="1954.9581,-229.9267 1945.0041,-233.5556 1955.0485,-236.9261 1954.9581,-229.9267"/>
</g>
<!-- Node227 -->
<g id="node45" class="node">
<title>Node227</title>
<g id="a_node45"><a xlink:href="_linear_profile_8cpp.html" target="_top" xlink:title="LinearProfile.cpp">
<polygon fill="#ffffff" stroke="#000000" points="3285,-168.5 3285,-187.5 3383,-187.5 3383,-168.5 3285,-168.5"/>
<text text-anchor="middle" x="3334" y="-175.5" font-family="Helvetica,sans-Serif" font-size="10.00" fill="#000000">LinearProfile.cpp</text>
</a>
</g>
</g>
<!-- Node20&#45;&gt;Node227 -->
<g id="edge62" class="edge">
<title>Node20&#45;&gt;Node227</title>
<path fill="none" stroke="#191970" d="M1955.1449,-233.2837C2164.5317,-229.9686 3011.5649,-215.1128 3276,-188 3278.8461,-187.7082 3281.7635,-187.3606 3284.7025,-186.9729"/>
<polygon fill="#191970" stroke="#191970" points="1955.0352,-229.7849 1945.0915,-233.4417 1955.1453,-236.784 1955.0352,-229.7849"/>
</g>
<!-- Node85 -->
<g id="node46" class="node">
<title>Node85</title>
<g id="a_node46"><a xlink:href="_power_law_profile_8cpp.html" target="_top" xlink:title="PowerLawProfile.cpp">
<polygon fill="#ffffff" stroke="#000000" points="3401.5,-168.5 3401.5,-187.5 3518.5,-187.5 3518.5,-168.5 3401.5,-168.5"/>
<text text-anchor="middle" x="3460" y="-175.5" font-family="Helvetica,sans-Serif" font-size="10.00" fill="#000000">PowerLawProfile.cpp</text>
</a>
</g>
</g>
<!-- Node20&#45;&gt;Node85 -->
<g id="edge63" class="edge">
<title>Node20&#45;&gt;Node85</title>
<path fill="none" stroke="#191970" d="M1955.479,-233.2645C2176.1755,-229.7327 3103.2275,-213.6232 3392,-188 3395.0903,-187.7258 3398.2543,-187.4041 3401.4452,-187.0475"/>
<polygon fill="#191970" stroke="#191970" points="1955.1532,-229.7691 1945.2101,-233.4279 1955.2646,-236.7683 1955.1532,-229.7691"/>
</g>
<!-- Node228 -->
<g id="node47" class="node">
<title>Node228</title>
<g id="a_node47"><a xlink:href="_u_d_f_8cpp.html" target="_top" xlink:title="UDF.cpp">
<polygon fill="#ffffff" stroke="#000000" points="3537,-168.5 3537,-187.5 3593,-187.5 3593,-168.5 3537,-168.5"/>
<text text-anchor="middle" x="3565" y="-175.5" font-family="Helvetica,sans-Serif" font-size="10.00" fill="#000000">UDF.cpp</text>
</a>
</g>
</g>
<!-- Node20&#45;&gt;Node228 -->
<g id="edge64" class="edge">
<title>Node20&#45;&gt;Node228</title>
<path fill="none" stroke="#191970" d="M1955.4725,-233.3186C2206.0256,-229.6333 3369.1788,-211.3826 3528,-188 3530.8966,-187.5735 3533.8905,-186.9983 3536.8627,-186.3379"/>
<polygon fill="#191970" stroke="#191970" points="1955.1941,-229.8222 1945.2465,-233.4684 1955.2967,-236.8215 1955.1941,-229.8222"/>
</g>
<!-- Node229 -->
<g id="node48" class="node">
<title>Node229</title>
<g id="a_node48"><a xlink:href="_transport_model_8_h.html" target="_top" xlink:title="TransportModel.H">
<polygon fill="#ffffff" stroke="#ff0000" points="3611.5,-168.5 3611.5,-187.5 3712.5,-187.5 3712.5,-168.5 3611.5,-168.5"/>
<text text-anchor="middle" x="3662" y="-175.5" font-family="Helvetica,sans-Serif" font-size="10.00" fill="#000000">TransportModel.H</text>
</a>
</g>
</g>
<!-- Node20&#45;&gt;Node229 -->
<g id="edge65" class="edge">
<title>Node20&#45;&gt;Node229</title>
<path fill="none" stroke="#191970" d="M1955.1045,-233.6005C2193.5832,-231.4437 3269.438,-220.0742 3602,-188 3605.0484,-187.706 3608.176,-187.3503 3611.3259,-186.9506"/>
<polygon fill="#191970" stroke="#191970" points="1954.9973,-230.1012 1945.0291,-233.6906 1955.06,-237.1009 1954.9973,-230.1012"/>
</g>
<!-- Node140 -->
<g id="node49" class="node">
<title>Node140</title>
<g id="a_node49"><a xlink:href="_smagorinsky_8_h.html" target="_top" xlink:title="Smagorinsky.H">
<polygon fill="#ffffff" stroke="#ff0000" points="3730.5,-168.5 3730.5,-187.5 3819.5,-187.5 3819.5,-168.5 3730.5,-168.5"/>
<text text-anchor="middle" x="3775" y="-175.5" font-family="Helvetica,sans-Serif" font-size="10.00" fill="#000000">Smagorinsky.H</text>
</a>
</g>
</g>
<!-- Node20&#45;&gt;Node140 -->
<g id="edge66" class="edge">
<title>Node20&#45;&gt;Node140</title>
<path fill="none" stroke="#191970" d="M1955.2149,-233.8335C2203.9867,-232.7993 3364.7219,-225.985 3722,-188 3724.7003,-187.7129 3727.4689,-187.3625 3730.2557,-186.9669"/>
<polygon fill="#191970" stroke="#191970" points="1955.0504,-230.334 1945.0647,-233.8745 1955.0788,-237.334 1955.0504,-230.334"/>
</g>
<!-- Node165 -->
<g id="node50" class="node">
<title>Node165</title>
<g id="a_node50"><a xlink:href="_act_src_op_8_h.html" target="_top" xlink:title="ActSrcOp.H">
<polygon fill="#ffffff" stroke="#ff0000" points="3837.5,-168.5 3837.5,-187.5 3908.5,-187.5 3908.5,-168.5 3837.5,-168.5"/>
<text text-anchor="middle" x="3873" y="-175.5" font-family="Helvetica,sans-Serif" font-size="10.00" fill="#000000">ActSrcOp.H</text>
</a>
</g>
</g>
<!-- Node20&#45;&gt;Node165 -->
<g id="edge67" class="edge">
<title>Node20&#45;&gt;Node165</title>
<path fill="none" stroke="#191970" d="M1955.1313,-233.4348C2231.6951,-230.0433 3638.099,-211.7374 3829,-188 3831.6431,-187.6713 3834.3602,-187.2536 3837.0852,-186.7762"/>
<polygon fill="#191970" stroke="#191970" points="1954.9845,-229.9362 1945.0281,-233.5582 1955.0701,-236.9357 1954.9845,-229.9362"/>
</g>
<!-- Node22&#45;&gt;Node21 -->
<g id="edge3" class="edge">
<title>Node22&#45;&gt;Node21</title>
<path fill="none" stroke="#191970" d="M140.5476,-164.2473C118.0278,-154.0771 87.9383,-140.4883 68.0382,-131.5011"/>
<polygon fill="#191970" stroke="#191970" points="139.1294,-167.4471 149.6836,-168.3733 142.0105,-161.0675 139.1294,-167.4471"/>
</g>
<!-- Node23 -->
<g id="node4" class="node">
<title>Node23</title>
<g id="a_node4"><a xlink:href="_fixed_gradient_b_c_8cpp.html" target="_top" xlink:title="FixedGradientBC.cpp">
<polygon fill="#ffffff" stroke="#000000" points="112,-112.5 112,-131.5 230,-131.5 230,-112.5 112,-112.5"/>
<text text-anchor="middle" x="171" y="-119.5" font-family="Helvetica,sans-Serif" font-size="10.00" fill="#000000">FixedGradientBC.cpp</text>
</a>
</g>
</g>
<!-- Node22&#45;&gt;Node23 -->
<g id="edge4" class="edge">
<title>Node22&#45;&gt;Node23</title>
<path fill="none" stroke="#191970" d="M171,-158.1575C171,-149.155 171,-138.9199 171,-131.6427"/>
<polygon fill="#191970" stroke="#191970" points="167.5001,-158.2455 171,-168.2455 174.5001,-158.2456 167.5001,-158.2455"/>
</g>
<!-- Node24&#45;&gt;Node25 -->
<g id="edge6" class="edge">
<title>Node24&#45;&gt;Node25</title>
<path fill="none" stroke="#191970" d="M1264.3339,-172.6772C1205.8138,-165.1043 1097.4804,-150.1102 1006,-132 1001.4002,-131.0894 996.5378,-130.0091 991.8315,-128.9008"/>
<polygon fill="#191970" stroke="#191970" points="1263.9572,-176.1575 1274.3217,-173.9601 1264.8491,-169.2145 1263.9572,-176.1575"/>
</g>
<!-- Node44 -->
<g id="node7" class="node">
<title>Node44</title>
<g id="a_node7"><a xlink:href="_a_b_l_wall_function_8_h.html" target="_top" xlink:title="ABLWallFunction.H">
<polygon fill="#ffffff" stroke="#ff0000" points="1484.5,-56.5 1484.5,-75.5 1591.5,-75.5 1591.5,-56.5 1484.5,-56.5"/>
<text text-anchor="middle" x="1538" y="-63.5" font-family="Helvetica,sans-Serif" font-size="10.00" fill="#000000">ABLWallFunction.H</text>
</a>
</g>
</g>
<!-- Node24&#45;&gt;Node44 -->
<g id="edge7" class="edge">
<title>Node24&#45;&gt;Node44</title>
<path fill="none" stroke="#191970" d="M1349.8806,-168.2979C1440.3635,-157.4849 1642.6163,-186.8381 1692,-132 1724.7016,-95.6865 1648.1601,-78.6106 1591.6737,-71.1619"/>
<polygon fill="#191970" stroke="#191970" points="1349.3295,-164.8411 1339.9323,-169.7342 1350.3298,-171.7692 1349.3295,-164.8411"/>
</g>
<!-- Node49 -->
<g id="node8" class="node">
<title>Node49</title>
<g id="a_node8"><a xlink:href="_a_b_l_stats_8_h.html" target="_top" xlink:title="ABLStats.H">
<polygon fill="#ffffff" stroke="#ff0000" points="1420.5,-.5 1420.5,-19.5 1491.5,-19.5 1491.5,-.5 1420.5,-.5"/>
<text text-anchor="middle" x="1456" y="-7.5" font-family="Helvetica,sans-Serif" font-size="10.00" fill="#000000">ABLStats.H</text>
</a>
</g>
</g>
<!-- Node24&#45;&gt;Node49 -->
<g id="edge15" class="edge">
<title>Node24&#45;&gt;Node49</title>
<path fill="none" stroke="#191970" d="M1332.4527,-162.9862C1345.1585,-154.7784 1360.2769,-143.8752 1372,-132 1408.1322,-95.3991 1439.0774,-41.5242 1450.8869,-19.7054"/>
<polygon fill="#191970" stroke="#191970" points="1330.3275,-160.1874 1323.7104,-168.4617 1334.0432,-166.1198 1330.3275,-160.1874"/>
</g>
<!-- Node52 -->
<g id="node9" class="node">
<title>Node52</title>
<g id="a_node9"><a xlink:href="_field_plane_averaging_8_h.html" target="_top" xlink:title="FieldPlaneAveraging.H">
<polygon fill="#ffffff" stroke="#ff0000" points="1420.5,-112.5 1420.5,-131.5 1545.5,-131.5 1545.5,-112.5 1420.5,-112.5"/>
<text text-anchor="middle" x="1483" y="-119.5" font-family="Helvetica,sans-Serif" font-size="10.00" fill="#000000">FieldPlaneAveraging.H</text>
</a>
</g>
</g>
<!-- Node24&#45;&gt;Node52 -->
<g id="edge9" class="edge">
<title>Node24&#45;&gt;Node52</title>
<path fill="none" stroke="#191970" d="M1346.8404,-165.3235C1379.1173,-155.0536 1423.8852,-140.8093 1453.1393,-131.5011"/>
<polygon fill="#191970" stroke="#191970" points="1345.7235,-162.0059 1337.2555,-168.3733 1347.846,-168.6764 1345.7235,-162.0059"/>
</g>
<!-- Node47 -->
<g id="node11" class="node">
<title>Node47</title>
<g id="a_node11"><a xlink:href="_a_b_l_mean_boussinesq_8cpp.html" target="_top" xlink:title="ABLMeanBoussinesq.cpp">
<polygon fill="#ffffff" stroke="#000000" points="905.5,-.5 905.5,-19.5 1042.5,-19.5 1042.5,-.5 905.5,-.5"/>
<text text-anchor="middle" x="974" y="-7.5" font-family="Helvetica,sans-Serif" font-size="10.00" fill="#000000">ABLMeanBoussinesq.cpp</text>
</a>
</g>
</g>
<!-- Node24&#45;&gt;Node47 -->
<g id="edge21" class="edge">
<title>Node24&#45;&gt;Node47</title>
<path fill="none" stroke="#191970" d="M1264.3991,-172.7725C1193.4398,-163.759 1057.0086,-145.01 1039,-132 1018.7682,-117.3838 988.5029,-45.9799 977.8647,-19.7172"/>
<polygon fill="#191970" stroke="#191970" points="1264.0123,-176.2514 1274.3716,-174.0299 1264.888,-169.3064 1264.0123,-176.2514"/>
</g>
<!-- Node58 -->
<g id="node12" class="node">
<title>Node58</title>
<g id="a_node12"><a xlink:href="_a_b_l_boundary_plane_8_h.html" target="_top" xlink:title="ABLBoundaryPlane.H">
<polygon fill="#ffffff" stroke="#ff0000" points="1563.5,-112.5 1563.5,-131.5 1682.5,-131.5 1682.5,-112.5 1563.5,-112.5"/>
<text text-anchor="middle" x="1623" y="-119.5" font-family="Helvetica,sans-Serif" font-size="10.00" fill="#000000">ABLBoundaryPlane.H</text>
</a>
</g>
</g>
<!-- Node24&#45;&gt;Node58 -->
<g id="edge14" class="edge">
<title>Node24&#45;&gt;Node58</title>
<path fill="none" stroke="#191970" d="M1349.7336,-167.9629C1429.4575,-151.9752 1510.0946,-138.9765 1563.4586,-130.811"/>
<polygon fill="#191970" stroke="#191970" points="1348.619,-164.6174 1339.5115,-170.0306 1350.0069,-171.4784 1348.619,-164.6174"/>
</g>
<!-- Node62 -->
<g id="node13" class="node">
<title>Node62</title>
<g id="a_node13"><a xlink:href="_c_f_d_sim_8cpp.html" target="_top" xlink:title="CFDSim.cpp">
<polygon fill="#ffffff" stroke="#000000" points="1048.5,-112.5 1048.5,-131.5 1123.5,-131.5 1123.5,-112.5 1048.5,-112.5"/>
<text text-anchor="middle" x="1086" y="-119.5" font-family="Helvetica,sans-Serif" font-size="10.00" fill="#000000">CFDSim.cpp</text>
</a>
</g>
</g>
<!-- Node24&#45;&gt;Node62 -->
<g id="edge16" class="edge">
<title>Node24&#45;&gt;Node62</title>
<path fill="none" stroke="#191970" d="M1264.4762,-167.2247C1223.6635,-156.8831 1162.6191,-141.4148 1123.5561,-131.5165"/>
<polygon fill="#191970" stroke="#191970" points="1263.8373,-170.6734 1274.3907,-169.737 1265.5568,-163.8879 1263.8373,-170.6734"/>
</g>
<!-- Node63 -->
<g id="node14" class="node">
<title>Node63</title>
<g id="a_node14"><a xlink:href="_p_d_e_ops_8_h.html" target="_top" xlink:title="PDEOps.H">
<polygon fill="#ffffff" stroke="#ff0000" points="1777.5,-112.5 1777.5,-131.5 1842.5,-131.5 1842.5,-112.5 1777.5,-112.5"/>
<text text-anchor="middle" x="1810" y="-119.5" font-family="Helvetica,sans-Serif" font-size="10.00" fill="#000000">PDEOps.H</text>
</a>
</g>
</g>
<!-- Node24&#45;&gt;Node63 -->
<g id="edge17" class="edge">
<title>Node24&#45;&gt;Node63</title>
<path fill="none" stroke="#191970" d="M1349.8861,-168.0829C1533.0922,-139.2452 1583.5409,-158.7903 1763,-132 1767.703,-131.2979 1772.6418,-130.4127 1777.4782,-129.4608"/>
<polygon fill="#191970" stroke="#191970" points="1349.2439,-164.641 1339.9229,-169.6778 1350.3505,-171.553 1349.2439,-164.641"/>
</g>
<!-- Node80 -->
<g id="node15" class="node">
<title>Node80</title>
<g id="a_node15"><a xlink:href="_p_d_e_8_h.html" target="_top" xlink:title="PDE.H">
<polygon fill="#ffffff" stroke="#ff0000" points="1755.5,-56.5 1755.5,-75.5 1802.5,-75.5 1802.5,-56.5 1755.5,-56.5"/>
<text text-anchor="middle" x="1779" y="-63.5" font-family="Helvetica,sans-Serif" font-size="10.00" fill="#000000">PDE.H</text>
</a>
</g>
</g>
<!-- Node24&#45;&gt;Node80 -->
<g id="edge19" class="edge">
<title>Node24&#45;&gt;Node80</title>
<path fill="none" stroke="#191970" d="M1350.1032,-168.0778C1509.8682,-143.62 1565.6955,-197.3468 1709,-132 1736.9631,-119.2488 1760.8913,-90.7318 1772.1391,-75.6996"/>
<polygon fill="#191970" stroke="#191970" points="1349.2447,-164.6709 1339.9297,-169.7187 1350.3594,-171.5816 1349.2447,-164.6709"/>
</g>
<!-- Node46 -->
<g id="node16" class="node">
<title>Node46</title>
<g id="a_node16"><a xlink:href="_a_b_l_forcing_8cpp.html" target="_top" xlink:title="ABLForcing.cpp">
<polygon fill="#ffffff" stroke="#000000" points="1141.5,-112.5 1141.5,-131.5 1232.5,-131.5 1232.5,-112.5 1141.5,-112.5"/>
<text text-anchor="middle" x="1187" y="-119.5" font-family="Helvetica,sans-Serif" font-size="10.00" fill="#000000">ABLForcing.cpp</text>
</a>
</g>
</g>
<!-- Node24&#45;&gt;Node46 -->
<g id="edge20" class="edge">
<title>Node24&#45;&gt;Node46</title>
<path fill="none" stroke="#191970" d="M1277.2376,-164.1109C1255.4768,-153.9559 1226.5318,-140.4482 1207.3595,-131.5011"/>
<polygon fill="#191970" stroke="#191970" points="1275.8293,-167.316 1286.3713,-168.3733 1278.7895,-160.9727 1275.8293,-167.316"/>
</g>
<!-- Node102 -->
<g id="node17" class="node">
<title>Node102</title>
<g id="a_node17"><a xlink:href="_actuator_forcing_8cpp.html" target="_top" xlink:title="ActuatorForcing.cpp">
<polygon fill="#ffffff" stroke="#000000" points="1250.5,-112.5 1250.5,-131.5 1363.5,-131.5 1363.5,-112.5 1250.5,-112.5"/>
<text text-anchor="middle" x="1307" y="-119.5" font-family="Helvetica,sans-Serif" font-size="10.00" fill="#000000">ActuatorForcing.cpp</text>
</a>
</g>
</g>
<!-- Node24&#45;&gt;Node102 -->
<g id="edge22" class="edge">
<title>Node24&#45;&gt;Node102</title>
<path fill="none" stroke="#191970" d="M1307,-158.1575C1307,-149.155 1307,-138.9199 1307,-131.6427"/>
<polygon fill="#191970" stroke="#191970" points="1303.5001,-158.2455 1307,-168.2455 1310.5001,-158.2456 1303.5001,-158.2455"/>
</g>
<!-- Node24&#45;&gt;Node110 -->
<g id="edge23" class="edge">
<title>Node24&#45;&gt;Node110</title>
<path fill="none" stroke="#191970" d="M1349.9403,-168.1017C1572.299,-134.7551 1633.2064,-162.0261 1852,-132 1854.9246,-131.5986 1857.9366,-131.1275 1860.9613,-130.6122"/>
<polygon fill="#191970" stroke="#191970" points="1349.2738,-164.6628 1339.9153,-169.6295 1350.3285,-171.5829 1349.2738,-164.6628"/>
</g>
<!-- Node24&#45;&gt;Node117 -->
<g id="edge24" class="edge">
<title>Node24&#45;&gt;Node117</title>
<path fill="none" stroke="#191970" d="M1349.8464,-168.1334C1615.4572,-129.6382 1687.2344,-160.6551 1950,-132 1953.0826,-131.6638 1956.2445,-131.2816 1959.4315,-130.8673"/>
<polygon fill="#191970" stroke="#191970" points="1349.2951,-164.6768 1339.9097,-169.5927 1350.3122,-171.6025 1349.2951,-164.6768"/>
</g>
<!-- Node24&#45;&gt;Node167 -->
<g id="edge25" class="edge">
<title>Node24&#45;&gt;Node167</title>
<path fill="none" stroke="#191970" d="M1349.9605,-168.1383C1671.0557,-123.3863 1758.4937,-173.3675 2076,-132 2078.7299,-131.6443 2081.537,-131.2142 2084.356,-130.7347"/>
<polygon fill="#191970" stroke="#191970" points="1349.3165,-164.6944 1339.905,-169.5599 1350.2965,-171.6255 1349.3165,-164.6944"/>
</g>
<!-- Node44&#45;&gt;Node49 -->
<g id="edge8" class="edge">
<title>Node44&#45;&gt;Node49</title>
<path fill="none" stroke="#191970" d="M1515.289,-50.49C1500.8212,-40.6096 1482.532,-28.1194 1470.1196,-19.6427"/>
<polygon fill="#191970" stroke="#191970" points="1513.4848,-53.4962 1523.7167,-56.2455 1517.4325,-47.7156 1513.4848,-53.4962"/>
</g>
<!-- Node52&#45;&gt;Node44 -->
<g id="edge10" class="edge">
<title>Node52&#45;&gt;Node44</title>
<path fill="none" stroke="#191970" d="M1499.6226,-105.0751C1509.0855,-95.4402 1520.5969,-83.7196 1528.5295,-75.6427"/>
<polygon fill="#191970" stroke="#191970" points="1497.0903,-102.6585 1492.5803,-112.2455 1502.0845,-107.5635 1497.0903,-102.6585"/>
</g>
<!-- Node52&#45;&gt;Node49 -->
<g id="edge11" class="edge">
<title>Node52&#45;&gt;Node49</title>
<path fill="none" stroke="#191970" d="M1478.3229,-102.5987C1472.4804,-78.363 1462.7151,-37.8551 1458.2962,-19.5249"/>
<polygon fill="#191970" stroke="#191970" points="1474.9518,-103.5497 1480.698,-112.4509 1481.7569,-101.9092 1474.9518,-103.5497"/>
</g>
<!-- Node52&#45;&gt;Node57 -->
<g id="edge12" class="edge">
<title>Node52&#45;&gt;Node57</title>
<path fill="none" stroke="#191970" d="M1410.3775,-114.7893C1299.2656,-103.7569 1088.8556,-82.8651 983.0911,-72.3637"/>
<polygon fill="#191970" stroke="#191970" points="1410.1903,-118.2878 1420.4872,-115.7931 1410.882,-111.322 1410.1903,-118.2878"/>
</g>
<!-- Node57&#45;&gt;Node47 -->
<g id="edge13" class="edge">
<title>Node57&#45;&gt;Node47</title>
<path fill="none" stroke="#191970" d="M935.6226,-49.0751C945.0855,-39.4402 956.5969,-27.7196 964.5295,-19.6427"/>
<polygon fill="#191970" stroke="#191970" points="933.0903,-46.6585 928.5803,-56.2455 938.0845,-51.5635 933.0903,-46.6585"/>
</g>
<!-- Node63&#45;&gt;Node80 -->
<g id="edge18" class="edge">
<title>Node63&#45;&gt;Node80</title>
<path fill="none" stroke="#191970" d="M1799.6688,-103.3372C1794.5335,-94.0605 1788.5434,-83.2398 1784.3379,-75.6427"/>
<polygon fill="#191970" stroke="#191970" points="1796.6949,-105.1917 1804.6002,-112.2455 1802.8191,-101.8015 1796.6949,-105.1917"/>
</g>
<!-- Node194&#45;&gt;Node63 -->
<g id="edge38" class="edge">
<title>Node194&#45;&gt;Node63</title>
<path fill="none" stroke="#191970" d="M1452.167,-168.5792C1453.4568,-168.3802 1454.736,-168.1868 1456,-168 1591.9033,-147.916 1627.4458,-154.3189 1763,-132 1767.692,-131.2275 1772.6246,-130.3032 1777.4582,-129.3331"/>
<polygon fill="#191970" stroke="#191970" points="1451.4685,-165.1465 1442.1529,-170.1933 1452.5825,-172.0573 1451.4685,-165.1465"/>
</g>
<!-- Node194&#45;&gt;Node110 -->
<g id="edge39" class="edge">
<title>Node194&#45;&gt;Node110</title>
<path fill="none" stroke="#191970" d="M1452.1607,-168.5346C1453.4523,-168.3489 1454.7337,-168.1703 1456,-168 1631.1489,-144.4448 1677.1541,-157.7084 1852,-132 1854.9206,-131.5706 1857.9297,-131.0788 1860.9523,-130.5489"/>
<polygon fill="#191970" stroke="#191970" points="1451.4886,-165.0967 1442.1362,-170.075 1452.5518,-172.0155 1451.4886,-165.0967"/>
</g>
<!-- Node196&#45;&gt;Node57 -->
<g id="edge42" class="edge">
<title>Node196&#45;&gt;Node57</title>
<path fill="none" stroke="#191970" d="M653.7426,-158.1486C654.6689,-143.3353 658.4561,-123.7105 671,-112 697.0875,-87.6457 790.4961,-75.6562 854.9204,-70.1592"/>
<polygon fill="#191970" stroke="#191970" points="650.2393,-158.2452 653.4943,-168.3277 657.2372,-158.416 650.2393,-158.2452"/>
</g>
<!-- Node196&#45;&gt;Node200 -->
<g id="edge43" class="edge">
<title>Node196&#45;&gt;Node200</title>
<path fill="none" stroke="#191970" d="M585.5424,-166.7577C522.6207,-156.4245 430.3668,-141.2743 370.9924,-131.5237"/>
<polygon fill="#191970" stroke="#191970" points="585.3324,-170.27 595.7675,-168.4369 586.4669,-163.3625 585.3324,-170.27"/>
</g>
<!-- Node196&#45;&gt;Node201 -->
<g id="edge44" class="edge">
<title>Node196&#45;&gt;Node201</title>
<path fill="none" stroke="#191970" d="M608.1689,-165.7199C569.7387,-155.4228 515.648,-140.9296 480.4595,-131.5011"/>
<polygon fill="#191970" stroke="#191970" points="607.5065,-169.1658 618.0716,-168.3733 609.3182,-162.4043 607.5065,-169.1658"/>
</g>
<!-- Node196&#45;&gt;Node202 -->
<g id="edge45" class="edge">
<title>Node196&#45;&gt;Node202</title>
<path fill="none" stroke="#191970" d="M630.6095,-162.769C615.3701,-152.8456 595.9491,-140.1994 582.8084,-131.6427"/>
<polygon fill="#191970" stroke="#191970" points="628.7301,-165.7218 639.0199,-168.2455 632.5498,-159.8558 628.7301,-165.7218"/>
</g>
<!-- Node196&#45;&gt;Node204 -->
<g id="edge46" class="edge">
<title>Node196&#45;&gt;Node204</title>
<path fill="none" stroke="#191970" d="M675.1477,-162.2097C688.3201,-152.3743 704.84,-140.0394 716.0857,-131.6427"/>
<polygon fill="#191970" stroke="#191970" points="672.9828,-159.4581 667.064,-168.2455 677.1709,-165.0671 672.9828,-159.4581"/>
</g>
<!-- Node196&#45;&gt;Node206 -->
<g id="edge47" class="edge">
<title>Node196&#45;&gt;Node206</title>
<path fill="none" stroke="#191970" d="M695.4397,-165.4561C729.3991,-155.1765 776.7297,-140.8494 807.6124,-131.5011"/>
<polygon fill="#191970" stroke="#191970" points="694.3597,-162.1261 685.8026,-168.3733 696.3878,-168.8259 694.3597,-162.1261"/>
</g>
</g>
</svg>
