<?xml version="1.0" encoding="UTF-8" standalone="no"?>
<!DOCTYPE svg PUBLIC "-//W3C//DTD SVG 1.1//EN"
 "http://www.w3.org/Graphics/SVG/1.1/DTD/svg11.dtd">
<!-- Generated by graphviz version 2.40.1 (20161225.0304)
 -->
<!-- Title: IOManager.H Pages: 1 -->
<svg width="328pt" height="84pt"
 viewBox="0.00 0.00 328.00 84.00" xmlns="http://www.w3.org/2000/svg" xmlns:xlink="http://www.w3.org/1999/xlink">
<g id="graph0" class="graph" transform="scale(1 1) rotate(0) translate(4 80)">
<title>IOManager.H</title>
<polygon fill="#ffffff" stroke="transparent" points="-4,4 -4,-80 324,-80 324,4 -4,4"/>
<!-- Node0 -->
<g id="node1" class="node">
<title>Node0</title>
<polygon fill="#bfbfbf" stroke="#000000" points="109.5,-56.5 109.5,-75.5 188.5,-75.5 188.5,-56.5 109.5,-56.5"/>
<text text-anchor="middle" x="149" y="-63.5" font-family="Helvetica,sans-Serif" font-size="10.00" fill="#000000">IOManager.H</text>
</g>
<!-- Node1 -->
<g id="node2" class="node">
<title>Node1</title>
<polygon fill="#ffffff" stroke="#bfbfbf" points="0,-.5 0,-19.5 44,-19.5 44,-.5 0,-.5"/>
<text text-anchor="middle" x="22" y="-7.5" font-family="Helvetica,sans-Serif" font-size="10.00" fill="#000000">string</text>
</g>
<!-- Node0&#45;&gt;Node1 -->
<g id="edge1" class="edge">
<title>Node0&#45;&gt;Node1</title>
<path fill="none" stroke="#191970" d="M127.1679,-56.3733C106.6897,-47.3435 75.8601,-33.7494 52.8681,-23.6111"/>
<polygon fill="#191970" stroke="#191970" points="54.1093,-20.3333 43.5472,-19.5011 51.285,-26.7383 54.1093,-20.3333"/>
</g>
<!-- Node2 -->
<g id="node3" class="node">
<title>Node2</title>
<polygon fill="#ffffff" stroke="#bfbfbf" points="62.5,-.5 62.5,-19.5 155.5,-19.5 155.5,-.5 62.5,-.5"/>
<text text-anchor="middle" x="109" y="-7.5" font-family="Helvetica,sans-Serif" font-size="10.00" fill="#000000">unordered_map</text>
</g>
<!-- Node0&#45;&gt;Node2 -->
<g id="edge2" class="edge">
<title>Node0&#45;&gt;Node2</title>
<path fill="none" stroke="#191970" d="M142.0325,-56.2455C136.4689,-48.4564 128.522,-37.3308 121.8171,-27.9439"/>
<polygon fill="#191970" stroke="#191970" points="124.5481,-25.7457 115.8876,-19.6427 118.852,-29.8144 124.5481,-25.7457"/>
</g>
<!-- Node3 -->
<g id="node4" class="node">
<title>Node3</title>
<polygon fill="#ffffff" stroke="#bfbfbf" points="174,-.5 174,-19.5 206,-19.5 206,-.5 174,-.5"/>
<text text-anchor="middle" x="190" y="-7.5" font-family="Helvetica,sans-Serif" font-size="10.00" fill="#000000">set</text>
</g>
<!-- Node0&#45;&gt;Node3 -->
<g id="edge3" class="edge">
<title>Node0&#45;&gt;Node3</title>
<path fill="none" stroke="#191970" d="M156.1417,-56.2455C161.8444,-48.4564 169.99,-37.3308 176.8625,-27.9439"/>
<polygon fill="#191970" stroke="#191970" points="179.8568,-29.7789 182.9402,-19.6427 174.2087,-25.6437 179.8568,-29.7789"/>
</g>
<!-- Node4 -->
<g id="node5" class="node">
<title>Node4</title>
<polygon fill="#ffffff" stroke="#bfbfbf" points="224,-.5 224,-19.5 320,-19.5 320,-.5 224,-.5"/>
<text text-anchor="middle" x="272" y="-7.5" font-family="Helvetica,sans-Serif" font-size="10.00" fill="#000000">AMReX_Vector.H</text>
</g>
<!-- Node0&#45;&gt;Node4 -->
<g id="edge4" class="edge">
<title>Node0&#45;&gt;Node4</title>
<path fill="none" stroke="#191970" d="M170.1445,-56.3733C189.8892,-47.3838 219.5698,-33.8706 241.8055,-23.7471"/>
<polygon fill="#191970" stroke="#191970" points="243.4806,-26.8302 251.1315,-19.5011 240.58,-20.4594 243.4806,-26.8302"/>
</g>
</g>
</svg>
