<?xml version="1.0" encoding="UTF-8" standalone="no"?>
<!DOCTYPE svg PUBLIC "-//W3C//DTD SVG 1.1//EN"
 "http://www.w3.org/Graphics/SVG/1.1/DTD/svg11.dtd">
<!-- Generated by graphviz version 2.40.1 (20161225.0304)
 -->
<!-- Title: IntField.H Pages: 1 -->
<svg width="3681pt" height="308pt"
 viewBox="0.00 0.00 3681.10 308.00" xmlns="http://www.w3.org/2000/svg" xmlns:xlink="http://www.w3.org/1999/xlink">
<g id="graph0" class="graph" transform="scale(1 1) rotate(0) translate(4 304)">
<title>IntField.H</title>
<polygon fill="#ffffff" stroke="transparent" points="-4,4 -4,-304 3677.1037,-304 3677.1037,4 -4,4"/>
<!-- Node4 -->
<g id="node1" class="node">
<title>Node4</title>
<polygon fill="#bfbfbf" stroke="#000000" points="1236.5,-280.5 1236.5,-299.5 1298.5,-299.5 1298.5,-280.5 1236.5,-280.5"/>
<text text-anchor="middle" x="1267.5" y="-287.5" font-family="Helvetica,sans-Serif" font-size="10.00" fill="#000000">IntField.H</text>
</g>
<!-- Node5 -->
<g id="node2" class="node">
<title>Node5</title>
<g id="a_node2"><a xlink:href="_field_repo_8_h.html" target="_top" xlink:title="FieldRepo.H">
<polygon fill="#ffffff" stroke="#000000" points="1962.5,-224.5 1962.5,-243.5 2036.5,-243.5 2036.5,-224.5 1962.5,-224.5"/>
<text text-anchor="middle" x="1999.5" y="-231.5" font-family="Helvetica,sans-Serif" font-size="10.00" fill="#000000">FieldRepo.H</text>
</a>
</g>
</g>
<!-- Node4&#45;&gt;Node5 -->
<g id="edge1" class="edge">
<title>Node4&#45;&gt;Node5</title>
<path fill="none" stroke="#191970" d="M1309.3098,-286.8014C1439.7832,-276.8199 1838.1134,-246.3465 1962.1937,-236.854"/>
<polygon fill="#191970" stroke="#191970" points="1308.657,-283.3411 1298.9531,-287.5938 1309.191,-290.3207 1308.657,-283.3411"/>
</g>
<!-- Node174 -->
<g id="node26" class="node">
<title>Node174</title>
<g id="a_node26"><a xlink:href="_int_field_8cpp.html" target="_top" xlink:title="IntField.cpp">
<polygon fill="#ffffff" stroke="#000000" points="420.5,-168.5 420.5,-187.5 492.5,-187.5 492.5,-168.5 420.5,-168.5"/>
<text text-anchor="middle" x="456.5" y="-175.5" font-family="Helvetica,sans-Serif" font-size="10.00" fill="#000000">IntField.cpp</text>
</a>
</g>
</g>
<!-- Node4&#45;&gt;Node174 -->
<g id="edge69" class="edge">
<title>Node4&#45;&gt;Node174</title>
<path fill="none" stroke="#191970" d="M1226.1254,-285.4004C1111.4552,-272.4488 779.9912,-233.6294 506.5,-188 502.0468,-187.257 497.3835,-186.4132 492.7706,-185.5382"/>
<polygon fill="#191970" stroke="#191970" points="1225.8939,-288.8964 1236.2227,-286.5372 1226.677,-281.9403 1225.8939,-288.8964"/>
</g>
<!-- Node6 -->
<g id="node3" class="node">
<title>Node6</title>
<g id="a_node3"><a xlink:href="_b_c_interface_8cpp.html" target="_top" xlink:title="BCInterface.cpp">
<polygon fill="#ffffff" stroke="#000000" points="1542.5,-112.5 1542.5,-131.5 1636.5,-131.5 1636.5,-112.5 1542.5,-112.5"/>
<text text-anchor="middle" x="1589.5" y="-119.5" font-family="Helvetica,sans-Serif" font-size="10.00" fill="#000000">BCInterface.cpp</text>
</a>
</g>
</g>
<!-- Node5&#45;&gt;Node6 -->
<g id="edge2" class="edge">
<title>Node5&#45;&gt;Node6</title>
<path fill="none" stroke="#191970" d="M2027.381,-219.1552C2049.1439,-205.7024 2073.2579,-185.3827 2057.5,-168 2029.5694,-137.1895 1749.642,-126.2841 1636.5383,-123.116"/>
<polygon fill="#191970" stroke="#191970" points="2025.4774,-216.2142 2018.63,-224.2989 2029.0246,-222.2489 2025.4774,-216.2142"/>
</g>
<!-- Node7 -->
<g id="node4" class="node">
<title>Node7</title>
<g id="a_node4"><a xlink:href="_fixed_gradient_b_c_8_h.html" target="_top" xlink:title="FixedGradientBC.H">
<polygon fill="#ffffff" stroke="#000000" points="927.5,-168.5 927.5,-187.5 1035.5,-187.5 1035.5,-168.5 927.5,-168.5"/>
<text text-anchor="middle" x="981.5" y="-175.5" font-family="Helvetica,sans-Serif" font-size="10.00" fill="#000000">FixedGradientBC.H</text>
</a>
</g>
</g>
<!-- Node5&#45;&gt;Node7 -->
<g id="edge3" class="edge">
<title>Node5&#45;&gt;Node7</title>
<path fill="none" stroke="#191970" d="M1951.7202,-233.5428C1811.8552,-231.8081 1391.2882,-223.7667 1044.5,-188 1041.6358,-187.7046 1038.7036,-187.3661 1035.7467,-186.9962"/>
<polygon fill="#191970" stroke="#191970" points="1952.0328,-237.0466 1962.0737,-233.6659 1952.1161,-230.0471 1952.0328,-237.0466"/>
</g>
<!-- Node9 -->
<g id="node6" class="node">
<title>Node9</title>
<g id="a_node6"><a xlink:href="_c_f_d_sim_8_h.html" target="_top" xlink:title="CFDSim.H">
<polygon fill="#ffffff" stroke="#ff0000" points="549,-168.5 549,-187.5 614,-187.5 614,-168.5 549,-168.5"/>
<text text-anchor="middle" x="581.5" y="-175.5" font-family="Helvetica,sans-Serif" font-size="10.00" fill="#000000">CFDSim.H</text>
</a>
</g>
</g>
<!-- Node5&#45;&gt;Node9 -->
<g id="edge6" class="edge">
<title>Node5&#45;&gt;Node9</title>
<path fill="none" stroke="#191970" d="M1952.4361,-233.0657C1783.7523,-229.5591 1193.6543,-215.933 707.5,-188 675.7339,-186.1748 639.53,-183.2091 614.1066,-180.9803"/>
<polygon fill="#191970" stroke="#191970" points="1952.4023,-236.5656 1962.4724,-233.2727 1952.5467,-229.5671 1952.4023,-236.5656"/>
</g>
<!-- Node10 -->
<g id="node7" class="node">
<title>Node10</title>
<g id="a_node7"><a xlink:href="incflo_8_h.html" target="_top" xlink:title="incflo.H">
<polygon fill="#ffffff" stroke="#ff0000" points="0,-112.5 0,-131.5 53,-131.5 53,-112.5 0,-112.5"/>
<text text-anchor="middle" x="26.5" y="-119.5" font-family="Helvetica,sans-Serif" font-size="10.00" fill="#000000">incflo.H</text>
</a>
</g>
</g>
<!-- Node5&#45;&gt;Node10 -->
<g id="edge26" class="edge">
<title>Node5&#45;&gt;Node10</title>
<path fill="none" stroke="#191970" d="M1952.1652,-233.7724C1716.8264,-232.4713 678.5098,-224.6802 539.5,-188 521.0464,-183.1307 519.8258,-173.3304 501.5,-168 313.0989,-113.2003 254.5401,-167.121 61.5,-132 58.7643,-131.5023 55.9351,-130.8802 53.1253,-130.1913"/>
<polygon fill="#191970" stroke="#191970" points="1952.4222,-237.2737 1962.441,-233.8279 1952.4601,-230.2738 1952.4222,-237.2737"/>
</g>
<!-- Node42 -->
<g id="node11" class="node">
<title>Node42</title>
<g id="a_node11"><a xlink:href="_a_b_l_mean_boussinesq_8_h.html" target="_top" xlink:title="ABLMeanBoussinesq.H">
<polygon fill="#ffffff" stroke="#ff0000" points="1309.5,-56.5 1309.5,-75.5 1437.5,-75.5 1437.5,-56.5 1309.5,-56.5"/>
<text text-anchor="middle" x="1373.5" y="-63.5" font-family="Helvetica,sans-Serif" font-size="10.00" fill="#000000">ABLMeanBoussinesq.H</text>
</a>
</g>
</g>
<!-- Node5&#45;&gt;Node42 -->
<g id="edge48" class="edge">
<title>Node5&#45;&gt;Node42</title>
<path fill="none" stroke="#191970" d="M1980.6518,-217.7096C1962.1947,-202.6013 1932.6691,-180.609 1903.5,-168 1745.0257,-99.4962 1540.1244,-76.7637 1437.7162,-69.4024"/>
<polygon fill="#191970" stroke="#191970" points="1978.6254,-220.5775 1988.5428,-224.3052 1983.1146,-215.2065 1978.6254,-220.5775"/>
</g>
<!-- Node95 -->
<g id="node18" class="node">
<title>Node95</title>
<g id="a_node18"><a xlink:href="_p_d_e_base_8cpp.html" target="_top" xlink:title="PDEBase.cpp">
<polygon fill="#ffffff" stroke="#000000" points="1011.5,-112.5 1011.5,-131.5 1091.5,-131.5 1091.5,-112.5 1011.5,-112.5"/>
<text text-anchor="middle" x="1051.5" y="-119.5" font-family="Helvetica,sans-Serif" font-size="10.00" fill="#000000">PDEBase.cpp</text>
</a>
</g>
</g>
<!-- Node5&#45;&gt;Node95 -->
<g id="edge54" class="edge">
<title>Node5&#45;&gt;Node95</title>
<path fill="none" stroke="#191970" d="M1952.3791,-233.7903C1748.9663,-232.6587 954.7491,-225.8244 918.5,-188 912.3497,-181.5824 913.3432,-175.2401 918.5,-168 929.5205,-152.5274 976.2247,-138.8794 1011.1963,-130.5481"/>
<polygon fill="#191970" stroke="#191970" points="1952.4278,-237.2905 1962.4464,-233.8443 1952.4654,-230.2906 1952.4278,-237.2905"/>
</g>
<!-- Node102 -->
<g id="node19" class="node">
<title>Node102</title>
<g id="a_node19"><a xlink:href="_tioga_interface_8cpp.html" target="_top" xlink:title="TiogaInterface.cpp">
<polygon fill="#ffffff" stroke="#000000" points="708,-112.5 708,-131.5 815,-131.5 815,-112.5 708,-112.5"/>
<text text-anchor="middle" x="761.5" y="-119.5" font-family="Helvetica,sans-Serif" font-size="10.00" fill="#000000">TiogaInterface.cpp</text>
</a>
</g>
</g>
<!-- Node5&#45;&gt;Node102 -->
<g id="edge61" class="edge">
<title>Node5&#45;&gt;Node102</title>
<path fill="none" stroke="#191970" d="M1952.2699,-233.0832C1729.0158,-228.6453 789.3962,-208.7583 767.5,-188 752.3035,-173.5932 755.6819,-146.3125 758.9049,-131.7447"/>
<polygon fill="#191970" stroke="#191970" points="1952.2856,-236.5841 1962.353,-233.2828 1952.4243,-229.5855 1952.2856,-236.5841"/>
</g>
<!-- Node152 -->
<g id="node20" class="node">
<title>Node152</title>
<g id="a_node20"><a xlink:href="_actuator_8cpp.html" target="_top" xlink:title="Actuator.cpp">
<polygon fill="#ffffff" stroke="#000000" points="833,-112.5 833,-131.5 910,-131.5 910,-112.5 833,-112.5"/>
<text text-anchor="middle" x="871.5" y="-119.5" font-family="Helvetica,sans-Serif" font-size="10.00" fill="#000000">Actuator.cpp</text>
</a>
</g>
</g>
<!-- Node5&#45;&gt;Node152 -->
<g id="edge68" class="edge">
<title>Node5&#45;&gt;Node152</title>
<path fill="none" stroke="#191970" d="M1952.2878,-233.1093C1730.1863,-228.8099 799.2314,-209.5272 778.5,-188 755.4275,-164.0419 802.6894,-143.105 837.9083,-131.5418"/>
<polygon fill="#191970" stroke="#191970" points="1952.2562,-236.6092 1962.3218,-233.3027 1952.3911,-229.6105 1952.2562,-236.6092"/>
</g>
<!-- Node162 -->
<g id="node21" class="node">
<title>Node162</title>
<g id="a_node21"><a xlink:href="velocity__bcs_8_h.html" target="_top" xlink:title="velocity_bcs.H">
<polygon fill="#ffffff" stroke="#ff0000" points="1053.5,-168.5 1053.5,-187.5 1141.5,-187.5 1141.5,-168.5 1053.5,-168.5"/>
<text text-anchor="middle" x="1097.5" y="-175.5" font-family="Helvetica,sans-Serif" font-size="10.00" fill="#000000">velocity_bcs.H</text>
</a>
</g>
</g>
<!-- Node5&#45;&gt;Node162 -->
<g id="edge27" class="edge">
<title>Node5&#45;&gt;Node162</title>
<path fill="none" stroke="#191970" d="M1951.765,-233.6238C1822.3468,-232.1271 1454.1058,-224.7034 1150.5,-188 1147.6182,-187.6516 1144.6572,-187.241 1141.6784,-186.7883"/>
<polygon fill="#191970" stroke="#191970" points="1952.0692,-237.1272 1962.1068,-233.7364 1952.1455,-230.1276 1952.0692,-237.1272"/>
</g>
<!-- Node163 -->
<g id="node22" class="node">
<title>Node163</title>
<g id="a_node22"><a xlink:href="_godunov_8_h.html" target="_top" xlink:title="Godunov.H">
<polygon fill="#ffffff" stroke="#ff0000" points="1159.5,-168.5 1159.5,-187.5 1229.5,-187.5 1229.5,-168.5 1159.5,-168.5"/>
<text text-anchor="middle" x="1194.5" y="-175.5" font-family="Helvetica,sans-Serif" font-size="10.00" fill="#000000">Godunov.H</text>
</a>
</g>
</g>
<!-- Node5&#45;&gt;Node163 -->
<g id="edge28" class="edge">
<title>Node5&#45;&gt;Node163</title>
<path fill="none" stroke="#191970" d="M1951.9845,-232.1448C1807.9112,-226.3588 1377.3548,-207.8403 1238.5,-188 1235.7082,-187.6011 1232.8315,-187.1166 1229.949,-186.5786"/>
<polygon fill="#191970" stroke="#191970" points="1952.1217,-235.653 1962.2535,-232.5551 1952.4012,-228.6586 1952.1217,-235.653"/>
</g>
<!-- Node169 -->
<g id="node23" class="node">
<title>Node169</title>
<g id="a_node23"><a xlink:href="_m_o_l_8_h.html" target="_top" xlink:title="MOL.H">
<polygon fill="#ffffff" stroke="#ff0000" points="1247.5,-168.5 1247.5,-187.5 1295.5,-187.5 1295.5,-168.5 1247.5,-168.5"/>
<text text-anchor="middle" x="1271.5" y="-175.5" font-family="Helvetica,sans-Serif" font-size="10.00" fill="#000000">MOL.H</text>
</a>
</g>
</g>
<!-- Node5&#45;&gt;Node169 -->
<g id="edge29" class="edge">
<title>Node5&#45;&gt;Node169</title>
<path fill="none" stroke="#191970" d="M1952.0048,-232.2135C1816.5675,-226.903 1430.1988,-210.1917 1305.5,-188 1302.35,-187.4394 1299.0769,-186.694 1295.8606,-185.8619"/>
<polygon fill="#191970" stroke="#191970" points="1951.9415,-235.7136 1962.07,-232.6052 1952.2137,-228.7189 1951.9415,-235.7136"/>
</g>
<!-- Node172 -->
<g id="node24" class="node">
<title>Node172</title>
<g id="a_node24"><a xlink:href="_field_8cpp.html" target="_top" xlink:title="Field.cpp">
<polygon fill="#ffffff" stroke="#000000" points="1314,-168.5 1314,-187.5 1373,-187.5 1373,-168.5 1314,-168.5"/>
<text text-anchor="middle" x="1343.5" y="-175.5" font-family="Helvetica,sans-Serif" font-size="10.00" fill="#000000">Field.cpp</text>
</a>
</g>
</g>
<!-- Node5&#45;&gt;Node172 -->
<g id="edge30" class="edge">
<title>Node5&#45;&gt;Node172</title>
<path fill="none" stroke="#191970" d="M1952.2227,-233.3137C1848.4307,-231.188 1593.0906,-222.5707 1382.5,-188 1379.4651,-187.5018 1376.3213,-186.8794 1373.1958,-186.1903"/>
<polygon fill="#191970" stroke="#191970" points="1952.3062,-236.8159 1962.3722,-233.5106 1952.442,-229.8172 1952.3062,-236.8159"/>
</g>
<!-- Node173 -->
<g id="node25" class="node">
<title>Node173</title>
<g id="a_node25"><a xlink:href="_field_repo_8cpp.html" target="_top" xlink:title="FieldRepo.cpp">
<polygon fill="#ffffff" stroke="#000000" points="1391,-168.5 1391,-187.5 1474,-187.5 1474,-168.5 1391,-168.5"/>
<text text-anchor="middle" x="1432.5" y="-175.5" font-family="Helvetica,sans-Serif" font-size="10.00" fill="#000000">FieldRepo.cpp</text>
</a>
</g>
</g>
<!-- Node5&#45;&gt;Node173 -->
<g id="edge31" class="edge">
<title>Node5&#45;&gt;Node173</title>
<path fill="none" stroke="#191970" d="M1952.4382,-231.4589C1861.4921,-226.1827 1655.4054,-212.4474 1483.5,-188 1480.4628,-187.5681 1477.3328,-187.0745 1474.1882,-186.5432"/>
<polygon fill="#191970" stroke="#191970" points="1952.2478,-234.9536 1962.4316,-232.0313 1952.6482,-227.9651 1952.2478,-234.9536"/>
</g>
<!-- Node5&#45;&gt;Node174 -->
<g id="edge32" class="edge">
<title>Node5&#45;&gt;Node174</title>
<path fill="none" stroke="#191970" d="M1952.0634,-233.6027C1730.5352,-231.584 796.4256,-221.2243 506.5,-188 502.0146,-187.486 497.3319,-186.7799 492.7086,-185.9787"/>
<polygon fill="#191970" stroke="#191970" points="1952.337,-237.1052 1962.3681,-233.6952 1952.4,-230.1054 1952.337,-237.1052"/>
</g>
<!-- Node175 -->
<g id="node27" class="node">
<title>Node175</title>
<g id="a_node27"><a xlink:href="_scratch_field_8cpp.html" target="_top" xlink:title="ScratchField.cpp">
<polygon fill="#ffffff" stroke="#000000" points="1492,-168.5 1492,-187.5 1587,-187.5 1587,-168.5 1492,-168.5"/>
<text text-anchor="middle" x="1539.5" y="-175.5" font-family="Helvetica,sans-Serif" font-size="10.00" fill="#000000">ScratchField.cpp</text>
</a>
</g>
</g>
<!-- Node5&#45;&gt;Node175 -->
<g id="edge33" class="edge">
<title>Node5&#45;&gt;Node175</title>
<path fill="none" stroke="#191970" d="M1952.341,-229.5438C1876.9748,-222.2139 1724.8009,-206.5598 1596.5,-188 1593.4175,-187.5541 1590.2458,-187.0695 1587.0515,-186.5622"/>
<polygon fill="#191970" stroke="#191970" points="1952.1647,-233.043 1962.4553,-230.5223 1952.8388,-226.0755 1952.1647,-233.043"/>
</g>
<!-- Node176 -->
<g id="node28" class="node">
<title>Node176</title>
<g id="a_node28"><a xlink:href="_view_field_8cpp.html" target="_top" xlink:title="ViewField.cpp">
<polygon fill="#ffffff" stroke="#000000" points="1605,-168.5 1605,-187.5 1688,-187.5 1688,-168.5 1605,-168.5"/>
<text text-anchor="middle" x="1646.5" y="-175.5" font-family="Helvetica,sans-Serif" font-size="10.00" fill="#000000">ViewField.cpp</text>
</a>
</g>
</g>
<!-- Node5&#45;&gt;Node176 -->
<g id="edge34" class="edge">
<title>Node5&#45;&gt;Node176</title>
<path fill="none" stroke="#191970" d="M1951.9992,-227.4011C1892.4256,-218.9787 1787.2074,-203.6196 1697.5,-188 1694.4777,-187.4738 1691.3587,-186.9109 1688.2218,-186.3305"/>
<polygon fill="#191970" stroke="#191970" points="1951.8325,-230.9121 1962.223,-228.8417 1952.8092,-223.9805 1951.8325,-230.9121"/>
</g>
<!-- Node177 -->
<g id="node29" class="node">
<title>Node177</title>
<g id="a_node29"><a xlink:href="field__algebra_8cpp.html" target="_top" xlink:title="field_algebra.cpp">
<polygon fill="#ffffff" stroke="#000000" points="1706.5,-168.5 1706.5,-187.5 1806.5,-187.5 1806.5,-168.5 1706.5,-168.5"/>
<text text-anchor="middle" x="1756.5" y="-175.5" font-family="Helvetica,sans-Serif" font-size="10.00" fill="#000000">field_algebra.cpp</text>
</a>
</g>
</g>
<!-- Node5&#45;&gt;Node177 -->
<g id="edge35" class="edge">
<title>Node5&#45;&gt;Node177</title>
<path fill="none" stroke="#191970" d="M1952.5423,-223.1785C1907.6462,-212.8321 1840.6185,-197.3853 1797.7335,-187.5024"/>
<polygon fill="#191970" stroke="#191970" points="1951.7984,-226.5987 1962.329,-225.4338 1953.3704,-219.7775 1951.7984,-226.5987"/>
</g>
<!-- Node178 -->
<g id="node30" class="node">
<title>Node178</title>
<g id="a_node30"><a xlink:href="diffusion_8_h.html" target="_top" xlink:title="diffusion.H">
<polygon fill="#ffffff" stroke="#ff0000" points="1825,-168.5 1825,-187.5 1894,-187.5 1894,-168.5 1825,-168.5"/>
<text text-anchor="middle" x="1859.5" y="-175.5" font-family="Helvetica,sans-Serif" font-size="10.00" fill="#000000">diffusion.H</text>
</a>
</g>
</g>
<!-- Node5&#45;&gt;Node178 -->
<g id="edge36" class="edge">
<title>Node5&#45;&gt;Node178</title>
<path fill="none" stroke="#191970" d="M1966.1351,-220.6541C1940.6048,-210.4419 1906.0216,-196.6086 1883.2528,-187.5011"/>
<polygon fill="#191970" stroke="#191970" points="1964.8485,-223.909 1975.4331,-224.3733 1967.4483,-217.4096 1964.8485,-223.909"/>
</g>
<!-- Node179 -->
<g id="node31" class="node">
<title>Node179</title>
<g id="a_node31"><a xlink:href="_p_d_e_helpers_8_h.html" target="_top" xlink:title="PDEHelpers.H">
<polygon fill="#ffffff" stroke="#ff0000" points="787.5,-168.5 787.5,-187.5 871.5,-187.5 871.5,-168.5 787.5,-168.5"/>
<text text-anchor="middle" x="829.5" y="-175.5" font-family="Helvetica,sans-Serif" font-size="10.00" fill="#000000">PDEHelpers.H</text>
</a>
</g>
</g>
<!-- Node5&#45;&gt;Node179 -->
<g id="edge37" class="edge">
<title>Node5&#45;&gt;Node179</title>
<path fill="none" stroke="#191970" d="M1952.1123,-232.8996C1767.6227,-228.4828 1097.1414,-211.1584 885.5,-188 880.984,-187.5058 876.2828,-186.8664 871.6088,-186.1498"/>
<polygon fill="#191970" stroke="#191970" points="1952.2197,-236.4031 1962.3002,-233.1422 1952.3864,-229.4051 1952.2197,-236.4031"/>
</g>
<!-- Node180 -->
<g id="node32" class="node">
<title>Node180</title>
<g id="a_node32"><a xlink:href="_density_source_8_h.html" target="_top" xlink:title="DensitySource.H">
<polygon fill="#ffffff" stroke="#ff0000" points="1950.5,-168.5 1950.5,-187.5 2048.5,-187.5 2048.5,-168.5 1950.5,-168.5"/>
<text text-anchor="middle" x="1999.5" y="-175.5" font-family="Helvetica,sans-Serif" font-size="10.00" fill="#000000">DensitySource.H</text>
</a>
</g>
</g>
<!-- Node5&#45;&gt;Node180 -->
<g id="edge40" class="edge">
<title>Node5&#45;&gt;Node180</title>
<path fill="none" stroke="#191970" d="M1999.5,-214.1575C1999.5,-205.155 1999.5,-194.9199 1999.5,-187.6427"/>
<polygon fill="#191970" stroke="#191970" points="1996.0001,-214.2455 1999.5,-224.2455 2003.0001,-214.2456 1996.0001,-214.2455"/>
</g>
<!-- Node181 -->
<g id="node33" class="node">
<title>Node181</title>
<g id="a_node33"><a xlink:href="_momentum_source_8_h.html" target="_top" xlink:title="MomentumSource.H">
<polygon fill="#ffffff" stroke="#ff0000" points="2180.5,-168.5 2180.5,-187.5 2296.5,-187.5 2296.5,-168.5 2180.5,-168.5"/>
<text text-anchor="middle" x="2238.5" y="-175.5" font-family="Helvetica,sans-Serif" font-size="10.00" fill="#000000">MomentumSource.H</text>
</a>
</g>
</g>
<!-- Node5&#45;&gt;Node181 -->
<g id="edge41" class="edge">
<title>Node5&#45;&gt;Node181</title>
<path fill="none" stroke="#191970" d="M2046.4745,-222.9934C2090.5481,-212.6666 2155.79,-197.3798 2197.7268,-187.5536"/>
<polygon fill="#191970" stroke="#191970" points="2045.5193,-219.6223 2036.5815,-225.3114 2047.1163,-226.4378 2045.5193,-219.6223"/>
</g>
<!-- Node185 -->
<g id="node34" class="node">
<title>Node185</title>
<g id="a_node34"><a xlink:href="_boussinesq_buoyancy_8_h.html" target="_top" xlink:title="BoussinesqBuoyancy.H">
<polygon fill="#ffffff" stroke="#ff0000" points="1960,-112.5 1960,-131.5 2089,-131.5 2089,-112.5 1960,-112.5"/>
<text text-anchor="middle" x="2024.5" y="-119.5" font-family="Helvetica,sans-Serif" font-size="10.00" fill="#000000">BoussinesqBuoyancy.H</text>
</a>
</g>
</g>
<!-- Node5&#45;&gt;Node185 -->
<g id="edge49" class="edge">
<title>Node5&#45;&gt;Node185</title>
<path fill="none" stroke="#191970" d="M2045.9378,-221.8183C2063.0005,-214.8488 2080.5627,-204.158 2090.5,-188 2104.8464,-164.6729 2071.4878,-143.3816 2047.1575,-131.6044"/>
<polygon fill="#191970" stroke="#191970" points="2044.706,-218.5421 2036.5615,-225.3184 2047.1541,-225.1001 2044.706,-218.5421"/>
</g>
<!-- Node186 -->
<g id="node35" class="node">
<title>Node186</title>
<g id="a_node35"><a xlink:href="_coriolis_forcing_8_h.html" target="_top" xlink:title="CoriolisForcing.H">
<polygon fill="#ffffff" stroke="#ff0000" points="2107,-112.5 2107,-131.5 2206,-131.5 2206,-112.5 2107,-112.5"/>
<text text-anchor="middle" x="2156.5" y="-119.5" font-family="Helvetica,sans-Serif" font-size="10.00" fill="#000000">CoriolisForcing.H</text>
</a>
</g>
</g>
<!-- Node5&#45;&gt;Node186 -->
<g id="edge50" class="edge">
<title>Node5&#45;&gt;Node186</title>
<path fill="none" stroke="#191970" d="M2042.5486,-220.9308C2062.9436,-213.3953 2086.8585,-202.5028 2105.5,-188 2126.0726,-171.9949 2142.9286,-145.8676 2151.1237,-131.7651"/>
<polygon fill="#191970" stroke="#191970" points="2041.1165,-217.7249 2032.8578,-224.3615 2043.4526,-224.3236 2041.1165,-217.7249"/>
</g>
<!-- Node187 -->
<g id="node36" class="node">
<title>Node187</title>
<g id="a_node36"><a xlink:href="_density_buoyancy_8_h.html" target="_top" xlink:title="DensityBuoyancy.H">
<polygon fill="#ffffff" stroke="#ff0000" points="2263,-112.5 2263,-131.5 2374,-131.5 2374,-112.5 2263,-112.5"/>
<text text-anchor="middle" x="2318.5" y="-119.5" font-family="Helvetica,sans-Serif" font-size="10.00" fill="#000000">DensityBuoyancy.H</text>
</a>
</g>
</g>
<!-- Node5&#45;&gt;Node187 -->
<g id="edge51" class="edge">
<title>Node5&#45;&gt;Node187</title>
<path fill="none" stroke="#191970" d="M2046.5063,-229.9053C2127.6336,-222.4082 2287.0641,-205.6196 2305.5,-188 2320.8658,-173.3146 2320.954,-146.1515 2319.721,-131.6749"/>
<polygon fill="#191970" stroke="#191970" points="2046.1838,-226.4201 2036.5438,-230.8156 2046.8208,-233.3911 2046.1838,-226.4201"/>
</g>
<!-- Node189 -->
<g id="node37" class="node">
<title>Node189</title>
<g id="a_node37"><a xlink:href="_gravity_forcing_8_h.html" target="_top" xlink:title="GravityForcing.H">
<polygon fill="#ffffff" stroke="#ff0000" points="2392.5,-112.5 2392.5,-131.5 2490.5,-131.5 2490.5,-112.5 2392.5,-112.5"/>
<text text-anchor="middle" x="2441.5" y="-119.5" font-family="Helvetica,sans-Serif" font-size="10.00" fill="#000000">GravityForcing.H</text>
</a>
</g>
</g>
<!-- Node5&#45;&gt;Node189 -->
<g id="edge52" class="edge">
<title>Node5&#45;&gt;Node189</title>
<path fill="none" stroke="#191970" d="M2046.9573,-229.4721C2124.3387,-221.7232 2274.1195,-205.0938 2324.5,-188 2364.9153,-174.2873 2407.3366,-146.4534 2428.2436,-131.6944"/>
<polygon fill="#191970" stroke="#191970" points="2046.1425,-226.0357 2036.5368,-230.5057 2046.8335,-233.0015 2046.1425,-226.0357"/>
</g>
<!-- Node191 -->
<g id="node38" class="node">
<title>Node191</title>
<g id="a_node38"><a xlink:href="_m_m_s_forcing_8_h.html" target="_top" xlink:title="MMSForcing.H">
<polygon fill="#ffffff" stroke="#ff0000" points="3075,-112.5 3075,-131.5 3160,-131.5 3160,-112.5 3075,-112.5"/>
<text text-anchor="middle" x="3117.5" y="-119.5" font-family="Helvetica,sans-Serif" font-size="10.00" fill="#000000">MMSForcing.H</text>
</a>
</g>
</g>
<!-- Node5&#45;&gt;Node191 -->
<g id="edge60" class="edge">
<title>Node5&#45;&gt;Node191</title>
<path fill="none" stroke="#191970" d="M2047.0027,-233.5949C2316.2244,-231.1892 3639.4538,-217.8578 3668.5,-188 3674.6982,-181.6286 3674.5183,-174.5416 3668.5,-168 3634.2979,-130.8236 3283.7997,-123.6834 3160.2889,-122.3197"/>
<polygon fill="#191970" stroke="#191970" points="2046.751,-230.0969 2036.7825,-233.6855 2046.8131,-237.0966 2046.751,-230.0969"/>
</g>
<!-- Node192 -->
<g id="node39" class="node">
<title>Node192</title>
<g id="a_node39"><a xlink:href="_source_term_8_h.html" target="_top" xlink:title="SourceTerm.H">
<polygon fill="#ffffff" stroke="#ff0000" points="2390.5,-168.5 2390.5,-187.5 2474.5,-187.5 2474.5,-168.5 2390.5,-168.5"/>
<text text-anchor="middle" x="2432.5" y="-175.5" font-family="Helvetica,sans-Serif" font-size="10.00" fill="#000000">SourceTerm.H</text>
</a>
</g>
</g>
<!-- Node5&#45;&gt;Node192 -->
<g id="edge53" class="edge">
<title>Node5&#45;&gt;Node192</title>
<path fill="none" stroke="#191970" d="M2046.5495,-229.1047C2118.0068,-221.479 2258.106,-205.78 2376.5,-188 2380.9926,-187.3253 2385.6788,-186.5702 2390.3439,-185.7854"/>
<polygon fill="#191970" stroke="#191970" points="2046.0898,-225.6337 2036.5154,-230.1705 2046.8292,-232.5946 2046.0898,-225.6337"/>
</g>
<!-- Node193 -->
<g id="node40" class="node">
<title>Node193</title>
<g id="a_node40"><a xlink:href="_s_d_r_source_8_h.html" target="_top" xlink:title="SDRSource.H">
<polygon fill="#ffffff" stroke="#ff0000" points="2492.5,-168.5 2492.5,-187.5 2572.5,-187.5 2572.5,-168.5 2492.5,-168.5"/>
<text text-anchor="middle" x="2532.5" y="-175.5" font-family="Helvetica,sans-Serif" font-size="10.00" fill="#000000">SDRSource.H</text>
</a>
</g>
</g>
<!-- Node5&#45;&gt;Node193 -->
<g id="edge55" class="edge">
<title>Node5&#45;&gt;Node193</title>
<path fill="none" stroke="#191970" d="M2046.7702,-231.1862C2133.6139,-225.6444 2324.259,-211.7473 2483.5,-188 2486.4197,-187.5646 2489.4282,-187.0684 2492.4503,-186.5354"/>
<polygon fill="#191970" stroke="#191970" points="2046.4632,-227.6985 2036.7032,-231.8207 2046.9035,-234.6846 2046.4632,-227.6985"/>
</g>
<!-- Node195 -->
<g id="node41" class="node">
<title>Node195</title>
<g id="a_node41"><a xlink:href="_temperature_source_8_h.html" target="_top" xlink:title="TemperatureSource.H">
<polygon fill="#ffffff" stroke="#ff0000" points="2590.5,-168.5 2590.5,-187.5 2712.5,-187.5 2712.5,-168.5 2590.5,-168.5"/>
<text text-anchor="middle" x="2651.5" y="-175.5" font-family="Helvetica,sans-Serif" font-size="10.00" fill="#000000">TemperatureSource.H</text>
</a>
</g>
</g>
<!-- Node5&#45;&gt;Node195 -->
<g id="edge56" class="edge">
<title>Node5&#45;&gt;Node195</title>
<path fill="none" stroke="#191970" d="M2046.6907,-231.2819C2145.8922,-225.3457 2383.2581,-209.9723 2581.5,-188 2584.4283,-187.6754 2587.4229,-187.3238 2590.4454,-186.9531"/>
<polygon fill="#191970" stroke="#191970" points="2046.4603,-227.7894 2036.6857,-231.8766 2046.8757,-234.777 2046.4603,-227.7894"/>
</g>
<!-- Node196 -->
<g id="node42" class="node">
<title>Node196</title>
<g id="a_node42"><a xlink:href="_t_k_e_source_8_h.html" target="_top" xlink:title="TKESource.H">
<polygon fill="#ffffff" stroke="#ff0000" points="2731,-168.5 2731,-187.5 2810,-187.5 2810,-168.5 2731,-168.5"/>
<text text-anchor="middle" x="2770.5" y="-175.5" font-family="Helvetica,sans-Serif" font-size="10.00" fill="#000000">TKESource.H</text>
</a>
</g>
</g>
<!-- Node5&#45;&gt;Node196 -->
<g id="edge57" class="edge">
<title>Node5&#45;&gt;Node196</title>
<path fill="none" stroke="#191970" d="M2047.172,-233.2289C2163.1133,-230.8618 2468.8686,-221.6636 2721.5,-188 2724.5982,-187.5872 2727.7941,-187.0927 2730.9988,-186.5477"/>
<polygon fill="#191970" stroke="#191970" points="2046.8051,-229.7354 2036.8758,-233.4312 2046.9427,-236.734 2046.8051,-229.7354"/>
</g>
<!-- Node200 -->
<g id="node43" class="node">
<title>Node200</title>
<g id="a_node43"><a xlink:href="_split_advection_8_h.html" target="_top" xlink:title="SplitAdvection.H">
<polygon fill="#ffffff" stroke="#ff0000" points="2827.5,-168.5 2827.5,-187.5 2925.5,-187.5 2925.5,-168.5 2827.5,-168.5"/>
<text text-anchor="middle" x="2876.5" y="-175.5" font-family="Helvetica,sans-Serif" font-size="10.00" fill="#000000">SplitAdvection.H</text>
</a>
</g>
</g>
<!-- Node5&#45;&gt;Node200 -->
<g id="edge58" class="edge">
<title>Node5&#45;&gt;Node200</title>
<path fill="none" stroke="#191970" d="M2046.9088,-233.2885C2173.0211,-230.9752 2527.0781,-221.7346 2819.5,-188 2822.095,-187.7006 2824.7508,-187.3589 2827.4284,-186.9866"/>
<polygon fill="#191970" stroke="#191970" points="2046.756,-229.7906 2036.8197,-233.4676 2046.8803,-236.7895 2046.756,-229.7906"/>
</g>
<!-- Node202 -->
<g id="node44" class="node">
<title>Node202</title>
<g id="a_node44"><a xlink:href="fvm__utils_8_h.html" target="_top" xlink:title="fvm_utils.H">
<polygon fill="#ffffff" stroke="#ff0000" points="2944,-168.5 2944,-187.5 3017,-187.5 3017,-168.5 2944,-168.5"/>
<text text-anchor="middle" x="2980.5" y="-175.5" font-family="Helvetica,sans-Serif" font-size="10.00" fill="#000000">fvm_utils.H</text>
</a>
</g>
</g>
<!-- Node5&#45;&gt;Node202 -->
<g id="edge59" class="edge">
<title>Node5&#45;&gt;Node202</title>
<path fill="none" stroke="#191970" d="M2046.9618,-232.7013C2211.9708,-228.0239 2760.0934,-211.087 2934.5,-188 2937.5787,-187.5925 2940.757,-187.0856 2943.9375,-186.5178"/>
<polygon fill="#191970" stroke="#191970" points="2046.5525,-229.2113 2036.6551,-232.9915 2046.7497,-236.2085 2046.5525,-229.2113"/>
</g>
<!-- Node212 -->
<g id="node45" class="node">
<title>Node212</title>
<g id="a_node45"><a xlink:href="_linear_profile_8cpp.html" target="_top" xlink:title="LinearProfile.cpp">
<polygon fill="#ffffff" stroke="#000000" points="3035.5,-168.5 3035.5,-187.5 3133.5,-187.5 3133.5,-168.5 3035.5,-168.5"/>
<text text-anchor="middle" x="3084.5" y="-175.5" font-family="Helvetica,sans-Serif" font-size="10.00" fill="#000000">LinearProfile.cpp</text>
</a>
</g>
</g>
<!-- Node5&#45;&gt;Node212 -->
<g id="edge62" class="edge">
<title>Node5&#45;&gt;Node212</title>
<path fill="none" stroke="#191970" d="M2046.8846,-232.6718C2222.0339,-227.6388 2832.7213,-208.9604 3026.5,-188 3029.3445,-187.6923 3032.2605,-187.3323 3035.1985,-186.9351"/>
<polygon fill="#191970" stroke="#191970" points="2046.5988,-229.1785 2036.703,-232.9631 2046.799,-236.1756 2046.5988,-229.1785"/>
</g>
<!-- Node70 -->
<g id="node46" class="node">
<title>Node70</title>
<g id="a_node46"><a xlink:href="_power_law_profile_8cpp.html" target="_top" xlink:title="PowerLawProfile.cpp">
<polygon fill="#ffffff" stroke="#000000" points="3152,-168.5 3152,-187.5 3269,-187.5 3269,-168.5 3152,-168.5"/>
<text text-anchor="middle" x="3210.5" y="-175.5" font-family="Helvetica,sans-Serif" font-size="10.00" fill="#000000">PowerLawProfile.cpp</text>
</a>
</g>
</g>
<!-- Node5&#45;&gt;Node70 -->
<g id="edge63" class="edge">
<title>Node5&#45;&gt;Node70</title>
<path fill="none" stroke="#191970" d="M2046.5634,-232.7715C2233.5616,-227.7873 2924.4152,-208.3665 3142.5,-188 3145.589,-187.7115 3148.752,-187.3785 3151.942,-187.0129"/>
<polygon fill="#191970" stroke="#191970" points="2046.4079,-229.2743 2036.5044,-233.0387 2046.5938,-236.2719 2046.4079,-229.2743"/>
</g>
<!-- Node213 -->
<g id="node47" class="node">
<title>Node213</title>
<g id="a_node47"><a xlink:href="_u_d_f_8cpp.html" target="_top" xlink:title="UDF.cpp">
<polygon fill="#ffffff" stroke="#000000" points="3287.5,-168.5 3287.5,-187.5 3343.5,-187.5 3343.5,-168.5 3287.5,-168.5"/>
<text text-anchor="middle" x="3315.5" y="-175.5" font-family="Helvetica,sans-Serif" font-size="10.00" fill="#000000">UDF.cpp</text>
</a>
</g>
</g>
<!-- Node5&#45;&gt;Node213 -->
<g id="edge64" class="edge">
<title>Node5&#45;&gt;Node213</title>
<path fill="none" stroke="#191970" d="M2046.8668,-233.7405C2248.2375,-232.4149 3034.0649,-224.932 3278.5,-188 3281.3949,-187.5626 3284.3878,-186.9801 3287.3593,-186.3154"/>
<polygon fill="#191970" stroke="#191970" points="2046.6028,-230.242 2036.6254,-233.8059 2046.6475,-237.2419 2046.6028,-230.242"/>
</g>
<!-- Node214 -->
<g id="node48" class="node">
<title>Node214</title>
<g id="a_node48"><a xlink:href="_transport_model_8_h.html" target="_top" xlink:title="TransportModel.H">
<polygon fill="#ffffff" stroke="#ff0000" points="3362,-168.5 3362,-187.5 3463,-187.5 3463,-168.5 3362,-168.5"/>
<text text-anchor="middle" x="3412.5" y="-175.5" font-family="Helvetica,sans-Serif" font-size="10.00" fill="#000000">TransportModel.H</text>
</a>
</g>
</g>
<!-- Node5&#45;&gt;Node214 -->
<g id="edge65" class="edge">
<title>Node5&#45;&gt;Node214</title>
<path fill="none" stroke="#191970" d="M2046.8095,-233.2254C2255.041,-229.6875 3091.1796,-214.1052 3352.5,-188 3355.5473,-187.6956 3358.6742,-187.3318 3361.8235,-186.926"/>
<polygon fill="#191970" stroke="#191970" points="2046.7456,-229.7258 2036.8061,-233.3942 2046.8638,-236.7248 2046.7456,-229.7258"/>
</g>
<!-- Node125 -->
<g id="node49" class="node">
<title>Node125</title>
<g id="a_node49"><a xlink:href="_smagorinsky_8_h.html" target="_top" xlink:title="Smagorinsky.H">
<polygon fill="#ffffff" stroke="#ff0000" points="3481,-168.5 3481,-187.5 3570,-187.5 3570,-168.5 3481,-168.5"/>
<text text-anchor="middle" x="3525.5" y="-175.5" font-family="Helvetica,sans-Serif" font-size="10.00" fill="#000000">Smagorinsky.H</text>
</a>
</g>
</g>
<!-- Node5&#45;&gt;Node125 -->
<g id="edge66" class="edge">
<title>Node5&#45;&gt;Node125</title>
<path fill="none" stroke="#191970" d="M2047.0126,-233.5095C2266.8336,-231.0879 3186.5993,-219.2446 3472.5,-188 3475.1994,-187.705 3477.9674,-187.3485 3480.7537,-186.9482"/>
<polygon fill="#191970" stroke="#191970" points="2046.7428,-230.0121 2036.7815,-233.6209 2046.8191,-237.0117 2046.7428,-230.0121"/>
</g>
<!-- Node150 -->
<g id="node50" class="node">
<title>Node150</title>
<g id="a_node50"><a xlink:href="_act_src_op_8_h.html" target="_top" xlink:title="ActSrcOp.H">
<polygon fill="#ffffff" stroke="#ff0000" points="3588,-168.5 3588,-187.5 3659,-187.5 3659,-168.5 3588,-168.5"/>
<text text-anchor="middle" x="3623.5" y="-175.5" font-family="Helvetica,sans-Serif" font-size="10.00" fill="#000000">ActSrcOp.H</text>
</a>
</g>
</g>
<!-- Node5&#45;&gt;Node150 -->
<g id="edge67" class="edge">
<title>Node5&#45;&gt;Node150</title>
<path fill="none" stroke="#191970" d="M2046.7552,-233.8624C2275.7842,-233.0062 3271.8375,-227.063 3579.5,-188 3582.1422,-187.6645 3584.8588,-187.2418 3587.5832,-186.7608"/>
<polygon fill="#191970" stroke="#191970" points="2046.7313,-230.3623 2036.744,-233.8983 2046.7565,-237.3623 2046.7313,-230.3623"/>
</g>
<!-- Node7&#45;&gt;Node6 -->
<g id="edge4" class="edge">
<title>Node7&#45;&gt;Node6</title>
<path fill="none" stroke="#191970" d="M1045.9269,-167.9018C1235.7603,-145.189 1449.4142,-130.6103 1542.3604,-124.8124"/>
<polygon fill="#191970" stroke="#191970" points="1045.2693,-164.4557 1035.7607,-169.1288 1046.1081,-171.4053 1045.2693,-164.4557"/>
</g>
<!-- Node8 -->
<g id="node5" class="node">
<title>Node8</title>
<g id="a_node5"><a xlink:href="_fixed_gradient_b_c_8cpp.html" target="_top" xlink:title="FixedGradientBC.cpp">
<polygon fill="#ffffff" stroke="#000000" points="1109.5,-112.5 1109.5,-131.5 1227.5,-131.5 1227.5,-112.5 1109.5,-112.5"/>
<text text-anchor="middle" x="1168.5" y="-119.5" font-family="Helvetica,sans-Serif" font-size="10.00" fill="#000000">FixedGradientBC.cpp</text>
</a>
</g>
</g>
<!-- Node7&#45;&gt;Node8 -->
<g id="edge5" class="edge">
<title>Node7&#45;&gt;Node8</title>
<path fill="none" stroke="#191970" d="M1023.3877,-165.4561C1057.7143,-155.1765 1105.5565,-140.8494 1136.773,-131.5011"/>
<polygon fill="#191970" stroke="#191970" points="1022.222,-162.1515 1013.6464,-168.3733 1024.2302,-168.8573 1022.222,-162.1515"/>
</g>
<!-- Node9&#45;&gt;Node10 -->
<g id="edge7" class="edge">
<title>Node9&#45;&gt;Node10</title>
<path fill="none" stroke="#191970" d="M538.9709,-168.6877C537.4646,-168.4419 535.9709,-168.2115 534.5,-168 325.8158,-137.9953 269.0314,-169.1497 61.5,-132 58.7629,-131.51 55.9328,-130.8931 53.1224,-130.2073"/>
<polygon fill="#191970" stroke="#191970" points="538.5225,-172.1633 548.9849,-170.4933 539.7647,-165.2743 538.5225,-172.1633"/>
</g>
<!-- Node29 -->
<g id="node8" class="node">
<title>Node29</title>
<g id="a_node8"><a xlink:href="_a_b_l_wall_function_8_h.html" target="_top" xlink:title="ABLWallFunction.H">
<polygon fill="#ffffff" stroke="#ff0000" points="271,-56.5 271,-75.5 378,-75.5 378,-56.5 271,-56.5"/>
<text text-anchor="middle" x="324.5" y="-63.5" font-family="Helvetica,sans-Serif" font-size="10.00" fill="#000000">ABLWallFunction.H</text>
</a>
</g>
</g>
<!-- Node9&#45;&gt;Node29 -->
<g id="edge8" class="edge">
<title>Node9&#45;&gt;Node29</title>
<path fill="none" stroke="#191970" d="M538.9355,-168.8939C537.4392,-168.5897 535.9572,-168.2909 534.5,-168 448.9309,-150.9192 405.2526,-191.5771 341.5,-132 325.766,-117.2965 323.8115,-90.141 323.9961,-75.6703"/>
<polygon fill="#191970" stroke="#191970" points="538.4045,-172.3581 548.9059,-170.9539 539.8209,-165.5029 538.4045,-172.3581"/>
</g>
<!-- Node34 -->
<g id="node9" class="node">
<title>Node34</title>
<g id="a_node9"><a xlink:href="_a_b_l_stats_8_h.html" target="_top" xlink:title="ABLStats.H">
<polygon fill="#ffffff" stroke="#ff0000" points="289,-.5 289,-19.5 360,-19.5 360,-.5 289,-.5"/>
<text text-anchor="middle" x="324.5" y="-7.5" font-family="Helvetica,sans-Serif" font-size="10.00" fill="#000000">ABLStats.H</text>
</a>
</g>
</g>
<!-- Node9&#45;&gt;Node34 -->
<g id="edge16" class="edge">
<title>Node9&#45;&gt;Node34</title>
<path fill="none" stroke="#191970" d="M538.9624,-168.7435C537.4585,-168.4819 535.9676,-168.2329 534.5,-168 459.2432,-156.0549 244.4739,-188.6386 193.5,-132 152.7514,-86.723 251.1889,-39.2622 299.5698,-19.5022"/>
<polygon fill="#191970" stroke="#191970" points="538.4925,-172.2163 548.9661,-170.6178 539.7817,-165.336 538.4925,-172.2163"/>
</g>
<!-- Node37 -->
<g id="node10" class="node">
<title>Node37</title>
<g id="a_node10"><a xlink:href="_field_plane_averaging_8_h.html" target="_top" xlink:title="FieldPlaneAveraging.H">
<polygon fill="#ffffff" stroke="#ff0000" points="351,-112.5 351,-131.5 476,-131.5 476,-112.5 351,-112.5"/>
<text text-anchor="middle" x="413.5" y="-119.5" font-family="Helvetica,sans-Serif" font-size="10.00" fill="#000000">FieldPlaneAveraging.H</text>
</a>
</g>
</g>
<!-- Node9&#45;&gt;Node37 -->
<g id="edge10" class="edge">
<title>Node9&#45;&gt;Node37</title>
<path fill="none" stroke="#191970" d="M543.0714,-165.1905C512.2927,-154.9309 469.8074,-140.7691 442.0034,-131.5011"/>
<polygon fill="#191970" stroke="#191970" points="542.0261,-168.5313 552.6198,-168.3733 544.2398,-161.8905 542.0261,-168.5313"/>
</g>
<!-- Node32 -->
<g id="node12" class="node">
<title>Node32</title>
<g id="a_node12"><a xlink:href="_a_b_l_mean_boussinesq_8cpp.html" target="_top" xlink:title="ABLMeanBoussinesq.cpp">
<polygon fill="#ffffff" stroke="#000000" points="870,-.5 870,-19.5 1007,-19.5 1007,-.5 870,-.5"/>
<text text-anchor="middle" x="938.5" y="-7.5" font-family="Helvetica,sans-Serif" font-size="10.00" fill="#000000">ABLMeanBoussinesq.cpp</text>
</a>
</g>
</g>
<!-- Node9&#45;&gt;Node32 -->
<g id="edge22" class="edge">
<title>Node9&#45;&gt;Node32</title>
<path fill="none" stroke="#191970" d="M564.733,-160.8899C553.1119,-146.9028 541.5327,-127.051 552.5,-112 589.6462,-61.0223 769.0719,-30.9745 869.6986,-17.8626"/>
<polygon fill="#191970" stroke="#191970" points="562.1387,-163.2393 571.4101,-168.3669 567.3598,-158.5768 562.1387,-163.2393"/>
</g>
<!-- Node43 -->
<g id="node13" class="node">
<title>Node43</title>
<g id="a_node13"><a xlink:href="_a_b_l_boundary_plane_8_h.html" target="_top" xlink:title="ABLBoundaryPlane.H">
<polygon fill="#ffffff" stroke="#ff0000" points="571,-112.5 571,-131.5 690,-131.5 690,-112.5 571,-112.5"/>
<text text-anchor="middle" x="630.5" y="-119.5" font-family="Helvetica,sans-Serif" font-size="10.00" fill="#000000">ABLBoundaryPlane.H</text>
</a>
</g>
</g>
<!-- Node9&#45;&gt;Node43 -->
<g id="edge15" class="edge">
<title>Node9&#45;&gt;Node43</title>
<path fill="none" stroke="#191970" d="M596.8122,-160.5004C605.1447,-150.9775 615.1353,-139.5596 622.0627,-131.6427"/>
<polygon fill="#191970" stroke="#191970" points="593.9862,-158.415 590.0351,-168.2455 599.2543,-163.0245 593.9862,-158.415"/>
</g>
<!-- Node47 -->
<g id="node14" class="node">
<title>Node47</title>
<g id="a_node14"><a xlink:href="_c_f_d_sim_8cpp.html" target="_top" xlink:title="CFDSim.cpp">
<polygon fill="#ffffff" stroke="#000000" points="71,-112.5 71,-131.5 146,-131.5 146,-112.5 71,-112.5"/>
<text text-anchor="middle" x="108.5" y="-119.5" font-family="Helvetica,sans-Serif" font-size="10.00" fill="#000000">CFDSim.cpp</text>
</a>
</g>
</g>
<!-- Node9&#45;&gt;Node47 -->
<g id="edge17" class="edge">
<title>Node9&#45;&gt;Node47</title>
<path fill="none" stroke="#191970" d="M538.9652,-168.7259C537.4605,-168.4693 535.9687,-168.2262 534.5,-168 369.4552,-142.583 325.7866,-155.7942 160.5,-132 155.8593,-131.3319 151.0039,-130.5332 146.2034,-129.6823"/>
<polygon fill="#191970" stroke="#191970" points="538.5022,-172.1996 548.9722,-170.5785 539.7765,-165.3165 538.5022,-172.1996"/>
</g>
<!-- Node48 -->
<g id="node15" class="node">
<title>Node48</title>
<g id="a_node15"><a xlink:href="_p_d_e_ops_8_h.html" target="_top" xlink:title="PDEOps.H">
<polygon fill="#ffffff" stroke="#ff0000" points="928,-112.5 928,-131.5 993,-131.5 993,-112.5 928,-112.5"/>
<text text-anchor="middle" x="960.5" y="-119.5" font-family="Helvetica,sans-Serif" font-size="10.00" fill="#000000">PDEOps.H</text>
</a>
</g>
</g>
<!-- Node9&#45;&gt;Node48 -->
<g id="edge18" class="edge">
<title>Node9&#45;&gt;Node48</title>
<path fill="none" stroke="#191970" d="M624.4926,-173.5985C688.9269,-166.6752 814.2248,-151.9462 919.5,-132 922.2355,-131.4817 925.0623,-130.897 927.8929,-130.2769"/>
<polygon fill="#191970" stroke="#191970" points="623.8849,-170.1433 614.3113,-174.6818 624.6255,-177.1041 623.8849,-170.1433"/>
</g>
<!-- Node65 -->
<g id="node16" class="node">
<title>Node65</title>
<g id="a_node16"><a xlink:href="_p_d_e_8_h.html" target="_top" xlink:title="PDE.H">
<polygon fill="#ffffff" stroke="#ff0000" points="735,-56.5 735,-75.5 782,-75.5 782,-56.5 735,-56.5"/>
<text text-anchor="middle" x="758.5" y="-63.5" font-family="Helvetica,sans-Serif" font-size="10.00" fill="#000000">PDE.H</text>
</a>
</g>
</g>
<!-- Node9&#45;&gt;Node65 -->
<g id="edge20" class="edge">
<title>Node9&#45;&gt;Node65</title>
<path fill="none" stroke="#191970" d="M567.8811,-159.9834C558.853,-145.6792 550.5121,-125.8492 561.5,-112 582.9472,-84.9679 687.5373,-72.3322 734.9968,-67.9188"/>
<polygon fill="#191970" stroke="#191970" points="565.1657,-162.2117 573.7169,-168.467 570.933,-158.2444 565.1657,-162.2117"/>
</g>
<!-- Node31 -->
<g id="node17" class="node">
<title>Node31</title>
<g id="a_node17"><a xlink:href="_a_b_l_forcing_8cpp.html" target="_top" xlink:title="ABLForcing.cpp">
<polygon fill="#ffffff" stroke="#000000" points="203,-112.5 203,-131.5 294,-131.5 294,-112.5 203,-112.5"/>
<text text-anchor="middle" x="248.5" y="-119.5" font-family="Helvetica,sans-Serif" font-size="10.00" fill="#000000">ABLForcing.cpp</text>
</a>
</g>
</g>
<!-- Node9&#45;&gt;Node31 -->
<g id="edge21" class="edge">
<title>Node9&#45;&gt;Node31</title>
<path fill="none" stroke="#191970" d="M538.9451,-168.8438C537.4461,-168.5538 535.961,-168.2716 534.5,-168 434.5024,-149.4104 408.8863,-148.3607 308.5,-132 303.8097,-131.2356 298.9144,-130.4309 294.0311,-129.6238"/>
<polygon fill="#191970" stroke="#191970" points="538.435,-172.3111 548.9275,-170.842 539.809,-165.4472 538.435,-172.3111"/>
</g>
<!-- Node9&#45;&gt;Node95 -->
<g id="edge23" class="edge">
<title>Node9&#45;&gt;Node95</title>
<path fill="none" stroke="#191970" d="M624.2872,-174.6416C700.567,-168.3615 864.9547,-153.5024 1002.5,-132 1005.4166,-131.5441 1008.4227,-131.0328 1011.4432,-130.489"/>
<polygon fill="#191970" stroke="#191970" points="623.8029,-171.1693 614.1205,-175.4706 624.3719,-178.1462 623.8029,-171.1693"/>
</g>
<!-- Node9&#45;&gt;Node102 -->
<g id="edge24" class="edge">
<title>Node9&#45;&gt;Node102</title>
<path fill="none" stroke="#191970" d="M622.2459,-165.3235C655.2563,-155.0536 701.0417,-140.8093 730.9607,-131.5011"/>
<polygon fill="#191970" stroke="#191970" points="620.9519,-162.0605 612.4431,-168.3733 623.0314,-168.7445 620.9519,-162.0605"/>
</g>
<!-- Node9&#45;&gt;Node152 -->
<g id="edge25" class="edge">
<title>Node9&#45;&gt;Node152</title>
<path fill="none" stroke="#191970" d="M624.0078,-170.2534C672.5586,-161.3358 754.3506,-146.1005 824.5,-132 827.199,-131.4575 829.9832,-130.8887 832.7857,-130.3093"/>
<polygon fill="#191970" stroke="#191970" points="623.373,-166.8113 614.1683,-172.0577 624.6356,-173.6965 623.373,-166.8113"/>
</g>
<!-- Node29&#45;&gt;Node34 -->
<g id="edge9" class="edge">
<title>Node29&#45;&gt;Node34</title>
<path fill="none" stroke="#191970" d="M324.5,-46.1575C324.5,-37.155 324.5,-26.9199 324.5,-19.6427"/>
<polygon fill="#191970" stroke="#191970" points="321.0001,-46.2455 324.5,-56.2455 328.0001,-46.2456 321.0001,-46.2455"/>
</g>
<!-- Node37&#45;&gt;Node29 -->
<g id="edge11" class="edge">
<title>Node37&#45;&gt;Node29</title>
<path fill="none" stroke="#191970" d="M389.2936,-106.769C373.5225,-96.8456 353.424,-84.1994 339.825,-75.6427"/>
<polygon fill="#191970" stroke="#191970" points="387.6695,-109.8823 397.9974,-112.2455 391.3974,-103.9575 387.6695,-109.8823"/>
</g>
<!-- Node37&#45;&gt;Node34 -->
<g id="edge12" class="edge">
<title>Node37&#45;&gt;Node34</title>
<path fill="none" stroke="#191970" d="M408.4829,-102.1933C404.256,-88.263 397.1665,-69.7323 386.5,-56 374.4962,-40.546 356.0183,-27.7574 342.3552,-19.6205"/>
<polygon fill="#191970" stroke="#191970" points="405.2155,-103.5067 411.2726,-112.1993 411.9583,-101.6267 405.2155,-103.5067"/>
</g>
<!-- Node37&#45;&gt;Node42 -->
<g id="edge13" class="edge">
<title>Node37&#45;&gt;Node42</title>
<path fill="none" stroke="#191970" d="M486.2263,-116.928C510.1945,-115.2986 536.9853,-113.5225 561.5,-112 839.8303,-94.7137 1171.9984,-76.721 1309.2754,-69.4004"/>
<polygon fill="#191970" stroke="#191970" points="485.8803,-113.4433 476.1418,-117.6161 486.3569,-120.4271 485.8803,-113.4433"/>
</g>
<!-- Node42&#45;&gt;Node32 -->
<g id="edge14" class="edge">
<title>Node42&#45;&gt;Node32</title>
<path fill="none" stroke="#191970" d="M1299.3365,-56.4525C1217.5024,-45.9176 1086.8697,-29.1005 1007.262,-18.8521"/>
<polygon fill="#191970" stroke="#191970" points="1298.9492,-59.9315 1309.3143,-57.737 1299.843,-52.9887 1298.9492,-59.9315"/>
</g>
<!-- Node48&#45;&gt;Node65 -->
<g id="edge19" class="edge">
<title>Node48&#45;&gt;Node65</title>
<path fill="none" stroke="#191970" d="M917.8145,-110.1664C876.5343,-98.7224 815.4852,-81.7979 782.2217,-72.5763"/>
<polygon fill="#191970" stroke="#191970" points="917.024,-113.5792 927.5956,-112.878 918.8941,-106.8336 917.024,-113.5792"/>
</g>
<!-- Node179&#45;&gt;Node48 -->
<g id="edge38" class="edge">
<title>Node179&#45;&gt;Node48</title>
<path fill="none" stroke="#191970" d="M861.3534,-164.3833C885.1785,-154.1985 917.1568,-140.5284 938.2742,-131.5011"/>
<polygon fill="#191970" stroke="#191970" points="859.839,-161.2242 852.0197,-168.3733 862.5906,-167.6608 859.839,-161.2242"/>
</g>
<!-- Node179&#45;&gt;Node95 -->
<g id="edge39" class="edge">
<title>Node179&#45;&gt;Node95</title>
<path fill="none" stroke="#191970" d="M877.1428,-165.982C917.9903,-155.6781 976.0475,-141.0331 1013.7454,-131.5237"/>
<polygon fill="#191970" stroke="#191970" points="876.2511,-162.5972 867.4109,-168.4369 877.9633,-169.3846 876.2511,-162.5972"/>
</g>
<!-- Node181&#45;&gt;Node42 -->
<g id="edge42" class="edge">
<title>Node181&#45;&gt;Node42</title>
<path fill="none" stroke="#191970" d="M2237.3382,-158.4557C2235.3,-143.1863 2229.8565,-122.8016 2215.5,-112 2184.5538,-88.7166 1629.3766,-72.4932 1437.8377,-67.5685"/>
<polygon fill="#191970" stroke="#191970" points="2233.8589,-158.8405 2238.2991,-168.46 2240.8268,-158.1711 2233.8589,-158.8405"/>
</g>
<!-- Node181&#45;&gt;Node185 -->
<g id="edge43" class="edge">
<title>Node181&#45;&gt;Node185</title>
<path fill="none" stroke="#191970" d="M2191.8234,-165.7856C2152.4586,-155.4845 2096.9149,-140.9497 2060.8079,-131.5011"/>
<polygon fill="#191970" stroke="#191970" points="2191.1518,-169.2276 2201.7121,-168.3733 2192.9239,-162.4556 2191.1518,-169.2276"/>
</g>
<!-- Node181&#45;&gt;Node186 -->
<g id="edge44" class="edge">
<title>Node181&#45;&gt;Node186</title>
<path fill="none" stroke="#191970" d="M2215.789,-162.49C2201.3212,-152.6096 2183.032,-140.1194 2170.6196,-131.6427"/>
<polygon fill="#191970" stroke="#191970" points="2213.9848,-165.4962 2224.2167,-168.2455 2217.9325,-159.7156 2213.9848,-165.4962"/>
</g>
<!-- Node181&#45;&gt;Node187 -->
<g id="edge45" class="edge">
<title>Node181&#45;&gt;Node187</title>
<path fill="none" stroke="#191970" d="M2260.6571,-162.49C2274.772,-152.6096 2292.6151,-140.1194 2304.7248,-131.6427"/>
<polygon fill="#191970" stroke="#191970" points="2258.6201,-159.6436 2252.4349,-168.2455 2262.6344,-165.3782 2258.6201,-159.6436"/>
</g>
<!-- Node181&#45;&gt;Node189 -->
<g id="edge46" class="edge">
<title>Node181&#45;&gt;Node189</title>
<path fill="none" stroke="#191970" d="M2283.4927,-165.5882C2320.7891,-155.2996 2373.0256,-140.8895 2407.0584,-131.5011"/>
<polygon fill="#191970" stroke="#191970" points="2282.1061,-162.3399 2273.3969,-168.3733 2283.9676,-169.0879 2282.1061,-162.3399"/>
</g>
<!-- Node181&#45;&gt;Node191 -->
<g id="edge47" class="edge">
<title>Node181&#45;&gt;Node191</title>
<path fill="none" stroke="#191970" d="M2306.8676,-173.1157C2330.5053,-171.4544 2357.1645,-169.6114 2381.5,-168 2644.9789,-150.554 2961.6405,-131.3609 3074.7672,-124.5599"/>
<polygon fill="#191970" stroke="#191970" points="2306.3188,-169.6456 2296.5896,-173.8399 2306.8109,-176.6283 2306.3188,-169.6456"/>
</g>
</g>
</svg>
