<?xml version="1.0" encoding="UTF-8" standalone="no"?>
<!DOCTYPE svg PUBLIC "-//W3C//DTD SVG 1.1//EN"
 "http://www.w3.org/Graphics/SVG/1.1/DTD/svg11.dtd">
<!-- Generated by graphviz version 2.40.1 (20161225.0304)
 -->
<!-- Title: PostProcessing.H Pages: 1 -->
<svg width="1247pt" height="207pt"
 viewBox="0.00 0.00 1247.00 207.00" xmlns="http://www.w3.org/2000/svg" xmlns:xlink="http://www.w3.org/1999/xlink">
<g id="graph0" class="graph" transform="scale(1 1) rotate(0) translate(4 203)">
<title>PostProcessing.H</title>
<polygon fill="#ffffff" stroke="transparent" points="-4,4 -4,-203 1243,-203 1243,4 -4,4"/>
<!-- Node7 -->
<g id="node1" class="node">
<title>Node7</title>
<polygon fill="#bfbfbf" stroke="#000000" points="802,-179.5 802,-198.5 903,-198.5 903,-179.5 802,-179.5"/>
<text text-anchor="middle" x="852.5" y="-186.5" font-family="Helvetica,sans-Serif" font-size="10.00" fill="#000000">PostProcessing.H</text>
</g>
<!-- Node8 -->
<g id="node2" class="node">
<title>Node8</title>
<g id="a_node2"><a xlink:href="_a_b_l_stats_8_h.html" target="_top" xlink:title="ABLStats.H">
<polygon fill="#ffffff" stroke="#000000" points="547,-123.5 547,-142.5 618,-142.5 618,-123.5 547,-123.5"/>
<text text-anchor="middle" x="582.5" y="-130.5" font-family="Helvetica,sans-Serif" font-size="10.00" fill="#000000">ABLStats.H</text>
</a>
</g>
</g>
<!-- Node7&#45;&gt;Node8 -->
<g id="edge1" class="edge">
<title>Node7&#45;&gt;Node8</title>
<path fill="none" stroke="#191970" d="M796.3571,-177.3555C742.7253,-166.2319 663.5256,-149.8053 618.0722,-140.3779"/>
<polygon fill="#191970" stroke="#191970" points="795.8897,-180.833 806.3921,-179.4369 797.3113,-173.9789 795.8897,-180.833"/>
</g>
<!-- Node13 -->
<g id="node7" class="node">
<title>Node13</title>
<g id="a_node7"><a xlink:href="incflo_8cpp.html" target="_top" xlink:title="incflo.cpp">
<polygon fill="#ffffff" stroke="#000000" points="669,-6 669,-25 732,-25 732,-6 669,-6"/>
<text text-anchor="middle" x="700.5" y="-13" font-family="Helvetica,sans-Serif" font-size="10.00" fill="#000000">incflo.cpp</text>
</a>
</g>
</g>
<!-- Node7&#45;&gt;Node13 -->
<g id="edge12" class="edge">
<title>Node7&#45;&gt;Node13</title>
<path fill="none" stroke="#191970" d="M792.0757,-179.0988C752.7136,-171.2756 706.5138,-159.0103 694.5,-143 667.5005,-107.0189 687.0933,-47.9296 696.3632,-25.0052"/>
<polygon fill="#191970" stroke="#191970" points="791.4294,-182.5386 801.9107,-180.9917 792.7524,-175.6648 791.4294,-182.5386"/>
</g>
<!-- Node18 -->
<g id="node12" class="node">
<title>Node18</title>
<g id="a_node12"><a xlink:href="_c_f_d_sim_8cpp.html" target="_top" xlink:title="CFDSim.cpp">
<polygon fill="#ffffff" stroke="#000000" points="704,-123.5 704,-142.5 779,-142.5 779,-123.5 704,-123.5"/>
<text text-anchor="middle" x="741.5" y="-130.5" font-family="Helvetica,sans-Serif" font-size="10.00" fill="#000000">CFDSim.cpp</text>
</a>
</g>
</g>
<!-- Node7&#45;&gt;Node18 -->
<g id="edge11" class="edge">
<title>Node7&#45;&gt;Node18</title>
<path fill="none" stroke="#191970" d="M824.4266,-174.8368C804.3615,-164.7139 777.9078,-151.3679 760.3326,-142.5011"/>
<polygon fill="#191970" stroke="#191970" points="822.9138,-177.9938 833.4184,-179.3733 826.0668,-171.7441 822.9138,-177.9938"/>
</g>
<!-- Node19 -->
<g id="node13" class="node">
<title>Node19</title>
<g id="a_node13"><a xlink:href="incflo__advance_8cpp.html" target="_top" xlink:title="incflo_advance.cpp">
<polygon fill="#ffffff" stroke="#000000" points="797.5,-123.5 797.5,-142.5 907.5,-142.5 907.5,-123.5 797.5,-123.5"/>
<text text-anchor="middle" x="852.5" y="-130.5" font-family="Helvetica,sans-Serif" font-size="10.00" fill="#000000">incflo_advance.cpp</text>
</a>
</g>
</g>
<!-- Node7&#45;&gt;Node19 -->
<g id="edge13" class="edge">
<title>Node7&#45;&gt;Node19</title>
<path fill="none" stroke="#191970" d="M852.5,-169.1575C852.5,-160.155 852.5,-149.9199 852.5,-142.6427"/>
<polygon fill="#191970" stroke="#191970" points="849.0001,-169.2455 852.5,-179.2455 856.0001,-169.2456 849.0001,-169.2455"/>
</g>
<!-- Node20 -->
<g id="node14" class="node">
<title>Node20</title>
<g id="a_node14"><a xlink:href="_post_processing_8cpp.html" target="_top" xlink:title="PostProcessing.cpp">
<polygon fill="#ffffff" stroke="#000000" points="925.5,-123.5 925.5,-142.5 1035.5,-142.5 1035.5,-123.5 925.5,-123.5"/>
<text text-anchor="middle" x="980.5" y="-130.5" font-family="Helvetica,sans-Serif" font-size="10.00" fill="#000000">PostProcessing.cpp</text>
</a>
</g>
</g>
<!-- Node7&#45;&gt;Node20 -->
<g id="edge14" class="edge">
<title>Node7&#45;&gt;Node20</title>
<path fill="none" stroke="#191970" d="M883.9348,-175.2473C907.1809,-165.0771 938.2411,-151.4883 958.7831,-142.5011"/>
<polygon fill="#191970" stroke="#191970" points="882.2627,-172.1585 874.504,-179.3733 885.0685,-178.5716 882.2627,-172.1585"/>
</g>
<!-- Node21 -->
<g id="node15" class="node">
<title>Node21</title>
<g id="a_node15"><a xlink:href="_field_norms_8_h.html" target="_top" xlink:title="FieldNorms.H">
<polygon fill="#ffffff" stroke="#000000" points="1053.5,-123.5 1053.5,-142.5 1135.5,-142.5 1135.5,-123.5 1053.5,-123.5"/>
<text text-anchor="middle" x="1094.5" y="-130.5" font-family="Helvetica,sans-Serif" font-size="10.00" fill="#000000">FieldNorms.H</text>
</a>
</g>
</g>
<!-- Node7&#45;&gt;Node21 -->
<g id="edge15" class="edge">
<title>Node7&#45;&gt;Node21</title>
<path fill="none" stroke="#191970" d="M903.59,-177.1775C948.1587,-166.8641 1011.9893,-152.0934 1053.3441,-142.5237"/>
<polygon fill="#191970" stroke="#191970" points="902.7798,-173.7724 893.8263,-179.4369 904.358,-180.5922 902.7798,-173.7724"/>
</g>
<!-- Node23 -->
<g id="node17" class="node">
<title>Node23</title>
<g id="a_node17"><a xlink:href="_sampling_8_h.html" target="_top" xlink:title="Sampling.H">
<polygon fill="#ffffff" stroke="#000000" points="1159,-123.5 1159,-142.5 1232,-142.5 1232,-123.5 1159,-123.5"/>
<text text-anchor="middle" x="1195.5" y="-130.5" font-family="Helvetica,sans-Serif" font-size="10.00" fill="#000000">Sampling.H</text>
</a>
</g>
</g>
<!-- Node7&#45;&gt;Node23 -->
<g id="edge17" class="edge">
<title>Node7&#45;&gt;Node23</title>
<path fill="none" stroke="#191970" d="M913.1571,-180.12C972.2935,-171.3033 1064.7196,-157.1006 1144.5,-143 1149.1202,-142.1834 1153.9677,-141.286 1158.7596,-140.3742"/>
<polygon fill="#191970" stroke="#191970" points="912.6133,-176.6623 903.2368,-181.595 913.6429,-183.5861 912.6133,-176.6623"/>
</g>
<!-- Node9 -->
<g id="node3" class="node">
<title>Node9</title>
<g id="a_node3"><a xlink:href="_a_b_l_8_h.html" target="_top" xlink:title="ABL.H">
<polygon fill="#ffffff" stroke="#000000" points="428.5,-67.5 428.5,-86.5 474.5,-86.5 474.5,-67.5 428.5,-67.5"/>
<text text-anchor="middle" x="451.5" y="-74.5" font-family="Helvetica,sans-Serif" font-size="10.00" fill="#000000">ABL.H</text>
</a>
</g>
</g>
<!-- Node8&#45;&gt;Node9 -->
<g id="edge2" class="edge">
<title>Node8&#45;&gt;Node9</title>
<path fill="none" stroke="#191970" d="M550.6466,-119.3833C526.8215,-109.1985 494.8432,-95.5284 473.7258,-86.5011"/>
<polygon fill="#191970" stroke="#191970" points="549.4094,-122.6608 559.9803,-123.3733 552.161,-116.2242 549.4094,-122.6608"/>
</g>
<!-- Node17 -->
<g id="node11" class="node">
<title>Node17</title>
<g id="a_node11"><a xlink:href="_a_b_l_stats_8cpp.html" target="_top" xlink:title="ABLStats.cpp">
<polygon fill="#ffffff" stroke="#000000" points="542.5,-67.5 542.5,-86.5 622.5,-86.5 622.5,-67.5 542.5,-67.5"/>
<text text-anchor="middle" x="582.5" y="-74.5" font-family="Helvetica,sans-Serif" font-size="10.00" fill="#000000">ABLStats.cpp</text>
</a>
</g>
</g>
<!-- Node8&#45;&gt;Node17 -->
<g id="edge10" class="edge">
<title>Node8&#45;&gt;Node17</title>
<path fill="none" stroke="#191970" d="M582.5,-113.1575C582.5,-104.155 582.5,-93.9199 582.5,-86.6427"/>
<polygon fill="#191970" stroke="#191970" points="579.0001,-113.2455 582.5,-123.2455 586.0001,-113.2456 579.0001,-113.2455"/>
</g>
<!-- Node10 -->
<g id="node4" class="node">
<title>Node10</title>
<g id="a_node4"><a xlink:href="incflo__set__velocity__bcs_8cpp.html" target="_top" xlink:title="incflo_set_velocity\l_bcs.cpp">
<polygon fill="#ffffff" stroke="#000000" points="0,-.5 0,-30.5 107,-30.5 107,-.5 0,-.5"/>
<text text-anchor="start" x="8" y="-18.5" font-family="Helvetica,sans-Serif" font-size="10.00" fill="#000000">incflo_set_velocity</text>
<text text-anchor="middle" x="53.5" y="-7.5" font-family="Helvetica,sans-Serif" font-size="10.00" fill="#000000">_bcs.cpp</text>
</a>
</g>
</g>
<!-- Node9&#45;&gt;Node10 -->
<g id="edge3" class="edge">
<title>Node9&#45;&gt;Node10</title>
<path fill="none" stroke="#191970" d="M418.0026,-73.6369C357.3415,-67.2756 225.3933,-52.1938 115.5,-31 112.7764,-30.4747 109.9935,-29.9042 107.1888,-29.3024"/>
<polygon fill="#191970" stroke="#191970" points="417.8303,-77.1377 428.138,-74.6879 418.5523,-70.1751 417.8303,-77.1377"/>
</g>
<!-- Node11 -->
<g id="node5" class="node">
<title>Node11</title>
<g id="a_node5"><a xlink:href="_a_b_l_forcing_8cpp.html" target="_top" xlink:title="ABLForcing.cpp">
<polygon fill="#ffffff" stroke="#000000" points="125,-6 125,-25 216,-25 216,-6 125,-6"/>
<text text-anchor="middle" x="170.5" y="-13" font-family="Helvetica,sans-Serif" font-size="10.00" fill="#000000">ABLForcing.cpp</text>
</a>
</g>
</g>
<!-- Node9&#45;&gt;Node11 -->
<g id="edge4" class="edge">
<title>Node9&#45;&gt;Node11</title>
<path fill="none" stroke="#191970" d="M418.5651,-71.1768C374.2372,-63.1455 293.0266,-47.7499 224.5,-31 217.2045,-29.2168 209.4124,-27.104 202.0824,-25.0212"/>
<polygon fill="#191970" stroke="#191970" points="418.0276,-74.6362 428.4896,-72.9632 419.2678,-67.7469 418.0276,-74.6362"/>
</g>
<!-- Node12 -->
<g id="node6" class="node">
<title>Node12</title>
<g id="a_node6"><a xlink:href="_a_b_l_mean_boussinesq_8cpp.html" target="_top" xlink:title="ABLMeanBoussinesq.cpp">
<polygon fill="#ffffff" stroke="#000000" points="234,-6 234,-25 371,-25 371,-6 234,-6"/>
<text text-anchor="middle" x="302.5" y="-13" font-family="Helvetica,sans-Serif" font-size="10.00" fill="#000000">ABLMeanBoussinesq.cpp</text>
</a>
</g>
</g>
<!-- Node9&#45;&gt;Node12 -->
<g id="edge5" class="edge">
<title>Node9&#45;&gt;Node12</title>
<path fill="none" stroke="#191970" d="M418.7819,-63.4955C390.5868,-51.858 350.5922,-35.3501 325.6178,-25.0419"/>
<polygon fill="#191970" stroke="#191970" points="417.6398,-66.8105 428.2188,-67.3906 420.3106,-60.34 417.6398,-66.8105"/>
</g>
<!-- Node9&#45;&gt;Node13 -->
<g id="edge6" class="edge">
<title>Node9&#45;&gt;Node13</title>
<path fill="none" stroke="#191970" d="M484.6096,-71.2011C525.9664,-63.6107 598.6901,-49.1164 659.5,-31 665.1885,-29.3053 671.2168,-27.2044 676.8497,-25.1021"/>
<polygon fill="#191970" stroke="#191970" points="483.7665,-67.7968 474.551,-73.0242 485.0149,-74.6846 483.7665,-67.7968"/>
</g>
<!-- Node14 -->
<g id="node8" class="node">
<title>Node14</title>
<g id="a_node8"><a xlink:href="init_8cpp.html" target="_top" xlink:title="init.cpp">
<polygon fill="#ffffff" stroke="#000000" points="389,-6 389,-25 442,-25 442,-6 389,-6"/>
<text text-anchor="middle" x="415.5" y="-13" font-family="Helvetica,sans-Serif" font-size="10.00" fill="#000000">init.cpp</text>
</a>
</g>
</g>
<!-- Node9&#45;&gt;Node14 -->
<g id="edge7" class="edge">
<title>Node9&#45;&gt;Node14</title>
<path fill="none" stroke="#191970" d="M440.7209,-58.5857C434.309,-47.632 426.4316,-34.1748 421.2043,-25.2449"/>
<polygon fill="#191970" stroke="#191970" points="437.8026,-60.5286 445.875,-67.3906 443.8437,-56.9923 437.8026,-60.5286"/>
</g>
<!-- Node15 -->
<g id="node9" class="node">
<title>Node15</title>
<g id="a_node9"><a xlink:href="_a_b_l_8cpp.html" target="_top" xlink:title="ABL.cpp">
<polygon fill="#ffffff" stroke="#000000" points="460.5,-6 460.5,-25 516.5,-25 516.5,-6 460.5,-6"/>
<text text-anchor="middle" x="488.5" y="-13" font-family="Helvetica,sans-Serif" font-size="10.00" fill="#000000">ABL.cpp</text>
</a>
</g>
</g>
<!-- Node9&#45;&gt;Node15 -->
<g id="edge8" class="edge">
<title>Node9&#45;&gt;Node15</title>
<path fill="none" stroke="#191970" d="M462.5785,-58.5857C469.1686,-47.632 477.2647,-34.1748 482.6372,-25.2449"/>
<polygon fill="#191970" stroke="#191970" points="459.4374,-57.0175 457.2813,-67.3906 465.4356,-60.6262 459.4374,-57.0175"/>
</g>
<!-- Node16 -->
<g id="node10" class="node">
<title>Node16</title>
<g id="a_node10"><a xlink:href="_a_b_l_wall_function_8cpp.html" target="_top" xlink:title="ABLWallFunction.cpp">
<polygon fill="#ffffff" stroke="#000000" points="534.5,-6 534.5,-25 650.5,-25 650.5,-6 534.5,-6"/>
<text text-anchor="middle" x="592.5" y="-13" font-family="Helvetica,sans-Serif" font-size="10.00" fill="#000000">ABLWallFunction.cpp</text>
</a>
</g>
</g>
<!-- Node9&#45;&gt;Node16 -->
<g id="edge9" class="edge">
<title>Node9&#45;&gt;Node16</title>
<path fill="none" stroke="#191970" d="M482.8116,-63.3428C509.4729,-51.7139 547.0931,-35.3051 570.6235,-25.0419"/>
<polygon fill="#191970" stroke="#191970" points="481.298,-60.1845 473.5313,-67.3906 484.0966,-66.6007 481.298,-60.1845"/>
</g>
<!-- Node22 -->
<g id="node16" class="node">
<title>Node22</title>
<g id="a_node16"><a xlink:href="_field_norms_8cpp.html" target="_top" xlink:title="FieldNorms.cpp">
<polygon fill="#ffffff" stroke="#000000" points="1045.5,-67.5 1045.5,-86.5 1137.5,-86.5 1137.5,-67.5 1045.5,-67.5"/>
<text text-anchor="middle" x="1091.5" y="-74.5" font-family="Helvetica,sans-Serif" font-size="10.00" fill="#000000">FieldNorms.cpp</text>
</a>
</g>
</g>
<!-- Node21&#45;&gt;Node22 -->
<g id="edge16" class="edge">
<title>Node21&#45;&gt;Node22</title>
<path fill="none" stroke="#191970" d="M1093.437,-113.1575C1092.9547,-104.155 1092.4064,-93.9199 1092.0166,-86.6427"/>
<polygon fill="#191970" stroke="#191970" points="1089.9474,-113.4471 1093.9774,-123.2455 1096.9374,-113.0726 1089.9474,-113.4471"/>
</g>
<!-- Node24 -->
<g id="node18" class="node">
<title>Node24</title>
<g id="a_node18"><a xlink:href="_sampling_8cpp.html" target="_top" xlink:title="Sampling.cpp">
<polygon fill="#ffffff" stroke="#000000" points="1156,-67.5 1156,-86.5 1239,-86.5 1239,-67.5 1156,-67.5"/>
<text text-anchor="middle" x="1197.5" y="-74.5" font-family="Helvetica,sans-Serif" font-size="10.00" fill="#000000">Sampling.cpp</text>
</a>
</g>
</g>
<!-- Node23&#45;&gt;Node24 -->
<g id="edge18" class="edge">
<title>Node23&#45;&gt;Node24</title>
<path fill="none" stroke="#191970" d="M1196.2087,-113.1575C1196.5302,-104.155 1196.8957,-93.9199 1197.1556,-86.6427"/>
<polygon fill="#191970" stroke="#191970" points="1192.7076,-113.127 1195.8484,-123.2455 1199.7032,-113.3769 1192.7076,-113.127"/>
</g>
</g>
</svg>
