<?xml version="1.0" encoding="UTF-8" standalone="no"?>
<!DOCTYPE svg PUBLIC "-//W3C//DTD SVG 1.1//EN"
 "http://www.w3.org/Graphics/SVG/1.1/DTD/svg11.dtd">
<!-- Generated by graphviz version 2.40.1 (20161225.0304)
 -->
<!-- Title: PostProcessing.cpp Pages: 1 -->
<!--zoomable 330 -->
<svg id="main" version="1.1" xmlns="http://www.w3.org/2000/svg" xmlns:xlink="http://www.w3.org/1999/xlink" xml:space="preserve" onload="init(evt)">
<style type="text/css"><![CDATA[
.edge:hover path { stroke: red; }
.edge:hover polygon { stroke: red; fill: red; }
]]></style>
<script type="text/javascript"><![CDATA[
var edges = document.getElementsByTagName('g');
if (edges && edges.length) {
  for (var i=0;i<edges.length;i++) {
    if (edges[i].id.substr(0,4)=='edge') {
      edges[i].setAttribute('class','edge');
    }
  }
}
]]></script>
        <defs>
                <circle id="rim" cx="0" cy="0" r="7"/>
                <circle id="rim2" cx="0" cy="0" r="3.5"/>
                <g id="zoomPlus">
                        <use xlink:href="#rim" fill="#404040">
                                <set attributeName="fill" to="#808080" begin="zoomplus.mouseover" end="zoomplus.mouseout"/>
                        </use>
                        <path d="M-4,0h8M0,-4v8" fill="none" stroke="white" stroke-width="1.5" pointer-events="none"/>
                </g>
                <g id="zoomMin">
                        <use xlink:href="#rim" fill="#404040">
                                <set attributeName="fill" to="#808080" begin="zoomminus.mouseover" end="zoomminus.mouseout"/>
                        </use>
                        <path d="M-4,0h8" fill="none" stroke="white" stroke-width="1.5" pointer-events="none"/>
                </g>
                <g id="dirArrow">
                        <path fill="none" stroke="white" stroke-width="1.5" d="M0,-3.0v7 M-2.5,-0.5L0,-3.0L2.5,-0.5"/>
                </g>
               <g id="resetDef">
                       <use xlink:href="#rim2" fill="#404040">
                               <set attributeName="fill" to="#808080" begin="reset.mouseover" end="reset.mouseout"/>
                       </use>
               </g>
        </defs>

<script type="text/javascript">
var viewWidth = 2309;
var viewHeight = 330;
var sectionId = 'dynsection-0';
</script>
<script xlink:href="svgpan.js"/>
<svg id="graph" class="graph">
<g id="viewport">
<title>PostProcessing.cpp</title>
<polygon fill="#ffffff" stroke="transparent" points="-4,4 -4,-326 2305,-326 2305,4 -4,4"/>
<!-- Node0 -->
<g id="node1" class="node">
<title>Node0</title>
<polygon fill="#bfbfbf" stroke="#000000" points="751.5,-302.5 751.5,-321.5 861.5,-321.5 861.5,-302.5 751.5,-302.5"/>
<text text-anchor="middle" x="806.5" y="-309.5" font-family="Helvetica,sans-Serif" font-size="10.00" fill="#000000">PostProcessing.cpp</text>
</g>
<!-- Node1 -->
<g id="node2" class="node">
<title>Node1</title>
<g id="a_node2"><a xlink:href="_post_processing_8_h.html" target="_top" xlink:title="amr&#45;wind/utilities\l/PostProcessing.H">
<polygon fill="#ffffff" stroke="#000000" points="255.5,-179.5 255.5,-209.5 359.5,-209.5 359.5,-179.5 255.5,-179.5"/>
<text text-anchor="start" x="263.5" y="-197.5" font-family="Helvetica,sans-Serif" font-size="10.00" fill="#000000">amr&#45;wind/utilities</text>
<text text-anchor="middle" x="307.5" y="-186.5" font-family="Helvetica,sans-Serif" font-size="10.00" fill="#000000">/PostProcessing.H</text>
</a>
</g>
</g>
<!-- Node0&#45;&gt;Node1 -->
<g id="edge1" class="edge">
<title>Node0&#45;&gt;Node1</title>
<path fill="none" stroke="#191970" d="M766.0874,-302.484C679.0767,-281.9955 473.5058,-233.5895 369.7317,-209.1538"/>
<polygon fill="#191970" stroke="#191970" points="370.2475,-205.6796 359.7115,-206.7943 368.6431,-212.4932 370.2475,-205.6796"/>
</g>
<!-- Node8 -->
<g id="node9" class="node">
<title>Node8</title>
<g id="a_node9"><a xlink:href="_c_f_d_sim_8_h.html" target="_top" xlink:title="amr&#45;wind/CFDSim.H">
<polygon fill="#ffffff" stroke="#000000" points="749.5,-246.5 749.5,-265.5 863.5,-265.5 863.5,-246.5 749.5,-246.5"/>
<text text-anchor="middle" x="806.5" y="-253.5" font-family="Helvetica,sans-Serif" font-size="10.00" fill="#000000">amr&#45;wind/CFDSim.H</text>
</a>
</g>
</g>
<!-- Node0&#45;&gt;Node8 -->
<g id="edge9" class="edge">
<title>Node0&#45;&gt;Node8</title>
<path fill="none" stroke="#191970" d="M806.5,-302.2455C806.5,-294.9382 806.5,-284.6944 806.5,-275.7046"/>
<polygon fill="#191970" stroke="#191970" points="810.0001,-275.6426 806.5,-265.6427 803.0001,-275.6427 810.0001,-275.6426"/>
</g>
<!-- Node37 -->
<g id="node38" class="node">
<title>Node37</title>
<polygon fill="#ffffff" stroke="#bfbfbf" points="882,-246.5 882,-265.5 999,-265.5 999,-246.5 882,-246.5"/>
<text text-anchor="middle" x="940.5" y="-253.5" font-family="Helvetica,sans-Serif" font-size="10.00" fill="#000000">AMReX_ParmParse.H</text>
</g>
<!-- Node0&#45;&gt;Node37 -->
<g id="edge69" class="edge">
<title>Node0&#45;&gt;Node37</title>
<path fill="none" stroke="#191970" d="M829.5354,-302.3733C851.2388,-293.3032 883.9618,-279.6279 908.255,-269.4755"/>
<polygon fill="#191970" stroke="#191970" points="909.8881,-272.5865 917.7652,-265.5011 907.1889,-266.1278 909.8881,-272.5865"/>
</g>
<!-- Node2 -->
<g id="node3" class="node">
<title>Node2</title>
<polygon fill="#ffffff" stroke="#bfbfbf" points="355.5,-56.5 355.5,-75.5 413.5,-75.5 413.5,-56.5 355.5,-56.5"/>
<text text-anchor="middle" x="384.5" y="-63.5" font-family="Helvetica,sans-Serif" font-size="10.00" fill="#000000">memory</text>
</g>
<!-- Node1&#45;&gt;Node2 -->
<g id="edge2" class="edge">
<title>Node1&#45;&gt;Node2</title>
<path fill="none" stroke="#191970" d="M271.1483,-179.3589C256.0152,-171.0205 240.013,-159.0521 231.5,-143 225.0448,-130.828 223.2789,-123.0563 231.5,-112 235.0123,-107.2764 301.1576,-88.5866 345.3166,-76.5324"/>
<polygon fill="#191970" stroke="#191970" points="346.4645,-79.8475 355.1957,-73.8461 344.6277,-73.0927 346.4645,-79.8475"/>
</g>
<!-- Node3 -->
<g id="node4" class="node">
<title>Node3</title>
<g id="a_node4"><a xlink:href="_factory_8_h.html" target="_top" xlink:title="amr&#45;wind/core/Factory.H">
<polygon fill="#ffffff" stroke="#000000" points="240.5,-118 240.5,-137 374.5,-137 374.5,-118 240.5,-118"/>
<text text-anchor="middle" x="307.5" y="-125" font-family="Helvetica,sans-Serif" font-size="10.00" fill="#000000">amr&#45;wind/core/Factory.H</text>
</a>
</g>
</g>
<!-- Node1&#45;&gt;Node3 -->
<g id="edge3" class="edge">
<title>Node1&#45;&gt;Node3</title>
<path fill="none" stroke="#191970" d="M307.5,-179.2967C307.5,-169.7699 307.5,-157.3954 307.5,-147.1306"/>
<polygon fill="#191970" stroke="#191970" points="311.0001,-147.0549 307.5,-137.055 304.0001,-147.055 311.0001,-147.0549"/>
</g>
<!-- Node3&#45;&gt;Node2 -->
<g id="edge4" class="edge">
<title>Node3&#45;&gt;Node2</title>
<path fill="none" stroke="#191970" d="M319.5313,-117.8906C331.5107,-108.3227 350.1166,-93.4621 364.3525,-82.0919"/>
<polygon fill="#191970" stroke="#191970" points="366.9239,-84.5175 372.5532,-75.5419 362.5553,-79.0479 366.9239,-84.5175"/>
</g>
<!-- Node4 -->
<g id="node5" class="node">
<title>Node4</title>
<polygon fill="#ffffff" stroke="#bfbfbf" points="690,-56.5 690,-75.5 783,-75.5 783,-56.5 690,-56.5"/>
<text text-anchor="middle" x="736.5" y="-63.5" font-family="Helvetica,sans-Serif" font-size="10.00" fill="#000000">unordered_map</text>
</g>
<!-- Node3&#45;&gt;Node4 -->
<g id="edge5" class="edge">
<title>Node3&#45;&gt;Node4</title>
<path fill="none" stroke="#191970" d="M374.0606,-117.9581C457.9607,-105.9305 600.7368,-85.4626 679.7259,-74.139"/>
<polygon fill="#191970" stroke="#191970" points="680.5662,-77.5543 689.9683,-72.6706 679.5728,-70.6252 680.5662,-77.5543"/>
</g>
<!-- Node5 -->
<g id="node6" class="node">
<title>Node5</title>
<polygon fill="#ffffff" stroke="#bfbfbf" points="277.5,-56.5 277.5,-75.5 337.5,-75.5 337.5,-56.5 277.5,-56.5"/>
<text text-anchor="middle" x="307.5" y="-63.5" font-family="Helvetica,sans-Serif" font-size="10.00" fill="#000000">iostream</text>
</g>
<!-- Node3&#45;&gt;Node5 -->
<g id="edge6" class="edge">
<title>Node3&#45;&gt;Node5</title>
<path fill="none" stroke="#191970" d="M307.5,-117.8906C307.5,-109.3657 307.5,-96.6392 307.5,-85.9235"/>
<polygon fill="#191970" stroke="#191970" points="311.0001,-85.7448 307.5,-75.7449 304.0001,-85.7449 311.0001,-85.7448"/>
</g>
<!-- Node6 -->
<g id="node7" class="node">
<title>Node6</title>
<polygon fill="#ffffff" stroke="#bfbfbf" points="91,-56.5 91,-75.5 180,-75.5 180,-56.5 91,-56.5"/>
<text text-anchor="middle" x="135.5" y="-63.5" font-family="Helvetica,sans-Serif" font-size="10.00" fill="#000000">AMReX_Print.H</text>
</g>
<!-- Node3&#45;&gt;Node6 -->
<g id="edge7" class="edge">
<title>Node3&#45;&gt;Node6</title>
<path fill="none" stroke="#191970" d="M280.625,-117.8906C251.3414,-107.42 204.331,-90.6111 171.7863,-78.9745"/>
<polygon fill="#191970" stroke="#191970" points="172.7809,-75.6131 162.1863,-75.5419 170.4241,-82.2045 172.7809,-75.6131"/>
</g>
<!-- Node7 -->
<g id="node8" class="node">
<title>Node7</title>
<polygon fill="#ffffff" stroke="#bfbfbf" points="198,-56.5 198,-75.5 259,-75.5 259,-56.5 198,-56.5"/>
<text text-anchor="middle" x="228.5" y="-63.5" font-family="Helvetica,sans-Serif" font-size="10.00" fill="#000000">AMReX.H</text>
</g>
<!-- Node3&#45;&gt;Node7 -->
<g id="edge8" class="edge">
<title>Node3&#45;&gt;Node7</title>
<path fill="none" stroke="#191970" d="M295.1563,-117.8906C282.7497,-108.2324 263.4157,-93.1812 248.7587,-81.771"/>
<polygon fill="#191970" stroke="#191970" points="250.7979,-78.923 240.7571,-75.5419 246.4979,-84.4466 250.7979,-78.923"/>
</g>
<!-- Node9 -->
<g id="node10" class="node">
<title>Node9</title>
<polygon fill="#ffffff" stroke="#bfbfbf" points="1222,-118 1222,-137 1331,-137 1331,-118 1222,-118"/>
<text text-anchor="middle" x="1276.5" y="-125" font-family="Helvetica,sans-Serif" font-size="10.00" fill="#000000">AMReX_AmrCore.H</text>
</g>
<!-- Node8&#45;&gt;Node9 -->
<g id="edge10" class="edge">
<title>Node8&#45;&gt;Node9</title>
<path fill="none" stroke="#191970" d="M861.7319,-246.4971C921.64,-236.0049 1013.2975,-219.3626 1047.5,-210 1119.307,-190.3435 1200.7354,-158.6696 1244.5346,-140.8281"/>
<polygon fill="#191970" stroke="#191970" points="1245.8802,-144.0592 1253.8061,-137.0285 1243.2258,-137.582 1245.8802,-144.0592"/>
</g>
<!-- Node10 -->
<g id="node11" class="node">
<title>Node10</title>
<g id="a_node11"><a xlink:href="_sim_time_8_h.html" target="_top" xlink:title="amr&#45;wind/core/SimTime.H">
<polygon fill="#ffffff" stroke="#000000" points="895,-185 895,-204 1038,-204 1038,-185 895,-185"/>
<text text-anchor="middle" x="966.5" y="-192" font-family="Helvetica,sans-Serif" font-size="10.00" fill="#000000">amr&#45;wind/core/SimTime.H</text>
</a>
</g>
</g>
<!-- Node8&#45;&gt;Node10 -->
<g id="edge11" class="edge">
<title>Node8&#45;&gt;Node10</title>
<path fill="none" stroke="#191970" d="M831.5,-246.3906C858.5058,-236.0103 901.7185,-219.4004 931.9594,-207.7766"/>
<polygon fill="#191970" stroke="#191970" points="933.5971,-210.8968 941.6756,-204.0419 931.0856,-204.3628 933.5971,-210.8968"/>
</g>
<!-- Node14 -->
<g id="node15" class="node">
<title>Node14</title>
<g id="a_node15"><a xlink:href="_field_repo_8_h.html" target="_top" xlink:title="amr&#45;wind/core/FieldRepo.H">
<polygon fill="#ffffff" stroke="#000000" points="1607.5,-185 1607.5,-204 1753.5,-204 1753.5,-185 1607.5,-185"/>
<text text-anchor="middle" x="1680.5" y="-192" font-family="Helvetica,sans-Serif" font-size="10.00" fill="#000000">amr&#45;wind/core/FieldRepo.H</text>
</a>
</g>
</g>
<!-- Node8&#45;&gt;Node14 -->
<g id="edge15" class="edge">
<title>Node8&#45;&gt;Node14</title>
<path fill="none" stroke="#191970" d="M863.8413,-247.1163C867.1056,-246.712 870.3424,-246.3358 873.5,-246 1136.9579,-217.983 1450.5423,-203.2861 1597.1717,-197.4962"/>
<polygon fill="#191970" stroke="#191970" points="1597.5819,-200.9829 1607.4375,-197.0946 1597.3083,-193.9883 1597.5819,-200.9829"/>
</g>
<!-- Node31 -->
<g id="node32" class="node">
<title>Node31</title>
<g id="a_node32"><a xlink:href="_p_d_e_base_8_h.html" target="_top" xlink:title="amr&#45;wind/equation_systems\l/PDEBase.H">
<polygon fill="#ffffff" stroke="#000000" points="421,-179.5 421,-209.5 576,-209.5 576,-179.5 421,-179.5"/>
<text text-anchor="start" x="429" y="-197.5" font-family="Helvetica,sans-Serif" font-size="10.00" fill="#000000">amr&#45;wind/equation_systems</text>
<text text-anchor="middle" x="498.5" y="-186.5" font-family="Helvetica,sans-Serif" font-size="10.00" fill="#000000">/PDEBase.H</text>
</a>
</g>
</g>
<!-- Node8&#45;&gt;Node31 -->
<g id="edge52" class="edge">
<title>Node8&#45;&gt;Node31</title>
<path fill="none" stroke="#191970" d="M758.7129,-246.4581C712.0892,-237.1485 640.1415,-222.7823 583.7072,-211.5138"/>
<polygon fill="#191970" stroke="#191970" points="584.2105,-208.0452 573.7187,-209.5193 582.8397,-214.9097 584.2105,-208.0452"/>
</g>
<!-- Node35 -->
<g id="node36" class="node">
<title>Node35</title>
<g id="a_node36"><a xlink:href="_physics_8_h.html" target="_top" xlink:title="amr&#45;wind/core/Physics.H">
<polygon fill="#ffffff" stroke="#000000" points="649,-185 649,-204 786,-204 786,-185 649,-185"/>
<text text-anchor="middle" x="717.5" y="-192" font-family="Helvetica,sans-Serif" font-size="10.00" fill="#000000">amr&#45;wind/core/Physics.H</text>
</a>
</g>
</g>
<!-- Node8&#45;&gt;Node35 -->
<g id="edge64" class="edge">
<title>Node8&#45;&gt;Node35</title>
<path fill="none" stroke="#191970" d="M792.5938,-246.3906C778.4862,-236.6421 756.4276,-221.3994 739.8615,-209.9521"/>
<polygon fill="#191970" stroke="#191970" points="741.5253,-206.8474 731.3086,-204.0419 737.5458,-212.6063 741.5253,-206.8474"/>
</g>
<!-- Node11 -->
<g id="node12" class="node">
<title>Node11</title>
<polygon fill="#ffffff" stroke="#bfbfbf" points="1113,-118 1113,-137 1204,-137 1204,-118 1113,-118"/>
<text text-anchor="middle" x="1158.5" y="-125" font-family="Helvetica,sans-Serif" font-size="10.00" fill="#000000">AMReX_REAL.H</text>
</g>
<!-- Node10&#45;&gt;Node11 -->
<g id="edge12" class="edge">
<title>Node10&#45;&gt;Node11</title>
<path fill="none" stroke="#191970" d="M994.0089,-184.9005C1027.514,-173.2086 1084.2442,-153.4122 1121.5397,-140.3976"/>
<polygon fill="#191970" stroke="#191970" points="1122.7536,-143.681 1131.0421,-137.0817 1120.4473,-137.0719 1122.7536,-143.681"/>
</g>
<!-- Node12 -->
<g id="node13" class="node">
<title>Node12</title>
<polygon fill="#ffffff" stroke="#bfbfbf" points="830.5,-118 830.5,-137 962.5,-137 962.5,-118 830.5,-118"/>
<text text-anchor="middle" x="896.5" y="-125" font-family="Helvetica,sans-Serif" font-size="10.00" fill="#000000">AMReX_GpuQualifiers.H</text>
</g>
<!-- Node10&#45;&gt;Node12 -->
<g id="edge13" class="edge">
<title>Node10&#45;&gt;Node12</title>
<path fill="none" stroke="#191970" d="M956.4707,-184.9005C945.3469,-174.2535 927.2013,-156.8856 913.779,-144.0385"/>
<polygon fill="#191970" stroke="#191970" points="916.155,-141.4678 906.5107,-137.0817 911.3148,-146.5247 916.155,-141.4678"/>
</g>
<!-- Node13 -->
<g id="node14" class="node">
<title>Node13</title>
<polygon fill="#ffffff" stroke="#bfbfbf" points="980.5,-118 980.5,-137 1094.5,-137 1094.5,-118 980.5,-118"/>
<text text-anchor="middle" x="1037.5" y="-125" font-family="Helvetica,sans-Serif" font-size="10.00" fill="#000000">AMReX_Extension.H</text>
</g>
<!-- Node10&#45;&gt;Node13 -->
<g id="edge14" class="edge">
<title>Node10&#45;&gt;Node13</title>
<path fill="none" stroke="#191970" d="M976.6726,-184.9005C987.9553,-174.2535 1006.3601,-156.8856 1019.9742,-144.0385"/>
<polygon fill="#191970" stroke="#191970" points="1022.4754,-146.4905 1027.3463,-137.0817 1017.6712,-141.3994 1022.4754,-146.4905"/>
</g>
<!-- Node14&#45;&gt;Node4 -->
<g id="edge17" class="edge">
<title>Node14&#45;&gt;Node4</title>
<path fill="none" stroke="#191970" d="M1607.2979,-185.6401C1532.8077,-175.9438 1422.8745,-159.5621 1383.5,-143 1361.7832,-133.8652 1362.6682,-119.9771 1340.5,-112 1226.7114,-71.0537 917.6418,-89.7978 797.5,-76 796.034,-75.8316 794.5496,-75.6525 793.0528,-75.4643"/>
<polygon fill="#191970" stroke="#191970" points="793.4423,-71.9851 783.0621,-74.1069 792.4999,-78.9214 793.4423,-71.9851"/>
</g>
<!-- Node14&#45;&gt;Node9 -->
<g id="edge49" class="edge">
<title>Node14&#45;&gt;Node9</title>
<path fill="none" stroke="#191970" d="M1609.0269,-184.9568C1541.0372,-175.5379 1435.988,-160.0982 1345.5,-143 1339.4038,-141.8481 1333.0259,-140.547 1326.7149,-139.2005"/>
<polygon fill="#191970" stroke="#191970" points="1327.419,-135.7719 1316.903,-137.0622 1325.9284,-142.6114 1327.419,-135.7719"/>
</g>
<!-- Node15 -->
<g id="node16" class="node">
<title>Node15</title>
<polygon fill="#ffffff" stroke="#bfbfbf" points="1067.5,-.5 1067.5,-19.5 1111.5,-19.5 1111.5,-.5 1067.5,-.5"/>
<text text-anchor="middle" x="1089.5" y="-7.5" font-family="Helvetica,sans-Serif" font-size="10.00" fill="#000000">string</text>
</g>
<!-- Node14&#45;&gt;Node15 -->
<g id="edge16" class="edge">
<title>Node14&#45;&gt;Node15</title>
<path fill="none" stroke="#191970" d="M1607.2366,-189.1724C1552.7026,-183.1088 1477.4728,-170.2305 1416.5,-143 1395.6411,-133.6844 1396.9068,-119.9765 1375.5,-112 1318.632,-90.8103 871.9742,-120.3042 830.5,-76 824.4253,-69.5108 824.7906,-62.8128 830.5,-56 859.0614,-21.9189 994.0373,-13.0703 1057.006,-10.7869"/>
<polygon fill="#191970" stroke="#191970" points="1057.2972,-14.2793 1067.1769,-10.4529 1057.0674,-7.2831 1057.2972,-14.2793"/>
</g>
<!-- Node16 -->
<g id="node17" class="node">
<title>Node16</title>
<g id="a_node17"><a xlink:href="_field_desc_types_8_h.html" target="_top" xlink:title="amr&#45;wind/core/FieldDescTypes.H">
<polygon fill="#ffffff" stroke="#000000" points="1760.5,-.5 1760.5,-19.5 1934.5,-19.5 1934.5,-.5 1760.5,-.5"/>
<text text-anchor="middle" x="1847.5" y="-7.5" font-family="Helvetica,sans-Serif" font-size="10.00" fill="#000000">amr&#45;wind/core/FieldDescTypes.H</text>
</a>
</g>
</g>
<!-- Node14&#45;&gt;Node16 -->
<g id="edge18" class="edge">
<title>Node14&#45;&gt;Node16</title>
<path fill="none" stroke="#191970" d="M1726.475,-184.9169C1751.9667,-177.4308 1782.4667,-164.5558 1802.5,-143 1832.2533,-110.9855 1842.4033,-58.5751 1845.8146,-30.0425"/>
<polygon fill="#191970" stroke="#191970" points="1849.3342,-30.03 1846.8745,-19.7246 1842.3708,-29.3146 1849.3342,-30.03"/>
</g>
<!-- Node17 -->
<g id="node18" class="node">
<title>Node17</title>
<g id="a_node18"><a xlink:href="_field_utils_8_h.html" target="_top" xlink:title="amr&#45;wind/core/FieldUtils.H">
<polygon fill="#ffffff" stroke="#000000" points="2156,-56.5 2156,-75.5 2301,-75.5 2301,-56.5 2156,-56.5"/>
<text text-anchor="middle" x="2228.5" y="-63.5" font-family="Helvetica,sans-Serif" font-size="10.00" fill="#000000">amr&#45;wind/core/FieldUtils.H</text>
</a>
</g>
</g>
<!-- Node14&#45;&gt;Node17 -->
<g id="edge19" class="edge">
<title>Node14&#45;&gt;Node17</title>
<path fill="none" stroke="#191970" d="M1753.6717,-189.9477C1859.3946,-182.6677 2049.2411,-166.7622 2113.5,-143 2151.3005,-129.0218 2188.9362,-100.3046 2210.3951,-82.1637"/>
<polygon fill="#191970" stroke="#191970" points="2212.7652,-84.7415 2218.0481,-75.5577 2208.1912,-79.4425 2212.7652,-84.7415"/>
</g>
<!-- Node18 -->
<g id="node19" class="node">
<title>Node18</title>
<polygon fill="#ffffff" stroke="#bfbfbf" points="1594,-.5 1594,-19.5 1701,-19.5 1701,-.5 1594,-.5"/>
<text text-anchor="middle" x="1647.5" y="-7.5" font-family="Helvetica,sans-Serif" font-size="10.00" fill="#000000">AMReX_MultiFab.H</text>
</g>
<!-- Node14&#45;&gt;Node18 -->
<g id="edge50" class="edge">
<title>Node14&#45;&gt;Node18</title>
<path fill="none" stroke="#191970" d="M1701.558,-184.9775C1746.6864,-163.2698 1845.5646,-107.9682 1806.5,-56 1794.7312,-40.3437 1750.4116,-28.3179 1711.5445,-20.4955"/>
<polygon fill="#191970" stroke="#191970" points="1711.7669,-16.9732 1701.2826,-18.4995 1710.4304,-23.8444 1711.7669,-16.9732"/>
</g>
<!-- Node20 -->
<g id="node21" class="node">
<title>Node20</title>
<g id="a_node21"><a xlink:href="_field_8_h.html" target="_top" xlink:title="amr&#45;wind/core/Field.H">
<polygon fill="#ffffff" stroke="#000000" points="1425.5,-118 1425.5,-137 1547.5,-137 1547.5,-118 1425.5,-118"/>
<text text-anchor="middle" x="1486.5" y="-125" font-family="Helvetica,sans-Serif" font-size="10.00" fill="#000000">amr&#45;wind/core/Field.H</text>
</a>
</g>
</g>
<!-- Node14&#45;&gt;Node20 -->
<g id="edge23" class="edge">
<title>Node14&#45;&gt;Node20</title>
<path fill="none" stroke="#191970" d="M1652.7045,-184.9005C1618.8504,-173.2086 1561.5293,-153.4122 1523.8453,-140.3976"/>
<polygon fill="#191970" stroke="#191970" points="1524.8387,-137.0379 1514.2439,-137.0817 1522.5535,-143.6544 1524.8387,-137.0379"/>
</g>
<!-- Node27 -->
<g id="node28" class="node">
<title>Node27</title>
<g id="a_node28"><a xlink:href="_int_field_8_h.html" target="_top" xlink:title="amr&#45;wind/core/IntField.H">
<polygon fill="#ffffff" stroke="#000000" points="1952,-118 1952,-137 2087,-137 2087,-118 1952,-118"/>
<text text-anchor="middle" x="2019.5" y="-125" font-family="Helvetica,sans-Serif" font-size="10.00" fill="#000000">amr&#45;wind/core/IntField.H</text>
</a>
</g>
</g>
<!-- Node14&#45;&gt;Node27 -->
<g id="edge38" class="edge">
<title>Node14&#45;&gt;Node27</title>
<path fill="none" stroke="#191970" d="M1728.7104,-184.9717C1789.8741,-172.8833 1895.2859,-152.0497 1960.9904,-139.0638"/>
<polygon fill="#191970" stroke="#191970" points="1962.0502,-142.4222 1971.1818,-137.0496 1960.6929,-135.555 1962.0502,-142.4222"/>
</g>
<!-- Node28 -->
<g id="node29" class="node">
<title>Node28</title>
<polygon fill="#ffffff" stroke="#bfbfbf" points="2027.5,-56.5 2027.5,-75.5 2137.5,-75.5 2137.5,-56.5 2027.5,-56.5"/>
<text text-anchor="middle" x="2082.5" y="-63.5" font-family="Helvetica,sans-Serif" font-size="10.00" fill="#000000">AMReX_iMultiFab.H</text>
</g>
<!-- Node14&#45;&gt;Node28 -->
<g id="edge51" class="edge">
<title>Node14&#45;&gt;Node28</title>
<path fill="none" stroke="#191970" d="M1753.6029,-190.6328C1866.8876,-183.8838 2074.2103,-168.2193 2096.5,-143 2110.5658,-127.0855 2102.2336,-101.896 2093.6124,-84.6927"/>
<polygon fill="#191970" stroke="#191970" points="2096.5264,-82.7253 2088.6701,-75.6169 2090.3788,-86.073 2096.5264,-82.7253"/>
</g>
<!-- Node29 -->
<g id="node30" class="node">
<title>Node29</title>
<g id="a_node30"><a xlink:href="_scratch_field_8_h.html" target="_top" xlink:title="amr&#45;wind/core/ScratchField.H">
<polygon fill="#ffffff" stroke="#000000" points="1601.5,-118 1601.5,-137 1759.5,-137 1759.5,-118 1601.5,-118"/>
<text text-anchor="middle" x="1680.5" y="-125" font-family="Helvetica,sans-Serif" font-size="10.00" fill="#000000">amr&#45;wind/core/ScratchField.H</text>
</a>
</g>
</g>
<!-- Node14&#45;&gt;Node29 -->
<g id="edge42" class="edge">
<title>Node14&#45;&gt;Node29</title>
<path fill="none" stroke="#191970" d="M1680.5,-184.9005C1680.5,-175.149 1680.5,-159.7597 1680.5,-147.3695"/>
<polygon fill="#191970" stroke="#191970" points="1684.0001,-147.0816 1680.5,-137.0817 1677.0001,-147.0817 1684.0001,-147.0816"/>
</g>
<!-- Node17&#45;&gt;Node16 -->
<g id="edge20" class="edge">
<title>Node17&#45;&gt;Node16</title>
<path fill="none" stroke="#191970" d="M2163.4367,-56.4369C2096.5876,-46.6113 1992.6413,-31.3331 1922.4047,-21.0096"/>
<polygon fill="#191970" stroke="#191970" points="1922.6977,-17.5152 1912.295,-19.5237 1921.6797,-24.4407 1922.6977,-17.5152"/>
</g>
<!-- Node17&#45;&gt;Node18 -->
<g id="edge21" class="edge">
<title>Node17&#45;&gt;Node18</title>
<path fill="none" stroke="#191970" d="M2155.6357,-56.9973C2152.55,-56.653 2149.4948,-56.319 2146.5,-56 1971.2085,-37.3279 1927.0152,-36.4363 1751.5,-20 1738.4758,-18.7803 1724.5362,-17.4543 1711.2307,-16.1785"/>
<polygon fill="#191970" stroke="#191970" points="1711.494,-12.6878 1701.2051,-15.2153 1710.8245,-19.6557 1711.494,-12.6878"/>
</g>
<!-- Node19 -->
<g id="node20" class="node">
<title>Node19</title>
<polygon fill="#ffffff" stroke="#bfbfbf" points="2167.5,-.5 2167.5,-19.5 2289.5,-19.5 2289.5,-.5 2167.5,-.5"/>
<text text-anchor="middle" x="2228.5" y="-7.5" font-family="Helvetica,sans-Serif" font-size="10.00" fill="#000000">AMReX_Interpolater.H</text>
</g>
<!-- Node17&#45;&gt;Node19 -->
<g id="edge22" class="edge">
<title>Node17&#45;&gt;Node19</title>
<path fill="none" stroke="#191970" d="M2228.5,-56.2455C2228.5,-48.9382 2228.5,-38.6944 2228.5,-29.7046"/>
<polygon fill="#191970" stroke="#191970" points="2232.0001,-29.6426 2228.5,-19.6427 2225.0001,-29.6427 2232.0001,-29.6426"/>
</g>
<!-- Node20&#45;&gt;Node2 -->
<g id="edge25" class="edge">
<title>Node20&#45;&gt;Node2</title>
<path fill="none" stroke="#191970" d="M1425.4814,-120.2285C1399.3432,-117.3195 1368.4557,-114.1547 1340.5,-112 1157.697,-97.9102 579.659,-73.9297 423.634,-67.5807"/>
<polygon fill="#191970" stroke="#191970" points="423.6912,-64.0802 413.5573,-67.1713 423.407,-71.0745 423.6912,-64.0802"/>
</g>
<!-- Node20&#45;&gt;Node4 -->
<g id="edge26" class="edge">
<title>Node20&#45;&gt;Node4</title>
<path fill="none" stroke="#191970" d="M1425.309,-118.3095C1408.5411,-116.0087 1390.3438,-113.7114 1373.5,-112 1132.8758,-87.5509 1071.4673,-96.797 830.5,-76 818.4924,-74.9637 805.6385,-73.699 793.412,-72.4223"/>
<polygon fill="#191970" stroke="#191970" points="793.6351,-68.9264 783.3217,-71.3517 792.8966,-75.8873 793.6351,-68.9264"/>
</g>
<!-- Node20&#45;&gt;Node15 -->
<g id="edge24" class="edge">
<title>Node20&#45;&gt;Node15</title>
<path fill="none" stroke="#191970" d="M1443.3872,-117.9353C1432.9787,-115.8077 1421.8676,-113.6861 1411.5,-112 1344.7902,-101.1508 1161.297,-119.4163 1109.5,-76 1096.1922,-64.8454 1091.5438,-45.1466 1090.0144,-30.1648"/>
<polygon fill="#191970" stroke="#191970" points="1093.4861,-29.606 1089.3611,-19.8472 1086.5001,-30.0484 1093.4861,-29.606"/>
</g>
<!-- Node20&#45;&gt;Node16 -->
<g id="edge32" class="edge">
<title>Node20&#45;&gt;Node16</title>
<path fill="none" stroke="#191970" d="M1504.501,-117.8982C1533.335,-102.8548 1591.981,-73.6317 1644.5,-56 1689.3453,-40.9445 1741.4078,-29.2582 1781.5802,-21.4321"/>
<polygon fill="#191970" stroke="#191970" points="1782.3634,-24.8458 1791.5257,-19.5259 1781.0456,-17.971 1782.3634,-24.8458"/>
</g>
<!-- Node20&#45;&gt;Node18 -->
<g id="edge28" class="edge">
<title>Node20&#45;&gt;Node18</title>
<path fill="none" stroke="#191970" d="M1460.1965,-117.9817C1428.9501,-105.2443 1383.5332,-81.3082 1404.5,-56 1415.9152,-42.2212 1515.4937,-26.8829 1583.5816,-17.858"/>
<polygon fill="#191970" stroke="#191970" points="1584.3417,-21.2885 1593.8023,-16.5192 1583.4324,-14.3478 1584.3417,-21.2885"/>
</g>
<!-- Node21 -->
<g id="node22" class="node">
<title>Node21</title>
<polygon fill="#ffffff" stroke="#bfbfbf" points="997.5,-56.5 997.5,-75.5 1061.5,-75.5 1061.5,-56.5 997.5,-56.5"/>
<text text-anchor="middle" x="1029.5" y="-63.5" font-family="Helvetica,sans-Serif" font-size="10.00" fill="#000000">algorithm</text>
</g>
<!-- Node20&#45;&gt;Node21 -->
<g id="edge27" class="edge">
<title>Node20&#45;&gt;Node21</title>
<path fill="none" stroke="#191970" d="M1443.7962,-117.9274C1433.2739,-115.7754 1422.0088,-113.6449 1411.5,-112 1263.1187,-88.7744 1223.7602,-99.9867 1075.5,-76 1074.2293,-75.7944 1072.9409,-75.5763 1071.6417,-75.3479"/>
<polygon fill="#191970" stroke="#191970" points="1072.0648,-71.8657 1061.5869,-73.4354 1070.7567,-78.7424 1072.0648,-71.8657"/>
</g>
<!-- Node22 -->
<g id="node23" class="node">
<title>Node22</title>
<polygon fill="#ffffff" stroke="#bfbfbf" points="1118,-56.5 1118,-75.5 1215,-75.5 1215,-56.5 1118,-56.5"/>
<text text-anchor="middle" x="1166.5" y="-63.5" font-family="Helvetica,sans-Serif" font-size="10.00" fill="#000000">AMReX_BCRec.H</text>
</g>
<!-- Node20&#45;&gt;Node22 -->
<g id="edge29" class="edge">
<title>Node20&#45;&gt;Node22</title>
<path fill="none" stroke="#191970" d="M1440.9159,-117.941C1431.213,-115.9451 1421.0227,-113.8778 1411.5,-112 1347.9423,-99.4668 1274.9471,-85.8632 1225.281,-76.726"/>
<polygon fill="#191970" stroke="#191970" points="1225.8267,-73.2678 1215.3588,-74.903 1224.5617,-80.1526 1225.8267,-73.2678"/>
</g>
<!-- Node23 -->
<g id="node24" class="node">
<title>Node23</title>
<polygon fill="#ffffff" stroke="#bfbfbf" points="1233.5,-56.5 1233.5,-75.5 1319.5,-75.5 1319.5,-56.5 1233.5,-56.5"/>
<text text-anchor="middle" x="1276.5" y="-63.5" font-family="Helvetica,sans-Serif" font-size="10.00" fill="#000000">AMReX_Gpu.H</text>
</g>
<!-- Node20&#45;&gt;Node23 -->
<g id="edge30" class="edge">
<title>Node20&#45;&gt;Node23</title>
<path fill="none" stroke="#191970" d="M1453.6875,-117.8906C1417.3178,-107.2395 1358.5522,-90.0296 1318.7637,-78.3772"/>
<polygon fill="#191970" stroke="#191970" points="1319.6627,-74.9936 1309.0821,-75.5419 1317.6953,-81.7114 1319.6627,-74.9936"/>
</g>
<!-- Node24 -->
<g id="node25" class="node">
<title>Node24</title>
<g id="a_node25"><a xlink:href="incflo__enums_8_h.html" target="_top" xlink:title="amr&#45;wind/incflo_enums.H">
<polygon fill="#ffffff" stroke="#000000" points="839.5,-56.5 839.5,-75.5 979.5,-75.5 979.5,-56.5 839.5,-56.5"/>
<text text-anchor="middle" x="909.5" y="-63.5" font-family="Helvetica,sans-Serif" font-size="10.00" fill="#000000">amr&#45;wind/incflo_enums.H</text>
</a>
</g>
</g>
<!-- Node20&#45;&gt;Node24 -->
<g id="edge31" class="edge">
<title>Node20&#45;&gt;Node24</title>
<path fill="none" stroke="#191970" d="M1444.6086,-117.9257C1433.8617,-115.7223 1422.2893,-113.5683 1411.5,-112 1228.0648,-85.3357 1177.8854,-95.4767 989.9175,-76.1055"/>
<polygon fill="#191970" stroke="#191970" points="990.0036,-72.5955 979.6939,-75.037 989.2759,-79.5576 990.0036,-72.5955"/>
</g>
<!-- Node25 -->
<g id="node26" class="node">
<title>Node25</title>
<g id="a_node26"><a xlink:href="_view_field_8_h.html" target="_top" xlink:title="amr&#45;wind/core/ViewField.H">
<polygon fill="#ffffff" stroke="#000000" points="1413.5,-56.5 1413.5,-75.5 1559.5,-75.5 1559.5,-56.5 1413.5,-56.5"/>
<text text-anchor="middle" x="1486.5" y="-63.5" font-family="Helvetica,sans-Serif" font-size="10.00" fill="#000000">amr&#45;wind/core/ViewField.H</text>
</a>
</g>
</g>
<!-- Node20&#45;&gt;Node25 -->
<g id="edge33" class="edge">
<title>Node20&#45;&gt;Node25</title>
<path fill="none" stroke="#191970" d="M1486.5,-117.8906C1486.5,-109.3657 1486.5,-96.6392 1486.5,-85.9235"/>
<polygon fill="#191970" stroke="#191970" points="1490.0001,-85.7448 1486.5,-75.7449 1483.0001,-85.7449 1490.0001,-85.7448"/>
</g>
<!-- Node25&#45;&gt;Node15 -->
<g id="edge34" class="edge">
<title>Node25&#45;&gt;Node15</title>
<path fill="none" stroke="#191970" d="M1418.7044,-56.4369C1332.2741,-44.2452 1186.3299,-23.6586 1121.8196,-14.5589"/>
<polygon fill="#191970" stroke="#191970" points="1122.218,-11.0806 1111.8271,-13.1494 1121.2402,-18.0119 1122.218,-11.0806"/>
</g>
<!-- Node25&#45;&gt;Node16 -->
<g id="edge35" class="edge">
<title>Node25&#45;&gt;Node16</title>
<path fill="none" stroke="#191970" d="M1548.1479,-56.4369C1611.358,-46.6314 1709.5742,-31.3957 1776.1178,-21.0731"/>
<polygon fill="#191970" stroke="#191970" points="1776.7611,-24.5153 1786.1063,-19.5237 1775.688,-17.598 1776.7611,-24.5153"/>
</g>
<!-- Node25&#45;&gt;Node18 -->
<g id="edge36" class="edge">
<title>Node25&#45;&gt;Node18</title>
<path fill="none" stroke="#191970" d="M1514.1769,-56.3733C1540.8328,-47.1016 1581.3238,-33.0178 1610.6884,-22.804"/>
<polygon fill="#191970" stroke="#191970" points="1611.8891,-26.0921 1620.1843,-19.5011 1609.5895,-19.4807 1611.8891,-26.0921"/>
</g>
<!-- Node26 -->
<g id="node27" class="node">
<title>Node26</title>
<polygon fill="#ffffff" stroke="#bfbfbf" points="1438.5,-.5 1438.5,-19.5 1534.5,-19.5 1534.5,-.5 1438.5,-.5"/>
<text text-anchor="middle" x="1486.5" y="-7.5" font-family="Helvetica,sans-Serif" font-size="10.00" fill="#000000">AMReX_Vector.H</text>
</g>
<!-- Node25&#45;&gt;Node26 -->
<g id="edge37" class="edge">
<title>Node25&#45;&gt;Node26</title>
<path fill="none" stroke="#191970" d="M1486.5,-56.2455C1486.5,-48.9382 1486.5,-38.6944 1486.5,-29.7046"/>
<polygon fill="#191970" stroke="#191970" points="1490.0001,-29.6426 1486.5,-19.6427 1483.0001,-29.6427 1490.0001,-29.6426"/>
</g>
<!-- Node27&#45;&gt;Node15 -->
<g id="edge39" class="edge">
<title>Node27&#45;&gt;Node15</title>
<path fill="none" stroke="#191970" d="M1995.5771,-117.9522C1954.4312,-102.0054 1867.2739,-70.2945 1790.5,-56 1659.5479,-31.6181 1241.7166,-15.3544 1121.8999,-11.106"/>
<polygon fill="#191970" stroke="#191970" points="1121.6841,-7.5963 1111.5675,-10.7433 1121.4385,-14.592 1121.6841,-7.5963"/>
</g>
<!-- Node27&#45;&gt;Node16 -->
<g id="edge40" class="edge">
<title>Node27&#45;&gt;Node16</title>
<path fill="none" stroke="#191970" d="M2015.9567,-117.7261C2009.9408,-102.4469 1996.3184,-72.9065 1975.5,-56 1955.7718,-39.9788 1930.0081,-29.2983 1906.7706,-22.2996"/>
<polygon fill="#191970" stroke="#191970" points="1907.5672,-18.8875 1896.9913,-19.5207 1905.6538,-25.6209 1907.5672,-18.8875"/>
</g>
<!-- Node27&#45;&gt;Node28 -->
<g id="edge41" class="edge">
<title>Node27&#45;&gt;Node28</title>
<path fill="none" stroke="#191970" d="M2029.3438,-117.8906C2038.9039,-108.5581 2053.6223,-94.1902 2065.1495,-82.9374"/>
<polygon fill="#191970" stroke="#191970" points="2067.8066,-85.2348 2072.5175,-75.7449 2062.9168,-80.2257 2067.8066,-85.2348"/>
</g>
<!-- Node29&#45;&gt;Node15 -->
<g id="edge43" class="edge">
<title>Node29&#45;&gt;Node15</title>
<path fill="none" stroke="#191970" d="M1622.6306,-117.965C1566.6121,-108.4378 1479.4059,-92.8211 1404.5,-76 1370.4209,-68.3471 1362.5572,-63.7495 1328.5,-56 1254.9188,-39.2571 1167.6874,-23.4878 1121.6602,-15.4819"/>
<polygon fill="#191970" stroke="#191970" points="1122.1306,-12.0113 1111.6803,-13.7555 1120.9373,-18.9089 1122.1306,-12.0113"/>
</g>
<!-- Node29&#45;&gt;Node16 -->
<g id="edge44" class="edge">
<title>Node29&#45;&gt;Node16</title>
<path fill="none" stroke="#191970" d="M1721.1259,-117.9191C1747.6726,-110.0762 1781.8588,-96.8169 1806.5,-76 1821.4253,-63.3911 1832.5863,-43.9221 1839.4648,-29.3922"/>
<polygon fill="#191970" stroke="#191970" points="1842.8414,-30.4131 1843.7091,-19.8539 1836.4459,-27.5673 1842.8414,-30.4131"/>
</g>
<!-- Node29&#45;&gt;Node18 -->
<g id="edge46" class="edge">
<title>Node29&#45;&gt;Node18</title>
<path fill="none" stroke="#191970" d="M1722.161,-117.9268C1761.7922,-106.7866 1812.3665,-86.0039 1790.5,-56 1780.2597,-41.9488 1741.8928,-30.0556 1707.477,-21.8843"/>
<polygon fill="#191970" stroke="#191970" points="1707.9615,-18.4045 1697.4315,-19.5748 1706.393,-25.2265 1707.9615,-18.4045"/>
</g>
<!-- Node29&#45;&gt;Node25 -->
<g id="edge45" class="edge">
<title>Node29&#45;&gt;Node25</title>
<path fill="none" stroke="#191970" d="M1650.1875,-117.8906C1616.8735,-107.3298 1563.2192,-90.3208 1526.4819,-78.6747"/>
<polygon fill="#191970" stroke="#191970" points="1527.1898,-75.2275 1516.5996,-75.5419 1525.0744,-81.9002 1527.1898,-75.2275"/>
</g>
<!-- Node29&#45;&gt;Node26 -->
<g id="edge47" class="edge">
<title>Node29&#45;&gt;Node26</title>
<path fill="none" stroke="#191970" d="M1666.1663,-117.9786C1645.0216,-104.0182 1604.1219,-77.3384 1568.5,-56 1550.2392,-45.0614 1529.3045,-33.3305 1513.1585,-24.4531"/>
<polygon fill="#191970" stroke="#191970" points="1514.7142,-21.3146 1504.2618,-19.5834 1511.3532,-27.455 1514.7142,-21.3146"/>
</g>
<!-- Node30 -->
<g id="node31" class="node">
<title>Node30</title>
<polygon fill="#ffffff" stroke="#bfbfbf" points="1653.5,-56.5 1653.5,-75.5 1781.5,-75.5 1781.5,-56.5 1653.5,-56.5"/>
<text text-anchor="middle" x="1717.5" y="-63.5" font-family="Helvetica,sans-Serif" font-size="10.00" fill="#000000">AMReX_PhysBCFunct.H</text>
</g>
<!-- Node29&#45;&gt;Node30 -->
<g id="edge48" class="edge">
<title>Node29&#45;&gt;Node30</title>
<path fill="none" stroke="#191970" d="M1686.2813,-117.8906C1691.626,-109.0068 1699.7159,-95.5601 1706.3211,-84.5811"/>
<polygon fill="#191970" stroke="#191970" points="1709.4811,-86.118 1711.6372,-75.7449 1703.4829,-82.5093 1709.4811,-86.118"/>
</g>
<!-- Node31&#45;&gt;Node3 -->
<g id="edge54" class="edge">
<title>Node31&#45;&gt;Node3</title>
<path fill="none" stroke="#191970" d="M455.6359,-179.4639C422.1901,-167.7316 376.2183,-151.6054 344.3975,-140.4431"/>
<polygon fill="#191970" stroke="#191970" points="345.192,-137.0128 334.5972,-137.0053 342.8749,-143.6182 345.192,-137.0128"/>
</g>
<!-- Node31&#45;&gt;Node15 -->
<g id="edge53" class="edge">
<title>Node31&#45;&gt;Node15</title>
<path fill="none" stroke="#191970" d="M461.6828,-179.4687C446.3532,-171.1524 430.1389,-159.1711 421.5,-143 415.0079,-130.8476 414.2991,-123.7462 421.5,-112 450.1722,-65.2294 478.7252,-70.98 531.5,-56 631.5222,-27.609 954.0428,-14.5454 1057.3469,-11.0184"/>
<polygon fill="#191970" stroke="#191970" points="1057.594,-14.5122 1067.4713,-10.6795 1057.3598,-7.5161 1057.594,-14.5122"/>
</g>
<!-- Node31&#45;&gt;Node16 -->
<g id="edge62" class="edge">
<title>Node31&#45;&gt;Node16</title>
<path fill="none" stroke="#191970" d="M523.151,-179.4782C538.6293,-169.6938 558.7586,-156.3133 575.5,-143 623.2025,-105.0653 624.1372,-76.5933 681.5,-56 789.1749,-17.3446 1596.263,-26.1653 1710.5,-20 1723.309,-19.3087 1736.7835,-18.4664 1750.0784,-17.5671"/>
<polygon fill="#191970" stroke="#191970" points="1750.4604,-21.0492 1760.1961,-16.8699 1749.9791,-14.0658 1750.4604,-21.0492"/>
</g>
<!-- Node31&#45;&gt;Node24 -->
<g id="edge63" class="edge">
<title>Node31&#45;&gt;Node24</title>
<path fill="none" stroke="#191970" d="M534.7288,-179.4625C556.5795,-169.925 584.6993,-156.8119 608.5,-143 629.1902,-130.9932 630.4244,-121.215 652.5,-112 708.8712,-88.469 777.1132,-76.9649 829.1058,-71.3462"/>
<polygon fill="#191970" stroke="#191970" points="829.6902,-74.8046 839.2793,-70.2991 828.9735,-67.8414 829.6902,-74.8046"/>
</g>
<!-- Node32 -->
<g id="node33" class="node">
<title>Node32</title>
<g id="a_node33"><a xlink:href="_coll_mgr_8_h.html" target="_top" xlink:title="amr&#45;wind/core/CollMgr.H">
<polygon fill="#ffffff" stroke="#000000" points="430.5,-118 430.5,-137 566.5,-137 566.5,-118 430.5,-118"/>
<text text-anchor="middle" x="498.5" y="-125" font-family="Helvetica,sans-Serif" font-size="10.00" fill="#000000">amr&#45;wind/core/CollMgr.H</text>
</a>
</g>
</g>
<!-- Node31&#45;&gt;Node32 -->
<g id="edge55" class="edge">
<title>Node31&#45;&gt;Node32</title>
<path fill="none" stroke="#191970" d="M498.5,-179.2967C498.5,-169.7699 498.5,-157.3954 498.5,-147.1306"/>
<polygon fill="#191970" stroke="#191970" points="502.0001,-147.0549 498.5,-137.055 495.0001,-147.055 502.0001,-147.0549"/>
</g>
<!-- Node33 -->
<g id="node34" class="node">
<title>Node33</title>
<g id="a_node34"><a xlink:href="_p_d_e_fields_8_h.html" target="_top" xlink:title="amr&#45;wind/equation_systems\l/PDEFields.H">
<polygon fill="#ffffff" stroke="#000000" points="0,-112.5 0,-142.5 155,-142.5 155,-112.5 0,-112.5"/>
<text text-anchor="start" x="8" y="-130.5" font-family="Helvetica,sans-Serif" font-size="10.00" fill="#000000">amr&#45;wind/equation_systems</text>
<text text-anchor="middle" x="77.5" y="-119.5" font-family="Helvetica,sans-Serif" font-size="10.00" fill="#000000">/PDEFields.H</text>
</a>
</g>
</g>
<!-- Node31&#45;&gt;Node33 -->
<g id="edge60" class="edge">
<title>Node31&#45;&gt;Node33</title>
<path fill="none" stroke="#191970" d="M420.7915,-182.1331C348.3709,-170.6077 240.5072,-153.4418 165.0699,-141.4363"/>
<polygon fill="#191970" stroke="#191970" points="165.537,-137.9667 155.1112,-139.8514 164.4368,-144.8797 165.537,-137.9667"/>
</g>
<!-- Node32&#45;&gt;Node2 -->
<g id="edge57" class="edge">
<title>Node32&#45;&gt;Node2</title>
<path fill="none" stroke="#191970" d="M480.6875,-117.8906C462.0315,-107.8262 432.5203,-91.9057 411.1026,-80.3514"/>
<polygon fill="#191970" stroke="#191970" points="412.6502,-77.2095 402.1874,-75.5419 409.3266,-83.3702 412.6502,-77.2095"/>
</g>
<!-- Node32&#45;&gt;Node4 -->
<g id="edge58" class="edge">
<title>Node32&#45;&gt;Node4</title>
<path fill="none" stroke="#191970" d="M535.4264,-117.9581C576.9402,-107.2308 644.4365,-89.7895 689.6353,-78.11"/>
<polygon fill="#191970" stroke="#191970" points="690.6807,-81.4549 699.487,-75.5643 688.9293,-74.6775 690.6807,-81.4549"/>
</g>
<!-- Node32&#45;&gt;Node15 -->
<g id="edge56" class="edge">
<title>Node32&#45;&gt;Node15</title>
<path fill="none" stroke="#191970" d="M503.4934,-117.7616C512.328,-101.6814 532.3727,-69.9689 559.5,-56 603.7082,-33.2355 948.5991,-16.2187 1057.0037,-11.389"/>
<polygon fill="#191970" stroke="#191970" points="1057.4779,-14.8716 1067.3141,-10.9348 1057.1697,-7.8784 1057.4779,-14.8716"/>
</g>
<!-- Node32&#45;&gt;Node26 -->
<g id="edge59" class="edge">
<title>Node32&#45;&gt;Node26</title>
<path fill="none" stroke="#191970" d="M509.1542,-117.8485C527.8504,-101.5952 568.4901,-69.2418 609.5,-56 686.8904,-31.0111 1244.4513,-15.7233 1428.0496,-11.3237"/>
<polygon fill="#191970" stroke="#191970" points="1428.3989,-14.8165 1438.3129,-11.0798 1428.2326,-7.8185 1428.3989,-14.8165"/>
</g>
<!-- Node34 -->
<g id="node35" class="node">
<title>Node34</title>
<polygon fill="#ffffff" stroke="#bfbfbf" points="24,-56.5 24,-75.5 73,-75.5 73,-56.5 24,-56.5"/>
<text text-anchor="middle" x="48.5" y="-63.5" font-family="Helvetica,sans-Serif" font-size="10.00" fill="#000000">iosfwd</text>
</g>
<!-- Node33&#45;&gt;Node34 -->
<g id="edge61" class="edge">
<title>Node33&#45;&gt;Node34</title>
<path fill="none" stroke="#191970" d="M70.3315,-112.2977C66.4318,-104.0277 61.572,-93.7215 57.4282,-84.9339"/>
<polygon fill="#191970" stroke="#191970" points="60.5741,-83.399 53.1433,-75.8469 54.2427,-86.3846 60.5741,-83.399"/>
</g>
<!-- Node35&#45;&gt;Node3 -->
<g id="edge65" class="edge">
<title>Node35&#45;&gt;Node3</title>
<path fill="none" stroke="#191970" d="M659.1924,-184.9717C584.4576,-172.7589 455.1005,-151.6201 375.8266,-138.6656"/>
<polygon fill="#191970" stroke="#191970" points="376.3716,-135.2083 365.938,-137.0496 375.2426,-142.1166 376.3716,-135.2083"/>
</g>
<!-- Node35&#45;&gt;Node18 -->
<g id="edge67" class="edge">
<title>Node35&#45;&gt;Node18</title>
<path fill="none" stroke="#191970" d="M735.2688,-184.8851C760.8306,-169.7851 802.887,-139.4016 783.5,-112 753.6301,-69.782 645.7022,-93.3241 681.5,-56 714.6774,-21.408 1495.6828,-23.295 1543.5,-20 1556.5503,-19.1007 1570.5012,-17.9145 1583.8096,-16.6744"/>
<polygon fill="#191970" stroke="#191970" points="1584.2128,-20.152 1593.8359,-15.7195 1583.5491,-13.1835 1584.2128,-20.152"/>
</g>
<!-- Node35&#45;&gt;Node32 -->
<g id="edge66" class="edge">
<title>Node35&#45;&gt;Node32</title>
<path fill="none" stroke="#191970" d="M686.1226,-184.9005C647.5806,-173.1091 582.0947,-153.0746 539.5765,-140.0668"/>
<polygon fill="#191970" stroke="#191970" points="540.4056,-136.6604 529.8192,-137.0817 538.3577,-143.3541 540.4056,-136.6604"/>
</g>
<!-- Node36 -->
<g id="node37" class="node">
<title>Node36</title>
<polygon fill="#ffffff" stroke="#bfbfbf" points="661,-118 661,-137 774,-137 774,-118 661,-118"/>
<text text-anchor="middle" x="717.5" y="-125" font-family="Helvetica,sans-Serif" font-size="10.00" fill="#000000">AMReX_Geometry.H</text>
</g>
<!-- Node35&#45;&gt;Node36 -->
<g id="edge68" class="edge">
<title>Node35&#45;&gt;Node36</title>
<path fill="none" stroke="#191970" d="M717.5,-184.9005C717.5,-175.149 717.5,-159.7597 717.5,-147.3695"/>
<polygon fill="#191970" stroke="#191970" points="721.0001,-147.0816 717.5,-137.0817 714.0001,-147.0817 721.0001,-147.0816"/>
</g>
</g>
</svg>
        <g id="navigator" transform="translate(0 0)" fill="#404254">
                <rect fill="#f2f5e9" fill-opacity="0.5" stroke="#606060" stroke-width=".5" x="0" y="0" width="60" height="60"/>
                <use id="zoomplus" xlink:href="#zoomPlus" x="17" y="9" onmousedown="handleZoom(evt,'in')"/>
                <use id="zoomminus" xlink:href="#zoomMin" x="42" y="9" onmousedown="handleZoom(evt,'out')"/>
                <use id="reset" xlink:href="#resetDef" x="30" y="36" onmousedown="handleReset()"/>
                <g id="arrowUp" xlink:href="#dirArrow" transform="translate(30 24)" onmousedown="handlePan(0,-1)">
                  <use xlink:href="#rim" fill="#404040">
                        <set attributeName="fill" to="#808080" begin="arrowUp.mouseover" end="arrowUp.mouseout"/>
                  </use>
                  <path fill="none" stroke="white" stroke-width="1.5" d="M0,-3.0v7 M-2.5,-0.5L0,-3.0L2.5,-0.5"/>
                </g>
                <g id="arrowRight" xlink:href="#dirArrow" transform="rotate(90) translate(36 -43)" onmousedown="handlePan(1,0)">
                  <use xlink:href="#rim" fill="#404040">
                        <set attributeName="fill" to="#808080" begin="arrowRight.mouseover" end="arrowRight.mouseout"/>
                  </use>
                  <path fill="none" stroke="white" stroke-width="1.5" d="M0,-3.0v7 M-2.5,-0.5L0,-3.0L2.5,-0.5"/>
                </g>
                <g id="arrowDown" xlink:href="#dirArrow" transform="rotate(180) translate(-30 -48)" onmousedown="handlePan(0,1)">
                  <use xlink:href="#rim" fill="#404040">
                        <set attributeName="fill" to="#808080" begin="arrowDown.mouseover" end="arrowDown.mouseout"/>
                  </use>
                  <path fill="none" stroke="white" stroke-width="1.5" d="M0,-3.0v7 M-2.5,-0.5L0,-3.0L2.5,-0.5"/>
                </g>
                <g id="arrowLeft" xlink:href="#dirArrow" transform="rotate(270) translate(-36 17)" onmousedown="handlePan(-1,0)">
                  <use xlink:href="#rim" fill="#404040">
                        <set attributeName="fill" to="#808080" begin="arrowLeft.mouseover" end="arrowLeft.mouseout"/>
                  </use>
                  <path fill="none" stroke="white" stroke-width="1.5" d="M0,-3.0v7 M-2.5,-0.5L0,-3.0L2.5,-0.5"/>
                </g>
        </g>
        <svg viewBox="0 0 15 15" width="100%" height="30px" preserveAspectRatio="xMaxYMin meet">
         <g id="arrow_out" transform="scale(0.3 0.3)">
          <a xlink:href="_post_processing_8cpp__incl_org.svg" target="_base">
           <rect id="button" ry="5" rx="5" y="6" x="6" height="38" width="38"
                fill="#f2f5e9" fill-opacity="0.5" stroke="#606060" stroke-width="1.0"/>
           <path id="arrow"
             d="M 11.500037,31.436501 C 11.940474,20.09759 22.043105,11.32322 32.158766,21.979434 L 37.068811,17.246167 C 37.068811,17.246167 37.088388,32 37.088388,32 L 22.160133,31.978069 C 22.160133,31.978069 26.997745,27.140456 26.997745,27.140456 C 18.528582,18.264221 13.291696,25.230495 11.500037,31.436501 z"
             style="fill:#404040;"/>
          </a>
         </g>
        </svg>
</svg>
