<?xml version="1.0" encoding="UTF-8" standalone="no"?>
<!DOCTYPE svg PUBLIC "-//W3C//DTD SVG 1.1//EN"
 "http://www.w3.org/Graphics/SVG/1.1/DTD/svg11.dtd">
<!-- Generated by graphviz version 2.40.1 (20161225.0304)
 -->
<!-- Title: Smagorinsky.H Pages: 1 -->
<svg width="2607pt" height="475pt"
 viewBox="0.00 0.00 2606.73 475.00" xmlns="http://www.w3.org/2000/svg" xmlns:xlink="http://www.w3.org/1999/xlink">
<g id="graph0" class="graph" transform="scale(1 1) rotate(0) translate(4 471)">
<title>Smagorinsky.H</title>
<polygon fill="#ffffff" stroke="transparent" points="-4,4 -4,-471 2602.7253,-471 2602.7253,4 -4,4"/>
<!-- Node0 -->
<g id="node1" class="node">
<title>Node0</title>
<polygon fill="#bfbfbf" stroke="#000000" points="1000.7253,-447.5 1000.7253,-466.5 1089.7253,-466.5 1089.7253,-447.5 1000.7253,-447.5"/>
<text text-anchor="middle" x="1045.2253" y="-454.5" font-family="Helvetica,sans-Serif" font-size="10.00" fill="#000000">Smagorinsky.H</text>
</g>
<!-- Node1 -->
<g id="node2" class="node">
<title>Node1</title>
<polygon fill="#ffffff" stroke="#bfbfbf" points="1363.2253,-.5 1363.2253,-19.5 1407.2253,-19.5 1407.2253,-.5 1363.2253,-.5"/>
<text text-anchor="middle" x="1385.2253" y="-7.5" font-family="Helvetica,sans-Serif" font-size="10.00" fill="#000000">string</text>
</g>
<!-- Node0&#45;&gt;Node1 -->
<g id="edge1" class="edge">
<title>Node0&#45;&gt;Node1</title>
<path fill="none" stroke="#191970" d="M1045.2253,-447.3281C1045.2253,-425.9175 1045.2253,-372.895 1045.2253,-328.5 1045.2253,-328.5 1045.2253,-328.5 1045.2253,-138.5 1045.2253,-100.8735 1036.5254,-81.465 1064.2253,-56 1085.3038,-36.6221 1275.586,-18.9938 1352.8442,-12.5711"/>
<polygon fill="#191970" stroke="#191970" points="1353.2861,-16.0467 1362.9662,-11.7402 1352.7133,-9.0702 1353.2861,-16.0467"/>
</g>
<!-- Node2 -->
<g id="node3" class="node">
<title>Node2</title>
<g id="a_node3"><a xlink:href="_turb_model_base_8_h.html" target="_top" xlink:title="amr&#45;wind/turbulence\l/TurbModelBase.H">
<polygon fill="#ffffff" stroke="#000000" points="1317.7253,-380.5 1317.7253,-410.5 1434.7253,-410.5 1434.7253,-380.5 1317.7253,-380.5"/>
<text text-anchor="start" x="1325.7253" y="-398.5" font-family="Helvetica,sans-Serif" font-size="10.00" fill="#000000">amr&#45;wind/turbulence</text>
<text text-anchor="middle" x="1376.2253" y="-387.5" font-family="Helvetica,sans-Serif" font-size="10.00" fill="#000000">/TurbModelBase.H</text>
</a>
</g>
</g>
<!-- Node0&#45;&gt;Node2 -->
<g id="edge2" class="edge">
<title>Node0&#45;&gt;Node2</title>
<path fill="none" stroke="#191970" d="M1089.8655,-448.7058C1145.7272,-438.3267 1241.9818,-420.4425 1307.3253,-408.3017"/>
<polygon fill="#191970" stroke="#191970" points="1308.3438,-411.6724 1317.5362,-406.4045 1307.0651,-404.7902 1308.3438,-411.6724"/>
</g>
<!-- Node18 -->
<g id="node19" class="node">
<title>Node18</title>
<g id="a_node19"><a xlink:href="_field_repo_8_h.html" target="_top" xlink:title="amr&#45;wind/core/FieldRepo.H">
<polygon fill="#ffffff" stroke="#000000" points="871.2253,-196 871.2253,-215 1017.2253,-215 1017.2253,-196 871.2253,-196"/>
<text text-anchor="middle" x="944.2253" y="-203" font-family="Helvetica,sans-Serif" font-size="10.00" fill="#000000">amr&#45;wind/core/FieldRepo.H</text>
</a>
</g>
</g>
<!-- Node0&#45;&gt;Node18 -->
<g id="edge81" class="edge">
<title>Node0&#45;&gt;Node18</title>
<path fill="none" stroke="#191970" d="M1041.3893,-447.448C1026.4531,-410.2554 972.0152,-274.6994 951.8267,-224.4283"/>
<polygon fill="#191970" stroke="#191970" points="955.0397,-223.0369 948.0651,-215.0615 948.5439,-225.6455 955.0397,-223.0369"/>
</g>
<!-- Node3 -->
<g id="node4" class="node">
<title>Node3</title>
<g id="a_node4"><a xlink:href="_turb_model_8_h.html" target="_top" xlink:title="amr&#45;wind/turbulence\l/TurbModel.H">
<polygon fill="#ffffff" stroke="#000000" points="1604.7253,-313.5 1604.7253,-343.5 1721.7253,-343.5 1721.7253,-313.5 1604.7253,-313.5"/>
<text text-anchor="start" x="1612.7253" y="-331.5" font-family="Helvetica,sans-Serif" font-size="10.00" fill="#000000">amr&#45;wind/turbulence</text>
<text text-anchor="middle" x="1663.2253" y="-320.5" font-family="Helvetica,sans-Serif" font-size="10.00" fill="#000000">/TurbModel.H</text>
</a>
</g>
</g>
<!-- Node2&#45;&gt;Node3 -->
<g id="edge3" class="edge">
<title>Node2&#45;&gt;Node3</title>
<path fill="none" stroke="#191970" d="M1434.9966,-381.7799C1481.3311,-370.9631 1546.0268,-355.8599 1594.71,-344.4949"/>
<polygon fill="#191970" stroke="#191970" points="1595.5902,-347.8836 1604.5326,-342.2018 1593.9988,-341.0669 1595.5902,-347.8836"/>
</g>
<!-- Node39 -->
<g id="node40" class="node">
<title>Node39</title>
<g id="a_node40"><a xlink:href="_i_o_manager_8_h.html" target="_top" xlink:title="amr&#45;wind/utilities\l/IOManager.H">
<polygon fill="#ffffff" stroke="#000000" points="2047.2253,-56.5 2047.2253,-86.5 2149.2253,-86.5 2149.2253,-56.5 2047.2253,-56.5"/>
<text text-anchor="start" x="2055.2253" y="-74.5" font-family="Helvetica,sans-Serif" font-size="10.00" fill="#000000">amr&#45;wind/utilities</text>
<text text-anchor="middle" x="2098.2253" y="-63.5" font-family="Helvetica,sans-Serif" font-size="10.00" fill="#000000">/IOManager.H</text>
</a>
</g>
</g>
<!-- Node2&#45;&gt;Node39 -->
<g id="edge73" class="edge">
<title>Node2&#45;&gt;Node39</title>
<path fill="none" stroke="#191970" d="M1434.7813,-394.3112C1577.7889,-389.8268 1933.2253,-368.4743 1933.2253,-267 1933.2253,-267 1933.2253,-267 1933.2253,-205.5 1933.2253,-147.8976 1994.5697,-110.7212 2042.4501,-90.4773"/>
<polygon fill="#191970" stroke="#191970" points="2043.8873,-93.6712 2051.8245,-86.6533 2041.2433,-87.1897 2043.8873,-93.6712"/>
</g>
<!-- Node41 -->
<g id="node42" class="node">
<title>Node41</title>
<g id="a_node42"><a xlink:href="field__ops_8_h.html" target="_top" xlink:title="amr&#45;wind/core/field\l_ops.H">
<polygon fill="#ffffff" stroke="#000000" points="743.2253,-190.5 743.2253,-220.5 853.2253,-220.5 853.2253,-190.5 743.2253,-190.5"/>
<text text-anchor="start" x="751.2253" y="-208.5" font-family="Helvetica,sans-Serif" font-size="10.00" fill="#000000">amr&#45;wind/core/field</text>
<text text-anchor="middle" x="798.2253" y="-197.5" font-family="Helvetica,sans-Serif" font-size="10.00" fill="#000000">_ops.H</text>
</a>
</g>
</g>
<!-- Node2&#45;&gt;Node41 -->
<g id="edge78" class="edge">
<title>Node2&#45;&gt;Node41</title>
<path fill="none" stroke="#191970" d="M1330.3875,-380.4322C1225.3108,-345.8914 967.377,-261.1035 853.6381,-223.7153"/>
<polygon fill="#191970" stroke="#191970" points="854.6608,-220.3673 844.0679,-220.5693 852.4748,-227.0172 854.6608,-220.3673"/>
</g>
<!-- Node4 -->
<g id="node5" class="node">
<title>Node4</title>
<g id="a_node5"><a xlink:href="_turbulence_model_8_h.html" target="_top" xlink:title="amr&#45;wind/turbulence\l/TurbulenceModel.H">
<polygon fill="#ffffff" stroke="#000000" points="2391.7253,-123.5 2391.7253,-153.5 2508.7253,-153.5 2508.7253,-123.5 2391.7253,-123.5"/>
<text text-anchor="start" x="2399.7253" y="-141.5" font-family="Helvetica,sans-Serif" font-size="10.00" fill="#000000">amr&#45;wind/turbulence</text>
<text text-anchor="middle" x="2450.2253" y="-130.5" font-family="Helvetica,sans-Serif" font-size="10.00" fill="#000000">/TurbulenceModel.H</text>
</a>
</g>
</g>
<!-- Node3&#45;&gt;Node4 -->
<g id="edge4" class="edge">
<title>Node3&#45;&gt;Node4</title>
<path fill="none" stroke="#191970" d="M1721.9034,-318.681C1819.8661,-301.8144 2022.6106,-264.8838 2191.2253,-221 2263.7344,-202.1287 2345.9245,-174.9328 2397.8985,-156.9964"/>
<polygon fill="#191970" stroke="#191970" points="2399.2574,-160.2298 2407.5603,-153.6485 2396.9655,-153.6156 2399.2574,-160.2298"/>
</g>
<!-- Node12 -->
<g id="node13" class="node">
<title>Node12</title>
<g id="a_node13"><a xlink:href="_c_f_d_sim_8_h.html" target="_top" xlink:title="amr&#45;wind/CFDSim.H">
<polygon fill="#ffffff" stroke="#000000" points="1606.2253,-257.5 1606.2253,-276.5 1720.2253,-276.5 1720.2253,-257.5 1606.2253,-257.5"/>
<text text-anchor="middle" x="1663.2253" y="-264.5" font-family="Helvetica,sans-Serif" font-size="10.00" fill="#000000">amr&#45;wind/CFDSim.H</text>
</a>
</g>
</g>
<!-- Node3&#45;&gt;Node12 -->
<g id="edge13" class="edge">
<title>Node3&#45;&gt;Node12</title>
<path fill="none" stroke="#191970" d="M1663.2253,-313.2977C1663.2253,-305.3834 1663.2253,-295.6043 1663.2253,-287.0759"/>
<polygon fill="#191970" stroke="#191970" points="1666.7254,-286.8469 1663.2253,-276.8469 1659.7254,-286.847 1666.7254,-286.8469"/>
</g>
<!-- Node5 -->
<g id="node6" class="node">
<title>Node5</title>
<polygon fill="#ffffff" stroke="#bfbfbf" points="2130.7253,-.5 2130.7253,-19.5 2223.7253,-19.5 2223.7253,-.5 2130.7253,-.5"/>
<text text-anchor="middle" x="2177.2253" y="-7.5" font-family="Helvetica,sans-Serif" font-size="10.00" fill="#000000">unordered_map</text>
</g>
<!-- Node4&#45;&gt;Node5 -->
<g id="edge5" class="edge">
<title>Node4&#45;&gt;Node5</title>
<path fill="none" stroke="#191970" d="M2391.4045,-124.1685C2348.0092,-113.0949 2293.0407,-97.8733 2272.2253,-87 2255.9687,-78.5081 2218.3811,-46.4035 2195.6616,-26.4282"/>
<polygon fill="#191970" stroke="#191970" points="2197.8417,-23.6839 2188.031,-19.6838 2193.2059,-28.9289 2197.8417,-23.6839"/>
</g>
<!-- Node6 -->
<g id="node7" class="node">
<title>Node6</title>
<g id="a_node7"><a xlink:href="_factory_8_h.html" target="_top" xlink:title="amr&#45;wind/core/Factory.H">
<polygon fill="#ffffff" stroke="#000000" points="2281.2253,-62 2281.2253,-81 2415.2253,-81 2415.2253,-62 2281.2253,-62"/>
<text text-anchor="middle" x="2348.2253" y="-69" font-family="Helvetica,sans-Serif" font-size="10.00" fill="#000000">amr&#45;wind/core/Factory.H</text>
</a>
</g>
</g>
<!-- Node4&#45;&gt;Node6 -->
<g id="edge6" class="edge">
<title>Node4&#45;&gt;Node6</title>
<path fill="none" stroke="#191970" d="M2427.3345,-123.4639C2410.6828,-112.526 2388.217,-97.769 2371.4811,-86.7759"/>
<polygon fill="#191970" stroke="#191970" points="2373.1259,-83.6688 2362.8462,-81.1039 2369.2828,-89.5195 2373.1259,-83.6688"/>
</g>
<!-- Node11 -->
<g id="node12" class="node">
<title>Node11</title>
<g id="a_node12"><a xlink:href="_field_desc_types_8_h.html" target="_top" xlink:title="amr&#45;wind/core/FieldDescTypes.H">
<polygon fill="#ffffff" stroke="#000000" points="711.2253,-.5 711.2253,-19.5 885.2253,-19.5 885.2253,-.5 711.2253,-.5"/>
<text text-anchor="middle" x="798.2253" y="-7.5" font-family="Helvetica,sans-Serif" font-size="10.00" fill="#000000">amr&#45;wind/core/FieldDescTypes.H</text>
</a>
</g>
</g>
<!-- Node4&#45;&gt;Node11 -->
<g id="edge12" class="edge">
<title>Node4&#45;&gt;Node11</title>
<path fill="none" stroke="#191970" d="M2391.3574,-124.5059C2388.2769,-123.9541 2385.2193,-123.4468 2382.2253,-123 2162.7449,-90.2467 2101.2175,-133.4634 1884.2253,-87 1844.9048,-78.5805 1838.6529,-63.9029 1799.2253,-56 1628.3768,-21.7551 1111.9862,-12.9374 895.4396,-10.7217"/>
<polygon fill="#191970" stroke="#191970" points="895.3915,-7.2211 885.3571,-10.6211 895.3216,-14.2208 895.3915,-7.2211"/>
</g>
<!-- Node6&#45;&gt;Node5 -->
<g id="edge8" class="edge">
<title>Node6&#45;&gt;Node5</title>
<path fill="none" stroke="#191970" d="M2321.5066,-61.8906C2292.3932,-51.42 2245.6561,-34.6111 2213.3006,-22.9745"/>
<polygon fill="#191970" stroke="#191970" points="2214.3509,-19.6328 2203.7564,-19.5419 2211.9819,-26.2197 2214.3509,-19.6328"/>
</g>
<!-- Node7 -->
<g id="node8" class="node">
<title>Node7</title>
<polygon fill="#ffffff" stroke="#bfbfbf" points="1932.2253,-.5 1932.2253,-19.5 1990.2253,-19.5 1990.2253,-.5 1932.2253,-.5"/>
<text text-anchor="middle" x="1961.2253" y="-7.5" font-family="Helvetica,sans-Serif" font-size="10.00" fill="#000000">memory</text>
</g>
<!-- Node6&#45;&gt;Node7 -->
<g id="edge7" class="edge">
<title>Node6&#45;&gt;Node7</title>
<path fill="none" stroke="#191970" d="M2288.1812,-61.9581C2208.1755,-49.244 2068.8226,-27.0988 2000.8239,-16.2928"/>
<polygon fill="#191970" stroke="#191970" points="2000.9686,-12.772 1990.5432,-14.659 1999.87,-19.6852 2000.9686,-12.772"/>
</g>
<!-- Node8 -->
<g id="node9" class="node">
<title>Node8</title>
<polygon fill="#ffffff" stroke="#bfbfbf" points="2321.2253,-.5 2321.2253,-19.5 2381.2253,-19.5 2381.2253,-.5 2321.2253,-.5"/>
<text text-anchor="middle" x="2351.2253" y="-7.5" font-family="Helvetica,sans-Serif" font-size="10.00" fill="#000000">iostream</text>
</g>
<!-- Node6&#45;&gt;Node8 -->
<g id="edge9" class="edge">
<title>Node6&#45;&gt;Node8</title>
<path fill="none" stroke="#191970" d="M2348.6941,-61.8906C2349.1099,-53.3657 2349.7307,-40.6392 2350.2534,-29.9235"/>
<polygon fill="#191970" stroke="#191970" points="2353.7585,-29.9035 2350.75,-19.7449 2346.7668,-29.5624 2353.7585,-29.9035"/>
</g>
<!-- Node9 -->
<g id="node10" class="node">
<title>Node9</title>
<polygon fill="#ffffff" stroke="#bfbfbf" points="2399.7253,-.5 2399.7253,-19.5 2488.7253,-19.5 2488.7253,-.5 2399.7253,-.5"/>
<text text-anchor="middle" x="2444.2253" y="-7.5" font-family="Helvetica,sans-Serif" font-size="10.00" fill="#000000">AMReX_Print.H</text>
</g>
<!-- Node6&#45;&gt;Node9 -->
<g id="edge10" class="edge">
<title>Node6&#45;&gt;Node9</title>
<path fill="none" stroke="#191970" d="M2363.2253,-61.8906C2378.5834,-52.0519 2402.6774,-36.6167 2420.5999,-25.1351"/>
<polygon fill="#191970" stroke="#191970" points="2422.7983,-27.8833 2429.3307,-19.5419 2419.0223,-21.9891 2422.7983,-27.8833"/>
</g>
<!-- Node10 -->
<g id="node11" class="node">
<title>Node10</title>
<polygon fill="#ffffff" stroke="#bfbfbf" points="2241.7253,-.5 2241.7253,-19.5 2302.7253,-19.5 2302.7253,-.5 2241.7253,-.5"/>
<text text-anchor="middle" x="2272.2253" y="-7.5" font-family="Helvetica,sans-Serif" font-size="10.00" fill="#000000">AMReX.H</text>
</g>
<!-- Node6&#45;&gt;Node10 -->
<g id="edge11" class="edge">
<title>Node6&#45;&gt;Node10</title>
<path fill="none" stroke="#191970" d="M2336.3503,-61.8906C2324.5956,-52.3786 2306.3767,-37.6357 2292.3582,-26.2917"/>
<polygon fill="#191970" stroke="#191970" points="2294.2431,-23.3146 2284.2677,-19.7449 2289.8397,-28.7562 2294.2431,-23.3146"/>
</g>
<!-- Node13 -->
<g id="node14" class="node">
<title>Node13</title>
<polygon fill="#ffffff" stroke="#bfbfbf" points="1459.7253,-129 1459.7253,-148 1568.7253,-148 1568.7253,-129 1459.7253,-129"/>
<text text-anchor="middle" x="1514.2253" y="-136" font-family="Helvetica,sans-Serif" font-size="10.00" fill="#000000">AMReX_AmrCore.H</text>
</g>
<!-- Node12&#45;&gt;Node13 -->
<g id="edge14" class="edge">
<title>Node12&#45;&gt;Node13</title>
<path fill="none" stroke="#191970" d="M1652.0261,-257.3416C1626.6782,-235.4812 1564.6772,-182.0105 1533.2107,-154.8733"/>
<polygon fill="#191970" stroke="#191970" points="1535.4131,-152.1509 1525.5545,-148.2705 1530.8415,-157.4519 1535.4131,-152.1509"/>
</g>
<!-- Node14 -->
<g id="node15" class="node">
<title>Node14</title>
<g id="a_node15"><a xlink:href="_sim_time_8_h.html" target="_top" xlink:title="amr&#45;wind/core/SimTime.H">
<polygon fill="#ffffff" stroke="#000000" points="2038.7253,-196 2038.7253,-215 2181.7253,-215 2181.7253,-196 2038.7253,-196"/>
<text text-anchor="middle" x="2110.2253" y="-203" font-family="Helvetica,sans-Serif" font-size="10.00" fill="#000000">amr&#45;wind/core/SimTime.H</text>
</a>
</g>
</g>
<!-- Node12&#45;&gt;Node14 -->
<g id="edge15" class="edge">
<title>Node12&#45;&gt;Node14</title>
<path fill="none" stroke="#191970" d="M1720.2922,-259.1485C1799.1589,-248.2977 1941.8124,-228.6709 2030.9798,-216.4029"/>
<polygon fill="#191970" stroke="#191970" points="2031.6145,-219.8486 2041.0441,-215.0182 2030.6604,-212.914 2031.6145,-219.8486"/>
</g>
<!-- Node12&#45;&gt;Node18 -->
<g id="edge19" class="edge">
<title>Node12&#45;&gt;Node18</title>
<path fill="none" stroke="#191970" d="M1606.2056,-262.1228C1479.7857,-251.3094 1175.4957,-225.2818 1027.6521,-212.636"/>
<polygon fill="#191970" stroke="#191970" points="1027.5443,-209.114 1017.2824,-211.749 1026.9477,-216.0886 1027.5443,-209.114"/>
</g>
<!-- Node33 -->
<g id="node34" class="node">
<title>Node33</title>
<g id="a_node34"><a xlink:href="_p_d_e_base_8_h.html" target="_top" xlink:title="amr&#45;wind/equation_systems\l/PDEBase.H">
<polygon fill="#ffffff" stroke="#000000" points="1749.7253,-123.5 1749.7253,-153.5 1904.7253,-153.5 1904.7253,-123.5 1749.7253,-123.5"/>
<text text-anchor="start" x="1757.7253" y="-141.5" font-family="Helvetica,sans-Serif" font-size="10.00" fill="#000000">amr&#45;wind/equation_systems</text>
<text text-anchor="middle" x="1827.2253" y="-130.5" font-family="Helvetica,sans-Serif" font-size="10.00" fill="#000000">/PDEBase.H</text>
</a>
</g>
</g>
<!-- Node12&#45;&gt;Node33 -->
<g id="edge56" class="edge">
<title>Node12&#45;&gt;Node33</title>
<path fill="none" stroke="#191970" d="M1675.552,-257.3416C1701.7581,-236.8081 1763.5583,-188.3855 1799.6667,-160.0932"/>
<polygon fill="#191970" stroke="#191970" points="1802.1112,-162.6243 1807.824,-153.7016 1797.7938,-157.1142 1802.1112,-162.6243"/>
</g>
<!-- Node37 -->
<g id="node38" class="node">
<title>Node37</title>
<g id="a_node38"><a xlink:href="_physics_8_h.html" target="_top" xlink:title="amr&#45;wind/core/Physics.H">
<polygon fill="#ffffff" stroke="#000000" points="1594.7253,-129 1594.7253,-148 1731.7253,-148 1731.7253,-129 1594.7253,-129"/>
<text text-anchor="middle" x="1663.2253" y="-136" font-family="Helvetica,sans-Serif" font-size="10.00" fill="#000000">amr&#45;wind/core/Physics.H</text>
</a>
</g>
</g>
<!-- Node12&#45;&gt;Node37 -->
<g id="edge68" class="edge">
<title>Node12&#45;&gt;Node37</title>
<path fill="none" stroke="#191970" d="M1663.2253,-257.3416C1663.2253,-236.4114 1663.2253,-186.504 1663.2253,-158.4762"/>
<polygon fill="#191970" stroke="#191970" points="1666.7254,-158.2704 1663.2253,-148.2705 1659.7254,-158.2705 1666.7254,-158.2704"/>
</g>
<!-- Node15 -->
<g id="node16" class="node">
<title>Node15</title>
<polygon fill="#ffffff" stroke="#bfbfbf" points="1999.7253,-129 1999.7253,-148 2090.7253,-148 2090.7253,-129 1999.7253,-129"/>
<text text-anchor="middle" x="2045.2253" y="-136" font-family="Helvetica,sans-Serif" font-size="10.00" fill="#000000">AMReX_REAL.H</text>
</g>
<!-- Node14&#45;&gt;Node15 -->
<g id="edge16" class="edge">
<title>Node14&#45;&gt;Node15</title>
<path fill="none" stroke="#191970" d="M2100.9124,-195.9005C2090.6797,-185.353 2074.0481,-168.2096 2061.6207,-155.3998"/>
<polygon fill="#191970" stroke="#191970" points="2063.9962,-152.822 2054.521,-148.0817 2058.972,-157.6962 2063.9962,-152.822"/>
</g>
<!-- Node16 -->
<g id="node17" class="node">
<title>Node16</title>
<polygon fill="#ffffff" stroke="#bfbfbf" points="2109.2253,-129 2109.2253,-148 2241.2253,-148 2241.2253,-129 2109.2253,-129"/>
<text text-anchor="middle" x="2175.2253" y="-136" font-family="Helvetica,sans-Serif" font-size="10.00" fill="#000000">AMReX_GpuQualifiers.H</text>
</g>
<!-- Node14&#45;&gt;Node16 -->
<g id="edge17" class="edge">
<title>Node14&#45;&gt;Node16</title>
<path fill="none" stroke="#191970" d="M2119.5382,-195.9005C2129.771,-185.353 2146.4026,-168.2096 2158.83,-155.3998"/>
<polygon fill="#191970" stroke="#191970" points="2161.4786,-157.6962 2165.9297,-148.0817 2156.4544,-152.822 2161.4786,-157.6962"/>
</g>
<!-- Node17 -->
<g id="node18" class="node">
<title>Node17</title>
<polygon fill="#ffffff" stroke="#bfbfbf" points="2259.2253,-129 2259.2253,-148 2373.2253,-148 2373.2253,-129 2259.2253,-129"/>
<text text-anchor="middle" x="2316.2253" y="-136" font-family="Helvetica,sans-Serif" font-size="10.00" fill="#000000">AMReX_Extension.H</text>
</g>
<!-- Node14&#45;&gt;Node17 -->
<g id="edge18" class="edge">
<title>Node14&#45;&gt;Node17</title>
<path fill="none" stroke="#191970" d="M2139.7401,-195.9005C2175.8413,-184.1589 2237.0735,-164.2436 2277.0797,-151.2318"/>
<polygon fill="#191970" stroke="#191970" points="2278.3382,-154.5031 2286.7653,-148.0817 2276.1731,-147.8463 2278.3382,-154.5031"/>
</g>
<!-- Node18&#45;&gt;Node1 -->
<g id="edge20" class="edge">
<title>Node18&#45;&gt;Node1</title>
<path fill="none" stroke="#191970" d="M1017.2588,-197.9501C1077.7022,-190.4729 1165.3209,-176.7777 1239.2253,-154 1308.2265,-132.7335 1348.0887,-147.6775 1387.2253,-87 1398.1657,-70.038 1395.51,-46.3102 1391.4874,-29.6914"/>
<polygon fill="#191970" stroke="#191970" points="1394.8269,-28.6363 1388.7758,-19.9395 1388.0828,-30.5116 1394.8269,-28.6363"/>
</g>
<!-- Node18&#45;&gt;Node5 -->
<g id="edge21" class="edge">
<title>Node18&#45;&gt;Node5</title>
<path fill="none" stroke="#191970" d="M1017.4394,-204.723C1212.8611,-202.1535 1743.5013,-191.7997 1914.2253,-154 1950.2446,-146.025 1955.8269,-133.3894 1991.2253,-123 2073.2746,-98.9186 2125.71,-152.8793 2180.2253,-87 2193.4333,-71.0388 2189.5639,-46.2116 2184.4449,-29.0856"/>
<polygon fill="#191970" stroke="#191970" points="2187.7472,-27.9247 2181.2377,-19.5655 2181.1135,-30.1596 2187.7472,-27.9247"/>
</g>
<!-- Node18&#45;&gt;Node11 -->
<g id="edge22" class="edge">
<title>Node18&#45;&gt;Node11</title>
<path fill="none" stroke="#191970" d="M898.8359,-195.9297C886.9655,-193.6993 874.1526,-191.5315 862.2253,-190 746.4569,-175.1346 447.9071,-193.915 338.2253,-154 290.6922,-136.7019 269.1641,-132.0825 246.2253,-87 239.9772,-74.7204 236.8963,-66.1388 246.2253,-56 261.3725,-39.538 546.2045,-22.7012 700.6223,-14.7339"/>
<polygon fill="#191970" stroke="#191970" points="701.2475,-18.2065 711.0551,-14.1988 700.8889,-11.2157 701.2475,-18.2065"/>
</g>
<!-- Node18&#45;&gt;Node13 -->
<g id="edge53" class="edge">
<title>Node18&#45;&gt;Node13</title>
<path fill="none" stroke="#191970" d="M1017.5885,-200.0162C1114.1412,-192.3011 1288.9872,-176.6109 1437.2253,-154 1444.7237,-152.8563 1452.599,-151.4778 1460.3332,-150.0205"/>
<polygon fill="#191970" stroke="#191970" points="1461.2254,-153.4128 1470.3759,-148.0726 1459.8924,-146.5408 1461.2254,-153.4128"/>
</g>
<!-- Node19 -->
<g id="node20" class="node">
<title>Node19</title>
<g id="a_node20"><a xlink:href="_field_utils_8_h.html" target="_top" xlink:title="amr&#45;wind/core/FieldUtils.H">
<polygon fill="#ffffff" stroke="#000000" points="15.7253,-62 15.7253,-81 160.7253,-81 160.7253,-62 15.7253,-62"/>
<text text-anchor="middle" x="88.2253" y="-69" font-family="Helvetica,sans-Serif" font-size="10.00" fill="#000000">amr&#45;wind/core/FieldUtils.H</text>
</a>
</g>
</g>
<!-- Node18&#45;&gt;Node19 -->
<g id="edge23" class="edge">
<title>Node18&#45;&gt;Node19</title>
<path fill="none" stroke="#191970" d="M899.7088,-195.9582C887.5999,-193.6716 874.4523,-191.4692 862.2253,-190 710.441,-171.7615 315.6977,-214.321 175.2253,-154 143.2138,-140.2537 115.8731,-109.2189 100.7784,-89.3767"/>
<polygon fill="#191970" stroke="#191970" points="103.4744,-87.1349 94.7319,-81.15 97.834,-91.2805 103.4744,-87.1349"/>
</g>
<!-- Node20 -->
<g id="node21" class="node">
<title>Node20</title>
<polygon fill="#ffffff" stroke="#bfbfbf" points="377.7253,-.5 377.7253,-19.5 484.7253,-19.5 484.7253,-.5 377.7253,-.5"/>
<text text-anchor="middle" x="431.2253" y="-7.5" font-family="Helvetica,sans-Serif" font-size="10.00" fill="#000000">AMReX_MultiFab.H</text>
</g>
<!-- Node18&#45;&gt;Node20 -->
<g id="edge54" class="edge">
<title>Node18&#45;&gt;Node20</title>
<path fill="none" stroke="#191970" d="M899.2727,-195.9453C887.2825,-193.687 874.3024,-191.5019 862.2253,-190 796.7197,-181.8536 323.9682,-190.8859 269.2253,-154 231.2274,-128.3969 208.8088,-91.9424 237.2253,-56 253.3428,-35.614 317.2956,-23.317 367.4238,-16.6334"/>
<polygon fill="#191970" stroke="#191970" points="368.0944,-20.0761 377.5673,-15.3311 367.203,-13.1331 368.0944,-20.0761"/>
</g>
<!-- Node22 -->
<g id="node23" class="node">
<title>Node22</title>
<g id="a_node23"><a xlink:href="_field_8_h.html" target="_top" xlink:title="amr&#45;wind/core/Field.H">
<polygon fill="#ffffff" stroke="#000000" points="1108.2253,-129 1108.2253,-148 1230.2253,-148 1230.2253,-129 1108.2253,-129"/>
<text text-anchor="middle" x="1169.2253" y="-136" font-family="Helvetica,sans-Serif" font-size="10.00" fill="#000000">amr&#45;wind/core/Field.H</text>
</a>
</g>
</g>
<!-- Node18&#45;&gt;Node22 -->
<g id="edge27" class="edge">
<title>Node18&#45;&gt;Node22</title>
<path fill="none" stroke="#191970" d="M976.4623,-195.9005C1016.1438,-184.0843 1083.6243,-163.9901 1127.2996,-150.9845"/>
<polygon fill="#191970" stroke="#191970" points="1128.4629,-154.2901 1137.0481,-148.0817 1126.4651,-147.5812 1128.4629,-154.2901"/>
</g>
<!-- Node29 -->
<g id="node30" class="node">
<title>Node29</title>
<g id="a_node30"><a xlink:href="_int_field_8_h.html" target="_top" xlink:title="amr&#45;wind/core/IntField.H">
<polygon fill="#ffffff" stroke="#000000" points="385.7253,-129 385.7253,-148 520.7253,-148 520.7253,-129 385.7253,-129"/>
<text text-anchor="middle" x="453.2253" y="-136" font-family="Helvetica,sans-Serif" font-size="10.00" fill="#000000">amr&#45;wind/core/IntField.H</text>
</a>
</g>
</g>
<!-- Node18&#45;&gt;Node29 -->
<g id="edge42" class="edge">
<title>Node18&#45;&gt;Node29</title>
<path fill="none" stroke="#191970" d="M896.6151,-195.9871C885.362,-193.8812 873.3888,-191.7562 862.2253,-190 747.3597,-171.9296 613.5523,-156.0524 531.1138,-146.8632"/>
<polygon fill="#191970" stroke="#191970" points="531.3968,-143.3732 521.0717,-145.7486 530.6245,-150.3305 531.3968,-143.3732"/>
</g>
<!-- Node30 -->
<g id="node31" class="node">
<title>Node30</title>
<polygon fill="#ffffff" stroke="#bfbfbf" points="255.2253,-62 255.2253,-81 365.2253,-81 365.2253,-62 255.2253,-62"/>
<text text-anchor="middle" x="310.2253" y="-69" font-family="Helvetica,sans-Serif" font-size="10.00" fill="#000000">AMReX_iMultiFab.H</text>
</g>
<!-- Node18&#45;&gt;Node30 -->
<g id="edge55" class="edge">
<title>Node18&#45;&gt;Node30</title>
<path fill="none" stroke="#191970" d="M898.8302,-195.9734C886.9599,-193.7424 874.1485,-191.5634 862.2253,-190 754.8486,-175.9204 472.0321,-204.4882 376.2253,-154 349.4337,-139.8814 329.7474,-109.6581 319.1454,-89.9761"/>
<polygon fill="#191970" stroke="#191970" points="322.2363,-88.3331 314.5592,-81.0314 316.0073,-91.5268 322.2363,-88.3331"/>
</g>
<!-- Node31 -->
<g id="node32" class="node">
<title>Node31</title>
<g id="a_node32"><a xlink:href="_scratch_field_8_h.html" target="_top" xlink:title="amr&#45;wind/core/ScratchField.H">
<polygon fill="#ffffff" stroke="#000000" points="688.2253,-129 688.2253,-148 846.2253,-148 846.2253,-129 688.2253,-129"/>
<text text-anchor="middle" x="767.2253" y="-136" font-family="Helvetica,sans-Serif" font-size="10.00" fill="#000000">amr&#45;wind/core/ScratchField.H</text>
</a>
</g>
</g>
<!-- Node18&#45;&gt;Node31 -->
<g id="edge46" class="edge">
<title>Node18&#45;&gt;Node31</title>
<path fill="none" stroke="#191970" d="M918.8655,-195.9005C888.2409,-184.3082 836.5685,-164.7486 802.1798,-151.7313"/>
<polygon fill="#191970" stroke="#191970" points="803.1295,-148.3486 792.5381,-148.0817 800.6514,-154.8952 803.1295,-148.3486"/>
</g>
<!-- Node19&#45;&gt;Node11 -->
<g id="edge24" class="edge">
<title>Node19&#45;&gt;Node11</title>
<path fill="none" stroke="#191970" d="M160.5412,-61.9728C177.7884,-59.8557 196.1466,-57.7295 213.2253,-56 384.4207,-38.664 584.3674,-24.1798 700.6048,-16.3307"/>
<polygon fill="#191970" stroke="#191970" points="701.155,-19.8017 710.8975,-15.6382 700.6851,-12.8175 701.155,-19.8017"/>
</g>
<!-- Node19&#45;&gt;Node20 -->
<g id="edge25" class="edge">
<title>Node19&#45;&gt;Node20</title>
<path fill="none" stroke="#191970" d="M141.4427,-61.9581C202.6177,-50.9894 302.942,-33.0012 368.0326,-21.3305"/>
<polygon fill="#191970" stroke="#191970" points="368.94,-24.7237 378.1653,-19.5137 367.7045,-17.8336 368.94,-24.7237"/>
</g>
<!-- Node21 -->
<g id="node22" class="node">
<title>Node21</title>
<polygon fill="#ffffff" stroke="#bfbfbf" points="27.2253,-.5 27.2253,-19.5 149.2253,-19.5 149.2253,-.5 27.2253,-.5"/>
<text text-anchor="middle" x="88.2253" y="-7.5" font-family="Helvetica,sans-Serif" font-size="10.00" fill="#000000">AMReX_Interpolater.H</text>
</g>
<!-- Node19&#45;&gt;Node21 -->
<g id="edge26" class="edge">
<title>Node19&#45;&gt;Node21</title>
<path fill="none" stroke="#191970" d="M88.2253,-61.8906C88.2253,-53.3657 88.2253,-40.6392 88.2253,-29.9235"/>
<polygon fill="#191970" stroke="#191970" points="91.7254,-29.7448 88.2253,-19.7449 84.7254,-29.7449 91.7254,-29.7448"/>
</g>
<!-- Node22&#45;&gt;Node1 -->
<g id="edge28" class="edge">
<title>Node22&#45;&gt;Node1</title>
<path fill="none" stroke="#191970" d="M1230.5086,-129.4634C1281.0122,-120.793 1347.297,-106.1909 1366.2253,-87 1381.1365,-71.8819 1384.9774,-47.0348 1385.6745,-29.667"/>
<polygon fill="#191970" stroke="#191970" points="1389.1757,-29.5417 1385.7634,-19.5114 1382.1759,-29.4803 1389.1757,-29.5417"/>
</g>
<!-- Node22&#45;&gt;Node5 -->
<g id="edge30" class="edge">
<title>Node22&#45;&gt;Node5</title>
<path fill="none" stroke="#191970" d="M1230.2822,-135.0728C1287.3976,-131.8838 1375.0868,-127.0309 1451.2253,-123 1529.7726,-118.8416 2097.5549,-137.0608 2158.2253,-87 2174.7695,-73.349 2178.2145,-47.7999 2178.3763,-29.8876"/>
<polygon fill="#191970" stroke="#191970" points="2181.8697,-29.5703 2178.1269,-19.6586 2174.8717,-29.7409 2181.8697,-29.5703"/>
</g>
<!-- Node22&#45;&gt;Node7 -->
<g id="edge29" class="edge">
<title>Node22&#45;&gt;Node7</title>
<path fill="none" stroke="#191970" d="M1215.0436,-128.9301C1259.3705,-119.3772 1328.3078,-103.7424 1387.2253,-87 1429.1352,-75.0906 1437.6002,-65.0205 1480.2253,-56 1641.7977,-21.8074 1839.3271,-13.0003 1921.9558,-10.7561"/>
<polygon fill="#191970" stroke="#191970" points="1922.2385,-14.2501 1932.1464,-10.4972 1922.0607,-7.2524 1922.2385,-14.2501"/>
</g>
<!-- Node22&#45;&gt;Node11 -->
<g id="edge36" class="edge">
<title>Node22&#45;&gt;Node11</title>
<path fill="none" stroke="#191970" d="M1145.4322,-128.9425C1105.4178,-113.0035 1021.9818,-80.3437 950.2253,-56 913.9834,-43.7048 872.3552,-31.2188 841.8371,-22.3639"/>
<polygon fill="#191970" stroke="#191970" points="842.5157,-18.9169 831.9372,-19.5056 840.5739,-25.6422 842.5157,-18.9169"/>
</g>
<!-- Node22&#45;&gt;Node20 -->
<g id="edge32" class="edge">
<title>Node22&#45;&gt;Node20</title>
<path fill="none" stroke="#191970" d="M1108.1277,-136.0252C994.3552,-130.7743 754.5586,-116.5034 677.2253,-87 655.2131,-78.6021 655.7014,-65.687 634.2253,-56 589.7954,-35.9594 535.8318,-24.2671 494.714,-17.6893"/>
<polygon fill="#191970" stroke="#191970" points="495.2341,-14.2282 484.8177,-16.1648 494.1682,-21.1466 495.2341,-14.2282"/>
</g>
<!-- Node23 -->
<g id="node24" class="node">
<title>Node23</title>
<polygon fill="#ffffff" stroke="#bfbfbf" points="1073.2253,-62 1073.2253,-81 1137.2253,-81 1137.2253,-62 1073.2253,-62"/>
<text text-anchor="middle" x="1105.2253" y="-69" font-family="Helvetica,sans-Serif" font-size="10.00" fill="#000000">algorithm</text>
</g>
<!-- Node22&#45;&gt;Node23 -->
<g id="edge31" class="edge">
<title>Node22&#45;&gt;Node23</title>
<path fill="none" stroke="#191970" d="M1160.0557,-128.9005C1149.9804,-118.353 1133.6046,-101.2096 1121.3684,-88.3998"/>
<polygon fill="#191970" stroke="#191970" points="1123.8162,-85.8952 1114.3779,-81.0817 1118.7544,-90.7304 1123.8162,-85.8952"/>
</g>
<!-- Node24 -->
<g id="node25" class="node">
<title>Node24</title>
<polygon fill="#ffffff" stroke="#bfbfbf" points="1155.7253,-62 1155.7253,-81 1252.7253,-81 1252.7253,-62 1155.7253,-62"/>
<text text-anchor="middle" x="1204.2253" y="-69" font-family="Helvetica,sans-Serif" font-size="10.00" fill="#000000">AMReX_BCRec.H</text>
</g>
<!-- Node22&#45;&gt;Node24 -->
<g id="edge33" class="edge">
<title>Node22&#45;&gt;Node24</title>
<path fill="none" stroke="#191970" d="M1174.24,-128.9005C1179.49,-118.8505 1187.8682,-102.8122 1194.4356,-90.2403"/>
<polygon fill="#191970" stroke="#191970" points="1197.692,-91.5657 1199.22,-81.0817 1191.4875,-88.3246 1197.692,-91.5657"/>
</g>
<!-- Node25 -->
<g id="node26" class="node">
<title>Node25</title>
<polygon fill="#ffffff" stroke="#bfbfbf" points="1271.2253,-62 1271.2253,-81 1357.2253,-81 1357.2253,-62 1271.2253,-62"/>
<text text-anchor="middle" x="1314.2253" y="-69" font-family="Helvetica,sans-Serif" font-size="10.00" fill="#000000">AMReX_Gpu.H</text>
</g>
<!-- Node22&#45;&gt;Node25 -->
<g id="edge34" class="edge">
<title>Node22&#45;&gt;Node25</title>
<path fill="none" stroke="#191970" d="M1190.0003,-128.9005C1214.6576,-117.5072 1255.9704,-98.4178 1284.1271,-85.4075"/>
<polygon fill="#191970" stroke="#191970" points="1285.8792,-88.4535 1293.4889,-81.0817 1282.943,-82.099 1285.8792,-88.4535"/>
</g>
<!-- Node26 -->
<g id="node27" class="node">
<title>Node26</title>
<g id="a_node27"><a xlink:href="incflo__enums_8_h.html" target="_top" xlink:title="amr&#45;wind/incflo_enums.H">
<polygon fill="#ffffff" stroke="#000000" points="1489.2253,-62 1489.2253,-81 1629.2253,-81 1629.2253,-62 1489.2253,-62"/>
<text text-anchor="middle" x="1559.2253" y="-69" font-family="Helvetica,sans-Serif" font-size="10.00" fill="#000000">amr&#45;wind/incflo_enums.H</text>
</a>
</g>
</g>
<!-- Node22&#45;&gt;Node26 -->
<g id="edge35" class="edge">
<title>Node22&#45;&gt;Node26</title>
<path fill="none" stroke="#191970" d="M1227.3651,-128.9945C1288.955,-118.8595 1389.0142,-102.2077 1475.2253,-87 1482.638,-85.6924 1490.4135,-84.294 1498.1164,-82.8922"/>
<polygon fill="#191970" stroke="#191970" points="1498.9571,-86.2966 1508.1643,-81.0547 1497.6978,-79.4107 1498.9571,-86.2966"/>
</g>
<!-- Node27 -->
<g id="node28" class="node">
<title>Node27</title>
<g id="a_node28"><a xlink:href="_view_field_8_h.html" target="_top" xlink:title="amr&#45;wind/core/ViewField.H">
<polygon fill="#ffffff" stroke="#000000" points="795.2253,-62 795.2253,-81 941.2253,-81 941.2253,-62 795.2253,-62"/>
<text text-anchor="middle" x="868.2253" y="-69" font-family="Helvetica,sans-Serif" font-size="10.00" fill="#000000">amr&#45;wind/core/ViewField.H</text>
</a>
</g>
</g>
<!-- Node22&#45;&gt;Node27 -->
<g id="edge37" class="edge">
<title>Node22&#45;&gt;Node27</title>
<path fill="none" stroke="#191970" d="M1126.419,-128.9717C1072.4116,-116.9501 979.5492,-96.2797 921.147,-83.2799"/>
<polygon fill="#191970" stroke="#191970" points="921.8929,-79.8603 911.3713,-81.1039 920.3719,-86.6931 921.8929,-79.8603"/>
</g>
<!-- Node27&#45;&gt;Node1 -->
<g id="edge38" class="edge">
<title>Node27&#45;&gt;Node1</title>
<path fill="none" stroke="#191970" d="M941.2532,-62.3629C958.3059,-60.2519 976.4,-58.0303 993.2253,-56 1126.6193,-39.9031 1285.6464,-21.4777 1352.7789,-13.7346"/>
<polygon fill="#191970" stroke="#191970" points="1353.5827,-17.1652 1363.1161,-12.543 1352.7811,-10.2113 1353.5827,-17.1652"/>
</g>
<!-- Node27&#45;&gt;Node11 -->
<g id="edge39" class="edge">
<title>Node27&#45;&gt;Node11</title>
<path fill="none" stroke="#191970" d="M857.2878,-61.8906C846.5633,-52.4683 829.9967,-37.9134 817.1352,-26.6137"/>
<polygon fill="#191970" stroke="#191970" points="819.1396,-23.7158 809.317,-19.7449 814.5194,-28.9745 819.1396,-23.7158"/>
</g>
<!-- Node27&#45;&gt;Node20 -->
<g id="edge40" class="edge">
<title>Node27&#45;&gt;Node20</title>
<path fill="none" stroke="#191970" d="M800.4235,-61.9581C717.0834,-50.2295 576.7142,-30.475 495.1775,-19.0001"/>
<polygon fill="#191970" stroke="#191970" points="495.4377,-15.5023 485.0475,-17.5745 494.4621,-22.434 495.4377,-15.5023"/>
</g>
<!-- Node28 -->
<g id="node29" class="node">
<title>Node28</title>
<polygon fill="#ffffff" stroke="#bfbfbf" points="1622.2253,-.5 1622.2253,-19.5 1718.2253,-19.5 1718.2253,-.5 1622.2253,-.5"/>
<text text-anchor="middle" x="1670.2253" y="-7.5" font-family="Helvetica,sans-Serif" font-size="10.00" fill="#000000">AMReX_Vector.H</text>
</g>
<!-- Node27&#45;&gt;Node28 -->
<g id="edge41" class="edge">
<title>Node27&#45;&gt;Node28</title>
<path fill="none" stroke="#191970" d="M939.5409,-61.963C957.0738,-59.8099 975.8111,-57.67 993.2253,-56 1221.7434,-34.0854 1494.6398,-18.8799 1611.9413,-12.8675"/>
<polygon fill="#191970" stroke="#191970" points="1612.3226,-16.3527 1622.1315,-12.3483 1611.9663,-9.3618 1612.3226,-16.3527"/>
</g>
<!-- Node29&#45;&gt;Node1 -->
<g id="edge43" class="edge">
<title>Node29&#45;&gt;Node1</title>
<path fill="none" stroke="#191970" d="M454.1044,-128.8199C456.2988,-110.9676 463.7473,-73.1228 488.2253,-56 524.3336,-30.7416 1196.2105,-14.2207 1352.7987,-10.7033"/>
<polygon fill="#191970" stroke="#191970" points="1353.2471,-14.1943 1363.1667,-10.4726 1353.0913,-7.1961 1353.2471,-14.1943"/>
</g>
<!-- Node29&#45;&gt;Node11 -->
<g id="edge44" class="edge">
<title>Node29&#45;&gt;Node11</title>
<path fill="none" stroke="#191970" d="M449.9323,-128.9185C444.7544,-111.8958 437.0547,-76.2692 455.2253,-56 471.518,-37.8257 605.3295,-24.1896 700.9021,-16.6533"/>
<polygon fill="#191970" stroke="#191970" points="701.1996,-20.1408 710.8982,-15.8761 700.657,-13.1619 701.1996,-20.1408"/>
</g>
<!-- Node29&#45;&gt;Node30 -->
<g id="edge45" class="edge">
<title>Node29&#45;&gt;Node30</title>
<path fill="none" stroke="#191970" d="M432.7369,-128.9005C408.4197,-117.5072 367.6767,-98.4178 339.9084,-85.4075"/>
<polygon fill="#191970" stroke="#191970" points="341.2161,-82.1551 330.6757,-81.0817 338.2461,-88.4938 341.2161,-82.1551"/>
</g>
<!-- Node31&#45;&gt;Node1 -->
<g id="edge47" class="edge">
<title>Node31&#45;&gt;Node1</title>
<path fill="none" stroke="#191970" d="M766.1624,-128.7863C764.8429,-111.2224 764.9458,-74.3104 786.2253,-56 829.3501,-18.8923 1234.086,-11.6233 1352.7052,-10.2855"/>
<polygon fill="#191970" stroke="#191970" points="1352.9959,-13.7827 1362.9583,-10.1769 1352.9217,-6.7831 1352.9959,-13.7827"/>
</g>
<!-- Node31&#45;&gt;Node11 -->
<g id="edge48" class="edge">
<title>Node31&#45;&gt;Node11</title>
<path fill="none" stroke="#191970" d="M762.3688,-128.9806C755.0359,-113.2346 743.022,-81.021 753.2253,-56 757.9409,-44.4363 767.118,-34.2008 775.9615,-26.3383"/>
<polygon fill="#191970" stroke="#191970" points="778.3749,-28.8842 783.8516,-19.8147 773.9144,-23.4894 778.3749,-28.8842"/>
</g>
<!-- Node31&#45;&gt;Node20 -->
<g id="edge50" class="edge">
<title>Node31&#45;&gt;Node20</title>
<path fill="none" stroke="#191970" d="M688.0258,-130.4175C617.5996,-122.0649 520.8685,-107.3769 488.2253,-87 465.83,-73.0202 449.293,-46.7738 439.9595,-28.8469"/>
<polygon fill="#191970" stroke="#191970" points="442.9801,-27.059 435.415,-19.6415 436.7033,-30.1577 442.9801,-27.059"/>
</g>
<!-- Node31&#45;&gt;Node27 -->
<g id="edge49" class="edge">
<title>Node31&#45;&gt;Node27</title>
<path fill="none" stroke="#191970" d="M781.6962,-128.9005C798.3462,-117.8554 825.8993,-99.5776 845.4367,-86.6172"/>
<polygon fill="#191970" stroke="#191970" points="847.3829,-89.5263 853.7813,-81.0817 843.5133,-83.693 847.3829,-89.5263"/>
</g>
<!-- Node31&#45;&gt;Node28 -->
<g id="edge51" class="edge">
<title>Node31&#45;&gt;Node28</title>
<path fill="none" stroke="#191970" d="M801.2586,-128.9529C877.8419,-107.482 1057.595,-57.161 1064.2253,-56 1168.4502,-37.7489 1481.3392,-19.8602 1611.9522,-12.9691"/>
<polygon fill="#191970" stroke="#191970" points="1612.352,-16.453 1622.1548,-12.4336 1611.9851,-9.4626 1612.352,-16.453"/>
</g>
<!-- Node32 -->
<g id="node33" class="node">
<title>Node32</title>
<polygon fill="#ffffff" stroke="#bfbfbf" points="497.2253,-62 497.2253,-81 625.2253,-81 625.2253,-62 497.2253,-62"/>
<text text-anchor="middle" x="561.2253" y="-69" font-family="Helvetica,sans-Serif" font-size="10.00" fill="#000000">AMReX_PhysBCFunct.H</text>
</g>
<!-- Node31&#45;&gt;Node32 -->
<g id="edge52" class="edge">
<title>Node31&#45;&gt;Node32</title>
<path fill="none" stroke="#191970" d="M737.7105,-128.9005C701.6094,-117.1589 640.3772,-97.2436 600.3709,-84.2318"/>
<polygon fill="#191970" stroke="#191970" points="601.2776,-80.8463 590.6853,-81.0817 599.1125,-87.5031 601.2776,-80.8463"/>
</g>
<!-- Node33&#45;&gt;Node1 -->
<g id="edge57" class="edge">
<title>Node33&#45;&gt;Node1</title>
<path fill="none" stroke="#191970" d="M1827.524,-123.341C1826.9986,-104.4389 1822.9851,-72.598 1803.2253,-56 1773.818,-31.2981 1510.353,-16.126 1417.4644,-11.5063"/>
<polygon fill="#191970" stroke="#191970" points="1417.4173,-7.9999 1407.2583,-11.0073 1417.0754,-14.9916 1417.4173,-7.9999"/>
</g>
<!-- Node33&#45;&gt;Node6 -->
<g id="edge58" class="edge">
<title>Node33&#45;&gt;Node6</title>
<path fill="none" stroke="#191970" d="M1904.9428,-128.5056C2003.5731,-115.8219 2172.6722,-94.0759 2271.0456,-81.4252"/>
<polygon fill="#191970" stroke="#191970" points="2271.7458,-84.8641 2281.2177,-80.1171 2270.8529,-77.9213 2271.7458,-84.8641"/>
</g>
<!-- Node33&#45;&gt;Node11 -->
<g id="edge66" class="edge">
<title>Node33&#45;&gt;Node11</title>
<path fill="none" stroke="#191970" d="M1821.7173,-123.3895C1813.7177,-103.9091 1796.8624,-70.786 1770.2253,-56 1732.456,-35.0346 1134.4137,-18.2033 895.6086,-12.2858"/>
<polygon fill="#191970" stroke="#191970" points="895.6267,-8.7853 885.5434,-12.0376 895.454,-15.7832 895.6267,-8.7853"/>
</g>
<!-- Node33&#45;&gt;Node26 -->
<g id="edge67" class="edge">
<title>Node33&#45;&gt;Node26</title>
<path fill="none" stroke="#191970" d="M1767.0809,-123.4639C1718.7296,-111.3761 1651.7213,-94.624 1606.9945,-83.4423"/>
<polygon fill="#191970" stroke="#191970" points="1607.7968,-80.0352 1597.2465,-81.0053 1606.099,-86.8262 1607.7968,-80.0352"/>
</g>
<!-- Node34 -->
<g id="node35" class="node">
<title>Node34</title>
<g id="a_node35"><a xlink:href="_coll_mgr_8_h.html" target="_top" xlink:title="amr&#45;wind/core/CollMgr.H">
<polygon fill="#ffffff" stroke="#000000" points="1893.2253,-62 1893.2253,-81 2029.2253,-81 2029.2253,-62 1893.2253,-62"/>
<text text-anchor="middle" x="1961.2253" y="-69" font-family="Helvetica,sans-Serif" font-size="10.00" fill="#000000">amr&#45;wind/core/CollMgr.H</text>
</a>
</g>
</g>
<!-- Node33&#45;&gt;Node34 -->
<g id="edge59" class="edge">
<title>Node33&#45;&gt;Node34</title>
<path fill="none" stroke="#191970" d="M1857.2975,-123.4639C1879.8823,-112.1715 1910.6082,-96.8086 1932.7869,-85.7192"/>
<polygon fill="#191970" stroke="#191970" points="1934.6385,-88.7066 1942.0175,-81.1039 1931.5079,-82.4456 1934.6385,-88.7066"/>
</g>
<!-- Node35 -->
<g id="node36" class="node">
<title>Node35</title>
<g id="a_node36"><a xlink:href="_p_d_e_fields_8_h.html" target="_top" xlink:title="amr&#45;wind/equation_systems\l/PDEFields.H">
<polygon fill="#ffffff" stroke="#000000" points="2443.7253,-56.5 2443.7253,-86.5 2598.7253,-86.5 2598.7253,-56.5 2443.7253,-56.5"/>
<text text-anchor="start" x="2451.7253" y="-74.5" font-family="Helvetica,sans-Serif" font-size="10.00" fill="#000000">amr&#45;wind/equation_systems</text>
<text text-anchor="middle" x="2521.2253" y="-63.5" font-family="Helvetica,sans-Serif" font-size="10.00" fill="#000000">/PDEFields.H</text>
</a>
</g>
</g>
<!-- Node33&#45;&gt;Node35 -->
<g id="edge64" class="edge">
<title>Node33&#45;&gt;Node35</title>
<path fill="none" stroke="#191970" d="M1904.7941,-130.9878C1932.1073,-128.3906 1963.0232,-125.505 1991.2253,-123 2183.5764,-105.9147 2232.5219,-110.252 2424.2253,-87 2427.2595,-86.632 2430.3442,-86.2395 2433.4575,-85.8279"/>
<polygon fill="#191970" stroke="#191970" points="2434.0395,-89.2809 2443.471,-84.4542 2433.088,-82.3458 2434.0395,-89.2809"/>
</g>
<!-- Node34&#45;&gt;Node1 -->
<g id="edge60" class="edge">
<title>Node34&#45;&gt;Node1</title>
<path fill="none" stroke="#191970" d="M1914.9495,-61.9663C1903.3225,-59.788 1890.8462,-57.6357 1879.2253,-56 1706.1173,-31.6344 1496.9993,-16.9907 1417.7689,-11.9682"/>
<polygon fill="#191970" stroke="#191970" points="1417.6676,-8.4551 1407.4685,-11.3233 1417.2302,-15.4414 1417.6676,-8.4551"/>
</g>
<!-- Node34&#45;&gt;Node5 -->
<g id="edge62" class="edge">
<title>Node34&#45;&gt;Node5</title>
<path fill="none" stroke="#191970" d="M1994.9753,-61.8906C2032.4634,-51.2169 2093.085,-33.9566 2134.0139,-22.3033"/>
<polygon fill="#191970" stroke="#191970" points="2135.053,-25.6466 2143.7123,-19.5419 2133.1361,-18.9141 2135.053,-25.6466"/>
</g>
<!-- Node34&#45;&gt;Node7 -->
<g id="edge61" class="edge">
<title>Node34&#45;&gt;Node7</title>
<path fill="none" stroke="#191970" d="M1961.2253,-61.8906C1961.2253,-53.3657 1961.2253,-40.6392 1961.2253,-29.9235"/>
<polygon fill="#191970" stroke="#191970" points="1964.7254,-29.7448 1961.2253,-19.7449 1957.7254,-29.7449 1964.7254,-29.7448"/>
</g>
<!-- Node34&#45;&gt;Node28 -->
<g id="edge63" class="edge">
<title>Node34&#45;&gt;Node28</title>
<path fill="none" stroke="#191970" d="M1916.0759,-61.9581C1864.6775,-51.0956 1780.7048,-33.3488 1725.4496,-21.6711"/>
<polygon fill="#191970" stroke="#191970" points="1725.9883,-18.2077 1715.4807,-19.5643 1724.5409,-25.0565 1725.9883,-18.2077"/>
</g>
<!-- Node36 -->
<g id="node37" class="node">
<title>Node36</title>
<polygon fill="#ffffff" stroke="#bfbfbf" points="2506.7253,-.5 2506.7253,-19.5 2555.7253,-19.5 2555.7253,-.5 2506.7253,-.5"/>
<text text-anchor="middle" x="2531.2253" y="-7.5" font-family="Helvetica,sans-Serif" font-size="10.00" fill="#000000">iosfwd</text>
</g>
<!-- Node35&#45;&gt;Node36 -->
<g id="edge65" class="edge">
<title>Node35&#45;&gt;Node36</title>
<path fill="none" stroke="#191970" d="M2523.6972,-56.2977C2524.9986,-48.2945 2526.61,-38.3843 2528.0076,-29.7889"/>
<polygon fill="#191970" stroke="#191970" points="2531.4738,-30.2791 2529.6242,-19.8469 2524.5645,-29.1555 2531.4738,-30.2791"/>
</g>
<!-- Node37&#45;&gt;Node6 -->
<g id="edge69" class="edge">
<title>Node37&#45;&gt;Node6</title>
<path fill="none" stroke="#191970" d="M1706.3939,-128.9911C1717.6853,-126.7598 1729.8749,-124.5763 1741.2253,-123 1939.9569,-95.4004 1991.3826,-104.857 2191.2253,-87 2217.2358,-84.6758 2245.6491,-81.9329 2271.0675,-79.4055"/>
<polygon fill="#191970" stroke="#191970" points="2271.4162,-82.8882 2281.019,-78.4119 2270.7207,-75.9228 2271.4162,-82.8882"/>
</g>
<!-- Node37&#45;&gt;Node20 -->
<g id="edge71" class="edge">
<title>Node37&#45;&gt;Node20</title>
<path fill="none" stroke="#191970" d="M1617.5156,-128.9951C1604.842,-126.6794 1591.0434,-124.4533 1578.2253,-123 1228.1051,-83.3036 1134.4575,-140.7994 786.2253,-87 733.4862,-78.8522 722.2374,-67.9394 670.2253,-56 611.2066,-42.4523 543.3697,-29.6575 495.0817,-21.0181"/>
<polygon fill="#191970" stroke="#191970" points="495.5431,-17.5453 485.0845,-19.2388 494.3165,-24.437 495.5431,-17.5453"/>
</g>
<!-- Node37&#45;&gt;Node34 -->
<g id="edge70" class="edge">
<title>Node37&#45;&gt;Node34</title>
<path fill="none" stroke="#191970" d="M1705.605,-128.9717C1758.9636,-116.975 1850.6312,-96.3651 1908.4722,-83.3606"/>
<polygon fill="#191970" stroke="#191970" points="1909.5207,-86.7123 1918.5094,-81.1039 1907.9852,-79.8828 1909.5207,-86.7123"/>
</g>
<!-- Node38 -->
<g id="node39" class="node">
<title>Node38</title>
<polygon fill="#ffffff" stroke="#bfbfbf" points="1647.7253,-62 1647.7253,-81 1760.7253,-81 1760.7253,-62 1647.7253,-62"/>
<text text-anchor="middle" x="1704.2253" y="-69" font-family="Helvetica,sans-Serif" font-size="10.00" fill="#000000">AMReX_Geometry.H</text>
</g>
<!-- Node37&#45;&gt;Node38 -->
<g id="edge72" class="edge">
<title>Node37&#45;&gt;Node38</title>
<path fill="none" stroke="#191970" d="M1669.0996,-128.9005C1675.3105,-118.751 1685.2588,-102.4941 1692.9852,-89.8679"/>
<polygon fill="#191970" stroke="#191970" points="1696.1276,-91.4382 1698.3619,-81.0817 1690.1568,-87.7844 1696.1276,-91.4382"/>
</g>
<!-- Node39&#45;&gt;Node1 -->
<g id="edge74" class="edge">
<title>Node39&#45;&gt;Node1</title>
<path fill="none" stroke="#191970" d="M2046.9692,-57.6026C2044.022,-57.0084 2041.0923,-56.4673 2038.2253,-56 1916.5221,-36.1639 1531.9496,-16.9042 1417.5997,-11.4964"/>
<polygon fill="#191970" stroke="#191970" points="1417.5484,-7.9902 1407.395,-11.0167 1417.2197,-14.9825 1417.5484,-7.9902"/>
</g>
<!-- Node39&#45;&gt;Node5 -->
<g id="edge75" class="edge">
<title>Node39&#45;&gt;Node5</title>
<path fill="none" stroke="#191970" d="M2117.7534,-56.2977C2129.519,-47.1384 2144.4928,-35.4816 2156.4718,-26.1562"/>
<polygon fill="#191970" stroke="#191970" points="2158.8356,-28.7516 2164.5764,-19.8469 2154.5356,-23.228 2158.8356,-28.7516"/>
</g>
<!-- Node39&#45;&gt;Node28 -->
<g id="edge77" class="edge">
<title>Node39&#45;&gt;Node28</title>
<path fill="none" stroke="#191970" d="M2046.9364,-57.7881C2043.9975,-57.1467 2041.0787,-56.5446 2038.2253,-56 1929.872,-35.3209 1801.7281,-21.7179 1728.8116,-14.9815"/>
<polygon fill="#191970" stroke="#191970" points="1728.7397,-11.4605 1718.463,-14.0374 1728.1037,-18.4315 1728.7397,-11.4605"/>
</g>
<!-- Node40 -->
<g id="node41" class="node">
<title>Node40</title>
<polygon fill="#ffffff" stroke="#bfbfbf" points="2080.2253,-.5 2080.2253,-19.5 2112.2253,-19.5 2112.2253,-.5 2080.2253,-.5"/>
<text text-anchor="middle" x="2096.2253" y="-7.5" font-family="Helvetica,sans-Serif" font-size="10.00" fill="#000000">set</text>
</g>
<!-- Node39&#45;&gt;Node40 -->
<g id="edge76" class="edge">
<title>Node39&#45;&gt;Node40</title>
<path fill="none" stroke="#191970" d="M2097.7309,-56.2977C2097.4736,-48.3834 2097.1555,-38.6043 2096.8782,-30.0759"/>
<polygon fill="#191970" stroke="#191970" points="2100.3688,-29.7279 2096.5455,-19.8469 2093.3725,-29.9554 2100.3688,-29.7279"/>
</g>
<!-- Node41&#45;&gt;Node20 -->
<g id="edge80" class="edge">
<title>Node41&#45;&gt;Node20</title>
<path fill="none" stroke="#191970" d="M743.036,-204.2246C604.2786,-200.5435 243.7858,-187.9124 129.2253,-154 69.5349,-136.3303 38.0174,-140.5203 6.2253,-87 -.8111,-75.1545 -2.978,-66.2531 6.2253,-56 29.8716,-29.6563 254.3393,-17.029 367.1544,-12.3055"/>
<polygon fill="#191970" stroke="#191970" points="367.536,-15.7929 377.3842,-11.886 367.2492,-8.7987 367.536,-15.7929"/>
</g>
<!-- Node41&#45;&gt;Node22 -->
<g id="edge79" class="edge">
<title>Node41&#45;&gt;Node22</title>
<path fill="none" stroke="#191970" d="M853.3273,-191.8906C856.3326,-191.231 859.3133,-190.5961 862.2253,-190 942.5962,-173.5483 1035.5966,-158.4993 1097.9896,-148.9741"/>
<polygon fill="#191970" stroke="#191970" points="1098.757,-152.3978 1108.1178,-147.4354 1097.7056,-145.4772 1098.757,-152.3978"/>
</g>
</g>
</svg>
