<?xml version="1.0" encoding="UTF-8" standalone="no"?>
<!DOCTYPE svg PUBLIC "-//W3C//DTD SVG 1.1//EN"
 "http://www.w3.org/Graphics/SVG/1.1/DTD/svg11.dtd">
<!-- Generated by graphviz version 2.40.1 (20161225.0304)
 -->
<!-- Title: console_io.cpp Pages: 1 -->
<svg width="320pt" height="151pt"
 viewBox="0.00 0.00 319.50 151.00" xmlns="http://www.w3.org/2000/svg" xmlns:xlink="http://www.w3.org/1999/xlink">
<g id="graph0" class="graph" transform="scale(1 1) rotate(0) translate(4 147)">
<title>console_io.cpp</title>
<polygon fill="#ffffff" stroke="transparent" points="-4,4 -4,-147 315.5,-147 315.5,4 -4,4"/>
<!-- Node0 -->
<g id="node1" class="node">
<title>Node0</title>
<polygon fill="#bfbfbf" stroke="#000000" points="90.5,-123.5 90.5,-142.5 179.5,-142.5 179.5,-123.5 90.5,-123.5"/>
<text text-anchor="middle" x="135" y="-130.5" font-family="Helvetica,sans-Serif" font-size="10.00" fill="#000000">console_io.cpp</text>
</g>
<!-- Node1 -->
<g id="node2" class="node">
<title>Node1</title>
<polygon fill="#ffffff" stroke="#bfbfbf" points="0,-62 0,-81 50,-81 50,-62 0,-62"/>
<text text-anchor="middle" x="25" y="-69" font-family="Helvetica,sans-Serif" font-size="10.00" fill="#000000">chrono</text>
</g>
<!-- Node0&#45;&gt;Node1 -->
<g id="edge1" class="edge">
<title>Node0&#45;&gt;Node1</title>
<path fill="none" stroke="#191970" d="M117.8125,-123.3906C99.8918,-113.3713 71.5905,-97.5483 50.9477,-86.0071"/>
<polygon fill="#191970" stroke="#191970" points="52.5033,-82.867 42.0668,-81.0419 49.0872,-88.9769 52.5033,-82.867"/>
</g>
<!-- Node2 -->
<g id="node3" class="node">
<title>Node2</title>
<polygon fill="#ffffff" stroke="#bfbfbf" points="68,-62 68,-81 112,-81 112,-62 68,-62"/>
<text text-anchor="middle" x="90" y="-69" font-family="Helvetica,sans-Serif" font-size="10.00" fill="#000000">ctime</text>
</g>
<!-- Node0&#45;&gt;Node2 -->
<g id="edge2" class="edge">
<title>Node0&#45;&gt;Node2</title>
<path fill="none" stroke="#191970" d="M127.9688,-123.3906C121.337,-114.3273 111.2304,-100.5149 103.1113,-89.4188"/>
<polygon fill="#191970" stroke="#191970" points="105.8601,-87.2484 97.1304,-81.2449 100.2109,-91.382 105.8601,-87.2484"/>
</g>
<!-- Node3 -->
<g id="node4" class="node">
<title>Node3</title>
<g id="a_node4"><a xlink:href="console__io_8_h.html" target="_top" xlink:title="amr&#45;wind/utilities\l/console_io.H">
<polygon fill="#ffffff" stroke="#000000" points="130,-56.5 130,-86.5 232,-86.5 232,-56.5 130,-56.5"/>
<text text-anchor="start" x="138" y="-74.5" font-family="Helvetica,sans-Serif" font-size="10.00" fill="#000000">amr&#45;wind/utilities</text>
<text text-anchor="middle" x="181" y="-63.5" font-family="Helvetica,sans-Serif" font-size="10.00" fill="#000000">/console_io.H</text>
</a>
</g>
</g>
<!-- Node0&#45;&gt;Node3 -->
<g id="edge3" class="edge">
<title>Node0&#45;&gt;Node3</title>
<path fill="none" stroke="#191970" d="M142.1875,-123.3906C147.9519,-115.6839 156.2846,-104.5434 163.7527,-94.5589"/>
<polygon fill="#191970" stroke="#191970" points="166.5603,-96.6488 169.7471,-86.5446 160.9548,-92.4561 166.5603,-96.6488"/>
</g>
<!-- Node6 -->
<g id="node7" class="node">
<title>Node6</title>
<polygon fill="#ffffff" stroke="#bfbfbf" points="250.5,-62 250.5,-81 311.5,-81 311.5,-62 250.5,-62"/>
<text text-anchor="middle" x="281" y="-69" font-family="Helvetica,sans-Serif" font-size="10.00" fill="#000000">AMReX.H</text>
</g>
<!-- Node0&#45;&gt;Node6 -->
<g id="edge6" class="edge">
<title>Node0&#45;&gt;Node6</title>
<path fill="none" stroke="#191970" d="M157.8125,-123.3906C182.3481,-113.0554 221.5442,-96.5447 249.1211,-84.9284"/>
<polygon fill="#191970" stroke="#191970" points="250.4906,-88.1495 258.3477,-81.0419 247.7732,-81.6984 250.4906,-88.1495"/>
</g>
<!-- Node4 -->
<g id="node5" class="node">
<title>Node4</title>
<polygon fill="#ffffff" stroke="#bfbfbf" points="103,-.5 103,-19.5 163,-19.5 163,-.5 103,-.5"/>
<text text-anchor="middle" x="133" y="-7.5" font-family="Helvetica,sans-Serif" font-size="10.00" fill="#000000">iostream</text>
</g>
<!-- Node3&#45;&gt;Node4 -->
<g id="edge4" class="edge">
<title>Node3&#45;&gt;Node4</title>
<path fill="none" stroke="#191970" d="M169.1348,-56.2977C162.4025,-47.672 153.9415,-36.8312 146.8994,-27.8087"/>
<polygon fill="#191970" stroke="#191970" points="149.5973,-25.5766 140.6854,-19.8469 144.079,-29.8836 149.5973,-25.5766"/>
</g>
<!-- Node5 -->
<g id="node6" class="node">
<title>Node5</title>
<polygon fill="#ffffff" stroke="#bfbfbf" points="181.5,-.5 181.5,-19.5 276.5,-19.5 276.5,-.5 181.5,-.5"/>
<text text-anchor="middle" x="229" y="-7.5" font-family="Helvetica,sans-Serif" font-size="10.00" fill="#000000">AMReX_MLMG.H</text>
</g>
<!-- Node3&#45;&gt;Node5 -->
<g id="edge5" class="edge">
<title>Node3&#45;&gt;Node5</title>
<path fill="none" stroke="#191970" d="M192.8652,-56.2977C199.5975,-47.672 208.0585,-36.8312 215.1006,-27.8087"/>
<polygon fill="#191970" stroke="#191970" points="217.921,-29.8836 221.3146,-19.8469 212.4027,-25.5766 217.921,-29.8836"/>
</g>
</g>
</svg>
