<?xml version="1.0" encoding="UTF-8" standalone="no"?>
<!DOCTYPE svg PUBLIC "-//W3C//DTD SVG 1.1//EN"
 "http://www.w3.org/Graphics/SVG/1.1/DTD/svg11.dtd">
<!-- Generated by graphviz version 2.40.1 (20161225.0304)
 -->
<!-- Title: ABL Pages: 1 -->
<!--zoomable 449 -->
<svg id="main" version="1.1" xmlns="http://www.w3.org/2000/svg" xmlns:xlink="http://www.w3.org/1999/xlink" xml:space="preserve" onload="init(evt)">
<style type="text/css"><![CDATA[
.edge:hover path { stroke: red; }
.edge:hover polygon { stroke: red; fill: red; }
]]></style>
<script type="text/javascript"><![CDATA[
var edges = document.getElementsByTagName('g');
if (edges && edges.length) {
  for (var i=0;i<edges.length;i++) {
    if (edges[i].id.substr(0,4)=='edge') {
      edges[i].setAttribute('class','edge');
    }
  }
}
]]></script>
        <defs>
                <circle id="rim" cx="0" cy="0" r="7"/>
                <circle id="rim2" cx="0" cy="0" r="3.5"/>
                <g id="zoomPlus">
                        <use xlink:href="#rim" fill="#404040">
                                <set attributeName="fill" to="#808080" begin="zoomplus.mouseover" end="zoomplus.mouseout"/>
                        </use>
                        <path d="M-4,0h8M0,-4v8" fill="none" stroke="white" stroke-width="1.5" pointer-events="none"/>
                </g>
                <g id="zoomMin">
                        <use xlink:href="#rim" fill="#404040">
                                <set attributeName="fill" to="#808080" begin="zoomminus.mouseover" end="zoomminus.mouseout"/>
                        </use>
                        <path d="M-4,0h8" fill="none" stroke="white" stroke-width="1.5" pointer-events="none"/>
                </g>
                <g id="dirArrow">
                        <path fill="none" stroke="white" stroke-width="1.5" d="M0,-3.0v7 M-2.5,-0.5L0,-3.0L2.5,-0.5"/>
                </g>
               <g id="resetDef">
                       <use xlink:href="#rim2" fill="#404040">
                               <set attributeName="fill" to="#808080" begin="reset.mouseover" end="reset.mouseout"/>
                       </use>
               </g>
        </defs>

<script type="text/javascript">
var viewWidth = 504;
var viewHeight = 449;
var sectionId = 'dynsection-0';
</script>
<script xlink:href="svgpan.js"/>
<svg id="graph" class="graph">
<g id="viewport">
<title>ABL</title>
<polygon fill="#ffffff" stroke="transparent" points="-4,4 -4,-445.4645 500,-445.4645 500,4 -4,4"/>
<!-- Node5 -->
<g id="node1" class="node">
<title>Node5</title>
<g id="a_node1"><a xlink:href="group__turb__model.html" target="_top" xlink:title="Turbulence models available in AMR&#45;Wind. ">
<polygon fill="#ffffff" stroke="#000000" points="384,-330.9645 384,-349.9645 492,-349.9645 492,-330.9645 384,-330.9645"/>
<text text-anchor="middle" x="438" y="-337.9645" font-family="Helvetica,sans-Serif" font-size="10.00" fill="#000000">Turbulence models</text>
</a>
</g>
</g>
<!-- Node4 -->
<g id="node2" class="node">
<title>Node4</title>
<g id="a_node2"><a xlink:href="group__tke__src.html" target="_top" xlink:title="Source terms used with TKE transport equation. ">
<polygon fill="#ffffff" stroke="#000000" points="386.5,-265.9645 386.5,-284.9645 489.5,-284.9645 489.5,-265.9645 386.5,-265.9645"/>
<text text-anchor="middle" x="438" y="-272.9645" font-family="Helvetica,sans-Serif" font-size="10.00" fill="#000000">TKE Source terms</text>
</a>
</g>
</g>
<!-- Node7 -->
<g id="node3" class="node">
<title>Node7</title>
<g id="a_node3"><a xlink:href="group__field__bc.html" target="_top" xlink:title="Boundary conditions managment. ">
<polygon fill="#ffffff" stroke="#000000" points="380,-216.4645 380,-246.4645 496,-246.4645 496,-216.4645 380,-216.4645"/>
<text text-anchor="start" x="388" y="-234.4645" font-family="Helvetica,sans-Serif" font-size="10.00" fill="#000000">Boundary conditions</text>
<text text-anchor="middle" x="438" y="-223.4645" font-family="Helvetica,sans-Serif" font-size="10.00" fill="#000000"> management</text>
</a>
</g>
</g>
<!-- Node0 -->
<g id="node4" class="node">
<title>Node0</title>
<polygon fill="#bfbfbf" stroke="#000000" points="164,-157.9645 164,-176.9645 199,-176.9645 199,-157.9645 164,-157.9645"/>
<text text-anchor="middle" x="181.5" y="-164.9645" font-family="Helvetica,sans-Serif" font-size="10.00" fill="#000000">ABL</text>
</g>
<!-- Node0&#45;&gt;Node5 -->
<g id="edge5" class="edge">
<title>Node0&#45;&gt;Node5</title>
<path fill="none" stroke="#ffa500" stroke-dasharray="5,2" d="M182.3425,-177.2142C185.1778,-207.581 195.4295,-299.5626 217,-318.4645 264.8487,-360.3934 342.8254,-357.4126 392.2158,-349.9954"/>
<text text-anchor="start" x="236.5" y="-433.4645" font-family="Helvetica,sans-Serif" font-size="10.00" fill="#000000">amr_wind::pde::tke</text>
<text text-anchor="middle" x="289.5" y="-422.4645" font-family="Helvetica,sans-Serif" font-size="10.00" fill="#000000">::KsgsM84Src</text>
<text text-anchor="start" x="236.5" y="-411.4645" font-family="Helvetica,sans-Serif" font-size="10.00" fill="#000000">amr_wind::pde::tke</text>
<text text-anchor="middle" x="289.5" y="-400.4645" font-family="Helvetica,sans-Serif" font-size="10.00" fill="#000000">::KsgsS94Src</text>
<text text-anchor="start" x="236.5" y="-389.4645" font-family="Helvetica,sans-Serif" font-size="10.00" fill="#000000">amr_wind::turbulence</text>
<text text-anchor="middle" x="289.5" y="-378.4645" font-family="Helvetica,sans-Serif" font-size="10.00" fill="#000000">::OneEqKsgsM84</text>
<text text-anchor="start" x="236.5" y="-367.4645" font-family="Helvetica,sans-Serif" font-size="10.00" fill="#000000">amr_wind::turbulence</text>
<text text-anchor="middle" x="289.5" y="-356.4645" font-family="Helvetica,sans-Serif" font-size="10.00" fill="#000000">::OneEqKsgsS94</text>
</g>
<!-- Node0&#45;&gt;Node4 -->
<g id="edge4" class="edge">
<title>Node0&#45;&gt;Node4</title>
<path fill="none" stroke="#ffa500" stroke-dasharray="5,2" d="M182.4738,-177.1878C184.8363,-195.1432 192.61,-233.3218 217,-251.4645 230.296,-261.3548 325.2246,-268.7769 386.2669,-272.5909"/>
<text text-anchor="start" x="242.5" y="-306.4645" font-family="Helvetica,sans-Serif" font-size="10.00" fill="#000000">amr_wind::pde::tke</text>
<text text-anchor="middle" x="289.5" y="-295.4645" font-family="Helvetica,sans-Serif" font-size="10.00" fill="#000000">::KsgsM84Src</text>
<text text-anchor="start" x="242.5" y="-284.4645" font-family="Helvetica,sans-Serif" font-size="10.00" fill="#000000">amr_wind::pde::tke</text>
<text text-anchor="middle" x="289.5" y="-273.4645" font-family="Helvetica,sans-Serif" font-size="10.00" fill="#000000">::KsgsS94Src</text>
</g>
<!-- Node0&#45;&gt;Node7 -->
<g id="edge7" class="edge">
<title>Node0&#45;&gt;Node7</title>
<path fill="none" stroke="#ffa500" stroke-dasharray="5,2" d="M186.1862,-177.3335C191.8491,-188.033 202.4589,-204.6277 217,-212.4645 267.1717,-239.5042 333.1968,-241.6296 379.9761,-238.6104"/>
<text text-anchor="middle" x="289.5" y="-242.4645" font-family="Helvetica,sans-Serif" font-size="10.00" fill="#000000">amr_wind::ABLVelWallFunc</text>
</g>
<!-- Node3 -->
<g id="node6" class="node">
<title>Node3</title>
<g id="a_node6"><a xlink:href="group__icns__src.html" target="_top" xlink:title="Source terms used with incompressible Navier&#45;Stokes momentum equation. ">
<polygon fill="#ffffff" stroke="#000000" points="384.5,-91.9645 384.5,-110.9645 491.5,-110.9645 491.5,-91.9645 384.5,-91.9645"/>
<text text-anchor="middle" x="438" y="-98.9645" font-family="Helvetica,sans-Serif" font-size="10.00" fill="#000000">ICNS Source terms</text>
</a>
</g>
</g>
<!-- Node0&#45;&gt;Node3 -->
<g id="edge3" class="edge">
<title>Node0&#45;&gt;Node3</title>
<path fill="none" stroke="#ffa500" stroke-dasharray="5,2" d="M183.2133,-157.7361C186.5618,-142.026 195.6094,-111.5148 217,-98.4645 244.0242,-81.9771 328.0204,-87.9893 384.3218,-94.3468"/>
<text text-anchor="start" x="234.5" y="-200.4645" font-family="Helvetica,sans-Serif" font-size="10.00" fill="#000000">amr_wind::pde::icns</text>
<text text-anchor="middle" x="289.5" y="-189.4645" font-family="Helvetica,sans-Serif" font-size="10.00" fill="#000000">::ABLForcing</text>
<text text-anchor="start" x="234.5" y="-178.4645" font-family="Helvetica,sans-Serif" font-size="10.00" fill="#000000">amr_wind::pde::icns</text>
<text text-anchor="middle" x="289.5" y="-167.4645" font-family="Helvetica,sans-Serif" font-size="10.00" fill="#000000">::ABLMeanBoussinesq</text>
<text text-anchor="start" x="234.5" y="-156.4645" font-family="Helvetica,sans-Serif" font-size="10.00" fill="#000000">amr_wind::pde::icns</text>
<text text-anchor="middle" x="289.5" y="-145.4645" font-family="Helvetica,sans-Serif" font-size="10.00" fill="#000000">::BoussinesqBuoyancy</text>
<text text-anchor="start" x="234.5" y="-134.4645" font-family="Helvetica,sans-Serif" font-size="10.00" fill="#000000">amr_wind::pde::icns</text>
<text text-anchor="middle" x="289.5" y="-123.4645" font-family="Helvetica,sans-Serif" font-size="10.00" fill="#000000">::CoriolisForcing</text>
<text text-anchor="start" x="234.5" y="-112.4645" font-family="Helvetica,sans-Serif" font-size="10.00" fill="#000000">amr_wind::pde::icns</text>
<text text-anchor="middle" x="289.5" y="-101.4645" font-family="Helvetica,sans-Serif" font-size="10.00" fill="#000000">::GeostrophicForcing</text>
</g>
<!-- Node6 -->
<g id="node7" class="node">
<title>Node6</title>
<g id="a_node7"><a xlink:href="group__statistics.html" target="_top" xlink:title="Field statistics. ">
<polygon fill="#ffffff" stroke="#000000" points="395,-46.9645 395,-65.9645 481,-65.9645 481,-46.9645 395,-46.9645"/>
<text text-anchor="middle" x="438" y="-53.9645" font-family="Helvetica,sans-Serif" font-size="10.00" fill="#000000">Field statistics</text>
</a>
</g>
</g>
<!-- Node0&#45;&gt;Node6 -->
<g id="edge6" class="edge">
<title>Node0&#45;&gt;Node6</title>
<path fill="none" stroke="#ffa500" stroke-dasharray="5,2" d="M183.3446,-157.6707C188.0422,-133.8765 201.2094,-74.1223 217,-62.4645 272.5816,-21.43 359.2606,-35.134 405.8276,-46.8873"/>
<text text-anchor="middle" x="289.5" y="-76.4645" font-family="Helvetica,sans-Serif" font-size="10.00" fill="#000000">amr_wind::FPlaneAveraging</text>
<text text-anchor="middle" x="289.5" y="-65.4645" font-family="Helvetica,sans-Serif" font-size="10.00" fill="#000000">amr_wind::VelPlaneAveraging</text>
</g>
<!-- Node2 -->
<g id="node8" class="node">
<title>Node2</title>
<g id="a_node8"><a xlink:href="group__abl__istats.html" target="_top" xlink:title="ABLStats contains functions to compute and statistics for ABL simulations. ">
<polygon fill="#ffffff" stroke="#000000" points="396.5,-8.9645 396.5,-27.9645 479.5,-27.9645 479.5,-8.9645 396.5,-8.9645"/>
<text text-anchor="middle" x="438" y="-15.9645" font-family="Helvetica,sans-Serif" font-size="10.00" fill="#000000">ABL Statistics</text>
</a>
</g>
</g>
<!-- Node0&#45;&gt;Node2 -->
<g id="edge2" class="edge">
<title>Node0&#45;&gt;Node2</title>
<path fill="none" stroke="#000000" d="M183.8474,-147.8594C188.3275,-114.0664 199.2616,-47.0588 217,-32.4645 268.9543,10.2809 353.1507,1.1275 401.23,-8.9442"/>
<polygon fill="#000000" stroke="#000000" points="180.3571,-147.5626 182.5749,-157.9227 187.3018,-148.4408 180.3571,-147.5626"/>
</g>
<!-- Node1 -->
<g id="node5" class="node">
<title>Node1</title>
<g id="a_node5"><a xlink:href="group__wind.html" target="_top" xlink:title="Wind energy modeling. ">
<polygon fill="#ffffff" stroke="#000000" points="0,-157.9645 0,-176.9645 127,-176.9645 127,-157.9645 0,-157.9645"/>
<text text-anchor="middle" x="63.5" y="-164.9645" font-family="Helvetica,sans-Serif" font-size="10.00" fill="#000000">Wind energy modeling</text>
</a>
</g>
</g>
<!-- Node1&#45;&gt;Node0 -->
<g id="edge1" class="edge">
<title>Node1&#45;&gt;Node0</title>
<path fill="none" stroke="#000000" d="M137.6351,-167.4645C147.3612,-167.4645 156.4987,-167.4645 163.89,-167.4645"/>
<polygon fill="#000000" stroke="#000000" points="137.3351,-163.9646 127.335,-167.4645 137.335,-170.9646 137.3351,-163.9646"/>
</g>
</g>
</svg>
        <g id="navigator" transform="translate(0 0)" fill="#404254">
                <rect fill="#f2f5e9" fill-opacity="0.5" stroke="#606060" stroke-width=".5" x="0" y="0" width="60" height="60"/>
                <use id="zoomplus" xlink:href="#zoomPlus" x="17" y="9" onmousedown="handleZoom(evt,'in')"/>
                <use id="zoomminus" xlink:href="#zoomMin" x="42" y="9" onmousedown="handleZoom(evt,'out')"/>
                <use id="reset" xlink:href="#resetDef" x="30" y="36" onmousedown="handleReset()"/>
                <g id="arrowUp" xlink:href="#dirArrow" transform="translate(30 24)" onmousedown="handlePan(0,-1)">
                  <use xlink:href="#rim" fill="#404040">
                        <set attributeName="fill" to="#808080" begin="arrowUp.mouseover" end="arrowUp.mouseout"/>
                  </use>
                  <path fill="none" stroke="white" stroke-width="1.5" d="M0,-3.0v7 M-2.5,-0.5L0,-3.0L2.5,-0.5"/>
                </g>
                <g id="arrowRight" xlink:href="#dirArrow" transform="rotate(90) translate(36 -43)" onmousedown="handlePan(1,0)">
                  <use xlink:href="#rim" fill="#404040">
                        <set attributeName="fill" to="#808080" begin="arrowRight.mouseover" end="arrowRight.mouseout"/>
                  </use>
                  <path fill="none" stroke="white" stroke-width="1.5" d="M0,-3.0v7 M-2.5,-0.5L0,-3.0L2.5,-0.5"/>
                </g>
                <g id="arrowDown" xlink:href="#dirArrow" transform="rotate(180) translate(-30 -48)" onmousedown="handlePan(0,1)">
                  <use xlink:href="#rim" fill="#404040">
                        <set attributeName="fill" to="#808080" begin="arrowDown.mouseover" end="arrowDown.mouseout"/>
                  </use>
                  <path fill="none" stroke="white" stroke-width="1.5" d="M0,-3.0v7 M-2.5,-0.5L0,-3.0L2.5,-0.5"/>
                </g>
                <g id="arrowLeft" xlink:href="#dirArrow" transform="rotate(270) translate(-36 17)" onmousedown="handlePan(-1,0)">
                  <use xlink:href="#rim" fill="#404040">
                        <set attributeName="fill" to="#808080" begin="arrowLeft.mouseover" end="arrowLeft.mouseout"/>
                  </use>
                  <path fill="none" stroke="white" stroke-width="1.5" d="M0,-3.0v7 M-2.5,-0.5L0,-3.0L2.5,-0.5"/>
                </g>
        </g>
        <svg viewBox="0 0 15 15" width="100%" height="30px" preserveAspectRatio="xMaxYMin meet">
         <g id="arrow_out" transform="scale(0.3 0.3)">
          <a xlink:href="group__we__abl_org.svg" target="_base">
           <rect id="button" ry="5" rx="5" y="6" x="6" height="38" width="38"
                fill="#f2f5e9" fill-opacity="0.5" stroke="#606060" stroke-width="1.0"/>
           <path id="arrow"
             d="M 11.500037,31.436501 C 11.940474,20.09759 22.043105,11.32322 32.158766,21.979434 L 37.068811,17.246167 C 37.068811,17.246167 37.088388,32 37.088388,32 L 22.160133,31.978069 C 22.160133,31.978069 26.997745,27.140456 26.997745,27.140456 C 18.528582,18.264221 13.291696,25.230495 11.500037,31.436501 z"
             style="fill:#404040;"/>
          </a>
         </g>
        </svg>
</svg>
