<?xml version="1.0" encoding="UTF-8" standalone="no"?>
<!DOCTYPE svg PUBLIC "-//W3C//DTD SVG 1.1//EN"
 "http://www.w3.org/Graphics/SVG/1.1/DTD/svg11.dtd">
<!-- Generated by graphviz version 2.40.1 (20161225.0304)
 -->
<!-- Title: ABL Pages: 1 -->
<svg width="504pt" height="449pt"
 viewBox="0.00 0.00 504.00 449.46" xmlns="http://www.w3.org/2000/svg" xmlns:xlink="http://www.w3.org/1999/xlink">
<g id="graph0" class="graph" transform="scale(1 1) rotate(0) translate(4 445.4645)">
<title>ABL</title>
<polygon fill="#ffffff" stroke="transparent" points="-4,4 -4,-445.4645 500,-445.4645 500,4 -4,4"/>
<!-- Node5 -->
<g id="node1" class="node">
<title>Node5</title>
<g id="a_node1"><a xlink:href="group__turb__model.html" target="_top" xlink:title="Turbulence models available in AMR&#45;Wind. ">
<polygon fill="#ffffff" stroke="#000000" points="384,-330.9645 384,-349.9645 492,-349.9645 492,-330.9645 384,-330.9645"/>
<text text-anchor="middle" x="438" y="-337.9645" font-family="Helvetica,sans-Serif" font-size="10.00" fill="#000000">Turbulence models</text>
</a>
</g>
</g>
<!-- Node4 -->
<g id="node2" class="node">
<title>Node4</title>
<g id="a_node2"><a xlink:href="group__tke__src.html" target="_top" xlink:title="Source terms used with TKE transport equation. ">
<polygon fill="#ffffff" stroke="#000000" points="386.5,-265.9645 386.5,-284.9645 489.5,-284.9645 489.5,-265.9645 386.5,-265.9645"/>
<text text-anchor="middle" x="438" y="-272.9645" font-family="Helvetica,sans-Serif" font-size="10.00" fill="#000000">TKE Source terms</text>
</a>
</g>
</g>
<!-- Node7 -->
<g id="node3" class="node">
<title>Node7</title>
<g id="a_node3"><a xlink:href="group__field__bc.html" target="_top" xlink:title="Boundary conditions managment. ">
<polygon fill="#ffffff" stroke="#000000" points="380,-216.4645 380,-246.4645 496,-246.4645 496,-216.4645 380,-216.4645"/>
<text text-anchor="start" x="388" y="-234.4645" font-family="Helvetica,sans-Serif" font-size="10.00" fill="#000000">Boundary conditions</text>
<text text-anchor="middle" x="438" y="-223.4645" font-family="Helvetica,sans-Serif" font-size="10.00" fill="#000000"> management</text>
</a>
</g>
</g>
<!-- Node0 -->
<g id="node4" class="node">
<title>Node0</title>
<polygon fill="#bfbfbf" stroke="#000000" points="164,-157.9645 164,-176.9645 199,-176.9645 199,-157.9645 164,-157.9645"/>
<text text-anchor="middle" x="181.5" y="-164.9645" font-family="Helvetica,sans-Serif" font-size="10.00" fill="#000000">ABL</text>
</g>
<!-- Node0&#45;&gt;Node5 -->
<g id="edge5" class="edge">
<title>Node0&#45;&gt;Node5</title>
<path fill="none" stroke="#ffa500" stroke-dasharray="5,2" d="M182.3425,-177.2142C185.1778,-207.581 195.4295,-299.5626 217,-318.4645 264.8487,-360.3934 342.8254,-357.4126 392.2158,-349.9954"/>
<text text-anchor="start" x="236.5" y="-433.4645" font-family="Helvetica,sans-Serif" font-size="10.00" fill="#000000">amr_wind::pde::tke</text>
<text text-anchor="middle" x="289.5" y="-422.4645" font-family="Helvetica,sans-Serif" font-size="10.00" fill="#000000">::KsgsM84Src</text>
<text text-anchor="start" x="236.5" y="-411.4645" font-family="Helvetica,sans-Serif" font-size="10.00" fill="#000000">amr_wind::pde::tke</text>
<text text-anchor="middle" x="289.5" y="-400.4645" font-family="Helvetica,sans-Serif" font-size="10.00" fill="#000000">::KsgsS94Src</text>
<text text-anchor="start" x="236.5" y="-389.4645" font-family="Helvetica,sans-Serif" font-size="10.00" fill="#000000">amr_wind::turbulence</text>
<text text-anchor="middle" x="289.5" y="-378.4645" font-family="Helvetica,sans-Serif" font-size="10.00" fill="#000000">::OneEqKsgsM84</text>
<text text-anchor="start" x="236.5" y="-367.4645" font-family="Helvetica,sans-Serif" font-size="10.00" fill="#000000">amr_wind::turbulence</text>
<text text-anchor="middle" x="289.5" y="-356.4645" font-family="Helvetica,sans-Serif" font-size="10.00" fill="#000000">::OneEqKsgsS94</text>
</g>
<!-- Node0&#45;&gt;Node4 -->
<g id="edge4" class="edge">
<title>Node0&#45;&gt;Node4</title>
<path fill="none" stroke="#ffa500" stroke-dasharray="5,2" d="M182.4738,-177.1878C184.8363,-195.1432 192.61,-233.3218 217,-251.4645 230.296,-261.3548 325.2246,-268.7769 386.2669,-272.5909"/>
<text text-anchor="start" x="242.5" y="-306.4645" font-family="Helvetica,sans-Serif" font-size="10.00" fill="#000000">amr_wind::pde::tke</text>
<text text-anchor="middle" x="289.5" y="-295.4645" font-family="Helvetica,sans-Serif" font-size="10.00" fill="#000000">::KsgsM84Src</text>
<text text-anchor="start" x="242.5" y="-284.4645" font-family="Helvetica,sans-Serif" font-size="10.00" fill="#000000">amr_wind::pde::tke</text>
<text text-anchor="middle" x="289.5" y="-273.4645" font-family="Helvetica,sans-Serif" font-size="10.00" fill="#000000">::KsgsS94Src</text>
</g>
<!-- Node0&#45;&gt;Node7 -->
<g id="edge7" class="edge">
<title>Node0&#45;&gt;Node7</title>
<path fill="none" stroke="#ffa500" stroke-dasharray="5,2" d="M186.1862,-177.3335C191.8491,-188.033 202.4589,-204.6277 217,-212.4645 267.1717,-239.5042 333.1968,-241.6296 379.9761,-238.6104"/>
<text text-anchor="middle" x="289.5" y="-242.4645" font-family="Helvetica,sans-Serif" font-size="10.00" fill="#000000">amr_wind::ABLVelWallFunc</text>
</g>
<!-- Node3 -->
<g id="node6" class="node">
<title>Node3</title>
<g id="a_node6"><a xlink:href="group__icns__src.html" target="_top" xlink:title="Source terms used with incompressible Navier&#45;Stokes momentum equation. ">
<polygon fill="#ffffff" stroke="#000000" points="384.5,-91.9645 384.5,-110.9645 491.5,-110.9645 491.5,-91.9645 384.5,-91.9645"/>
<text text-anchor="middle" x="438" y="-98.9645" font-family="Helvetica,sans-Serif" font-size="10.00" fill="#000000">ICNS Source terms</text>
</a>
</g>
</g>
<!-- Node0&#45;&gt;Node3 -->
<g id="edge3" class="edge">
<title>Node0&#45;&gt;Node3</title>
<path fill="none" stroke="#ffa500" stroke-dasharray="5,2" d="M183.2133,-157.7361C186.5618,-142.026 195.6094,-111.5148 217,-98.4645 244.0242,-81.9771 328.0204,-87.9893 384.3218,-94.3468"/>
<text text-anchor="start" x="234.5" y="-200.4645" font-family="Helvetica,sans-Serif" font-size="10.00" fill="#000000">amr_wind::pde::icns</text>
<text text-anchor="middle" x="289.5" y="-189.4645" font-family="Helvetica,sans-Serif" font-size="10.00" fill="#000000">::ABLForcing</text>
<text text-anchor="start" x="234.5" y="-178.4645" font-family="Helvetica,sans-Serif" font-size="10.00" fill="#000000">amr_wind::pde::icns</text>
<text text-anchor="middle" x="289.5" y="-167.4645" font-family="Helvetica,sans-Serif" font-size="10.00" fill="#000000">::ABLMeanBoussinesq</text>
<text text-anchor="start" x="234.5" y="-156.4645" font-family="Helvetica,sans-Serif" font-size="10.00" fill="#000000">amr_wind::pde::icns</text>
<text text-anchor="middle" x="289.5" y="-145.4645" font-family="Helvetica,sans-Serif" font-size="10.00" fill="#000000">::BoussinesqBuoyancy</text>
<text text-anchor="start" x="234.5" y="-134.4645" font-family="Helvetica,sans-Serif" font-size="10.00" fill="#000000">amr_wind::pde::icns</text>
<text text-anchor="middle" x="289.5" y="-123.4645" font-family="Helvetica,sans-Serif" font-size="10.00" fill="#000000">::CoriolisForcing</text>
<text text-anchor="start" x="234.5" y="-112.4645" font-family="Helvetica,sans-Serif" font-size="10.00" fill="#000000">amr_wind::pde::icns</text>
<text text-anchor="middle" x="289.5" y="-101.4645" font-family="Helvetica,sans-Serif" font-size="10.00" fill="#000000">::GeostrophicForcing</text>
</g>
<!-- Node6 -->
<g id="node7" class="node">
<title>Node6</title>
<g id="a_node7"><a xlink:href="group__statistics.html" target="_top" xlink:title="Field statistics. ">
<polygon fill="#ffffff" stroke="#000000" points="395,-46.9645 395,-65.9645 481,-65.9645 481,-46.9645 395,-46.9645"/>
<text text-anchor="middle" x="438" y="-53.9645" font-family="Helvetica,sans-Serif" font-size="10.00" fill="#000000">Field statistics</text>
</a>
</g>
</g>
<!-- Node0&#45;&gt;Node6 -->
<g id="edge6" class="edge">
<title>Node0&#45;&gt;Node6</title>
<path fill="none" stroke="#ffa500" stroke-dasharray="5,2" d="M183.3446,-157.6707C188.0422,-133.8765 201.2094,-74.1223 217,-62.4645 272.5816,-21.43 359.2606,-35.134 405.8276,-46.8873"/>
<text text-anchor="middle" x="289.5" y="-76.4645" font-family="Helvetica,sans-Serif" font-size="10.00" fill="#000000">amr_wind::FPlaneAveraging</text>
<text text-anchor="middle" x="289.5" y="-65.4645" font-family="Helvetica,sans-Serif" font-size="10.00" fill="#000000">amr_wind::VelPlaneAveraging</text>
</g>
<!-- Node2 -->
<g id="node8" class="node">
<title>Node2</title>
<g id="a_node8"><a xlink:href="group__abl__istats.html" target="_top" xlink:title="ABLStats contains functions to compute and statistics for ABL simulations. ">
<polygon fill="#ffffff" stroke="#000000" points="396.5,-8.9645 396.5,-27.9645 479.5,-27.9645 479.5,-8.9645 396.5,-8.9645"/>
<text text-anchor="middle" x="438" y="-15.9645" font-family="Helvetica,sans-Serif" font-size="10.00" fill="#000000">ABL Statistics</text>
</a>
</g>
</g>
<!-- Node0&#45;&gt;Node2 -->
<g id="edge2" class="edge">
<title>Node0&#45;&gt;Node2</title>
<path fill="none" stroke="#000000" d="M183.8474,-147.8594C188.3275,-114.0664 199.2616,-47.0588 217,-32.4645 268.9543,10.2809 353.1507,1.1275 401.23,-8.9442"/>
<polygon fill="#000000" stroke="#000000" points="180.3571,-147.5626 182.5749,-157.9227 187.3018,-148.4408 180.3571,-147.5626"/>
</g>
<!-- Node1 -->
<g id="node5" class="node">
<title>Node1</title>
<g id="a_node5"><a xlink:href="group__wind.html" target="_top" xlink:title="Wind energy modeling. ">
<polygon fill="#ffffff" stroke="#000000" points="0,-157.9645 0,-176.9645 127,-176.9645 127,-157.9645 0,-157.9645"/>
<text text-anchor="middle" x="63.5" y="-164.9645" font-family="Helvetica,sans-Serif" font-size="10.00" fill="#000000">Wind energy modeling</text>
</a>
</g>
</g>
<!-- Node1&#45;&gt;Node0 -->
<g id="edge1" class="edge">
<title>Node1&#45;&gt;Node0</title>
<path fill="none" stroke="#000000" d="M137.6351,-167.4645C147.3612,-167.4645 156.4987,-167.4645 163.89,-167.4645"/>
<polygon fill="#000000" stroke="#000000" points="137.3351,-163.9646 127.335,-167.4645 137.335,-170.9646 137.3351,-163.9646"/>
</g>
</g>
</svg>
