<?xml version="1.0" encoding="UTF-8" standalone="no"?>
<!DOCTYPE svg PUBLIC "-//W3C//DTD SVG 1.1//EN"
 "http://www.w3.org/Graphics/SVG/1.1/DTD/svg11.dtd">
<!-- Generated by graphviz version 2.40.1 (20161225.0304)
 -->
<!-- Title: incflo_enums.H Pages: 1 -->
<svg width="3446pt" height="263pt"
 viewBox="0.00 0.00 3446.00 263.00" xmlns="http://www.w3.org/2000/svg" xmlns:xlink="http://www.w3.org/1999/xlink">
<g id="graph0" class="graph" transform="scale(1 1) rotate(0) translate(4 259)">
<title>incflo_enums.H</title>
<polygon fill="#ffffff" stroke="transparent" points="-4,4 -4,-259 3442,-259 3442,4 -4,4"/>
<!-- Node1 -->
<g id="node1" class="node">
<title>Node1</title>
<polygon fill="#bfbfbf" stroke="#000000" points="3124.5,-235.5 3124.5,-254.5 3216.5,-254.5 3216.5,-235.5 3124.5,-235.5"/>
<text text-anchor="middle" x="3170.5" y="-242.5" font-family="Helvetica,sans-Serif" font-size="10.00" fill="#000000">incflo_enums.H</text>
</g>
<!-- Node2 -->
<g id="node2" class="node">
<title>Node2</title>
<g id="a_node2"><a xlink:href="_field_8_h.html" target="_top" xlink:title="Field.H">
<polygon fill="#ffffff" stroke="#000000" points="1555.5,-179.5 1555.5,-198.5 1605.5,-198.5 1605.5,-179.5 1555.5,-179.5"/>
<text text-anchor="middle" x="1580.5" y="-186.5" font-family="Helvetica,sans-Serif" font-size="10.00" fill="#000000">Field.H</text>
</a>
</g>
</g>
<!-- Node1&#45;&gt;Node2 -->
<g id="edge1" class="edge">
<title>Node1&#45;&gt;Node2</title>
<path fill="none" stroke="#191970" d="M3113.8851,-243.006C2854.4071,-233.8672 1783.8381,-196.1616 1605.684,-189.887"/>
<polygon fill="#191970" stroke="#191970" points="3114.0861,-246.5152 3124.2032,-243.3694 3114.3326,-239.5195 3114.0861,-246.5152"/>
</g>
<!-- Node3 -->
<g id="node3" class="node">
<title>Node3</title>
<g id="a_node3"><a xlink:href="_b_c_interface_8_h.html" target="_top" xlink:title="BCInterface.H">
<polygon fill="#ffffff" stroke="#000000" points="285.5,-123.5 285.5,-142.5 369.5,-142.5 369.5,-123.5 285.5,-123.5"/>
<text text-anchor="middle" x="327.5" y="-130.5" font-family="Helvetica,sans-Serif" font-size="10.00" fill="#000000">BCInterface.H</text>
</a>
</g>
</g>
<!-- Node1&#45;&gt;Node3 -->
<g id="edge60" class="edge">
<title>Node1&#45;&gt;Node3</title>
<path fill="none" stroke="#191970" d="M3114.2345,-243.8056C2906.1977,-239.3045 2160.7858,-222.4236 1546.5,-199 1027.17,-179.1972 894.4223,-205.6102 378.5,-143 375.6337,-142.6522 372.6872,-142.235 369.7252,-141.7714"/>
<polygon fill="#191970" stroke="#191970" points="3114.2347,-247.3063 3124.3079,-244.0229 3114.3858,-240.308 3114.2347,-247.3063"/>
</g>
<!-- Node20 -->
<g id="node8" class="node">
<title>Node20</title>
<g id="a_node8"><a xlink:href="incflo_8_h.html" target="_top" xlink:title="incflo.H">
<polygon fill="#ffffff" stroke="#ff0000" points="3023,-67.5 3023,-86.5 3076,-86.5 3076,-67.5 3023,-67.5"/>
<text text-anchor="middle" x="3049.5" y="-74.5" font-family="Helvetica,sans-Serif" font-size="10.00" fill="#000000">incflo.H</text>
</a>
</g>
</g>
<!-- Node1&#45;&gt;Node20 -->
<g id="edge61" class="edge">
<title>Node1&#45;&gt;Node20</title>
<path fill="none" stroke="#191970" d="M3157.6072,-227.0993C3132.1781,-191.7928 3076.3159,-114.232 3056.5784,-86.8279"/>
<polygon fill="#191970" stroke="#191970" points="3154.9634,-229.4173 3163.6478,-235.4862 3160.6435,-225.3263 3154.9634,-229.4173"/>
</g>
<!-- Node95 -->
<g id="node20" class="node">
<title>Node95</title>
<g id="a_node20"><a xlink:href="_p_d_e_base_8cpp.html" target="_top" xlink:title="PDEBase.cpp">
<polygon fill="#ffffff" stroke="#000000" points="3183.5,-67.5 3183.5,-86.5 3263.5,-86.5 3263.5,-67.5 3183.5,-67.5"/>
<text text-anchor="middle" x="3223.5" y="-74.5" font-family="Helvetica,sans-Serif" font-size="10.00" fill="#000000">PDEBase.cpp</text>
</a>
</g>
</g>
<!-- Node1&#45;&gt;Node95 -->
<g id="edge67" class="edge">
<title>Node1&#45;&gt;Node95</title>
<path fill="none" stroke="#191970" d="M3176.5803,-225.7267C3187.9078,-189.8207 3211.8646,-113.8822 3220.3995,-86.8279"/>
<polygon fill="#191970" stroke="#191970" points="3173.1722,-224.8965 3173.5014,-235.4862 3179.8479,-227.0026 3173.1722,-224.8965"/>
</g>
<!-- Node234 -->
<g id="node49" class="node">
<title>Node234</title>
<g id="a_node49"><a xlink:href="_p_d_e_base_8_h.html" target="_top" xlink:title="PDEBase.H">
<polygon fill="#ffffff" stroke="#ff0000" points="3248,-123.5 3248,-142.5 3319,-142.5 3319,-123.5 3248,-123.5"/>
<text text-anchor="middle" x="3283.5" y="-130.5" font-family="Helvetica,sans-Serif" font-size="10.00" fill="#000000">PDEBase.H</text>
</a>
</g>
</g>
<!-- Node1&#45;&gt;Node234 -->
<g id="edge62" class="edge">
<title>Node1&#45;&gt;Node234</title>
<path fill="none" stroke="#191970" d="M3187.4968,-228.1536C3211.552,-204.3113 3254.7298,-161.5156 3273.8901,-142.5249"/>
<polygon fill="#191970" stroke="#191970" points="3184.7729,-225.9255 3180.1343,-235.4509 3189.7006,-230.8972 3184.7729,-225.9255"/>
</g>
<!-- Node64 -->
<g id="node50" class="node">
<title>Node64</title>
<g id="a_node50"><a xlink:href="_comp_r_h_s_ops_8_h.html" target="_top" xlink:title="CompRHSOps.H">
<polygon fill="#ffffff" stroke="#ff0000" points="3256,-179.5 3256,-198.5 3351,-198.5 3351,-179.5 3256,-179.5"/>
<text text-anchor="middle" x="3303.5" y="-186.5" font-family="Helvetica,sans-Serif" font-size="10.00" fill="#000000">CompRHSOps.H</text>
</a>
</g>
</g>
<!-- Node1&#45;&gt;Node64 -->
<g id="edge66" class="edge">
<title>Node1&#45;&gt;Node64</title>
<path fill="none" stroke="#191970" d="M3202.8397,-231.3833C3227.0285,-221.1985 3259.495,-207.5284 3280.9348,-198.5011"/>
<polygon fill="#191970" stroke="#191970" points="3201.2217,-228.2669 3193.3635,-235.3733 3203.9381,-234.7184 3201.2217,-228.2669"/>
</g>
<!-- Node2&#45;&gt;Node3 -->
<g id="edge2" class="edge">
<title>Node2&#45;&gt;Node3</title>
<path fill="none" stroke="#191970" d="M1545.1102,-188.3884C1371.9864,-185.2831 613.1699,-170.3294 378.5,-143 375.6321,-142.666 372.6843,-142.2593 369.7214,-141.8032"/>
<polygon fill="#191970" stroke="#191970" points="1545.1433,-191.8895 1555.2039,-188.5679 1545.2678,-184.8906 1545.1433,-191.8895"/>
</g>
<!-- Node5 -->
<g id="node5" class="node">
<title>Node5</title>
<g id="a_node5"><a xlink:href="_field_8cpp.html" target="_top" xlink:title="Field.cpp">
<polygon fill="#ffffff" stroke="#000000" points="596,-67.5 596,-86.5 655,-86.5 655,-67.5 596,-67.5"/>
<text text-anchor="middle" x="625.5" y="-74.5" font-family="Helvetica,sans-Serif" font-size="10.00" fill="#000000">Field.cpp</text>
</a>
</g>
</g>
<!-- Node2&#45;&gt;Node5 -->
<g id="edge36" class="edge">
<title>Node2&#45;&gt;Node5</title>
<path fill="none" stroke="#191970" d="M1544.9028,-188.4014C1378.1022,-185.4517 680.4203,-171.4464 644.5,-143 627.4875,-129.5273 625.0615,-101.8526 625.0804,-86.9789"/>
<polygon fill="#191970" stroke="#191970" points="1545.0496,-191.9045 1555.1093,-188.5798 1545.172,-184.9055 1545.0496,-191.9045"/>
</g>
<!-- Node16 -->
<g id="node7" class="node">
<title>Node16</title>
<g id="a_node7"><a xlink:href="_field_repo_8_h.html" target="_top" xlink:title="FieldRepo.H">
<polygon fill="#ffffff" stroke="#ff0000" points="2935.5,-123.5 2935.5,-142.5 3009.5,-142.5 3009.5,-123.5 2935.5,-123.5"/>
<text text-anchor="middle" x="2972.5" y="-130.5" font-family="Helvetica,sans-Serif" font-size="10.00" fill="#000000">FieldRepo.H</text>
</a>
</g>
</g>
<!-- Node2&#45;&gt;Node16 -->
<g id="edge6" class="edge">
<title>Node2&#45;&gt;Node16</title>
<path fill="none" stroke="#191970" d="M1615.8912,-188.6527C1801.2856,-186.7021 2662.0465,-175.9913 2926.5,-143 2929.4195,-142.6358 2932.4276,-142.1762 2935.4416,-141.6554"/>
<polygon fill="#191970" stroke="#191970" points="1615.5892,-185.1555 1605.6259,-188.7589 1615.6617,-192.1551 1615.5892,-185.1555"/>
</g>
<!-- Node175 -->
<g id="node19" class="node">
<title>Node175</title>
<g id="a_node19"><a xlink:href="_view_field_8cpp.html" target="_top" xlink:title="ViewField.cpp">
<polygon fill="#ffffff" stroke="#000000" points="2805,-67.5 2805,-86.5 2888,-86.5 2888,-67.5 2805,-67.5"/>
<text text-anchor="middle" x="2846.5" y="-74.5" font-family="Helvetica,sans-Serif" font-size="10.00" fill="#000000">ViewField.cpp</text>
</a>
</g>
</g>
<!-- Node2&#45;&gt;Node175 -->
<g id="edge39" class="edge">
<title>Node2&#45;&gt;Node175</title>
<path fill="none" stroke="#191970" d="M1615.8438,-188.5427C1834.4002,-185.6338 2993.3204,-168.9979 3018.5,-143 3024.6841,-136.6149 3023.9129,-130.0507 3018.5,-123 3010.4532,-112.5183 2936.4131,-95.5151 2888.1329,-85.3795"/>
<polygon fill="#191970" stroke="#191970" points="1615.5417,-185.0463 1605.5889,-188.6783 1615.6343,-192.0457 1615.5417,-185.0463"/>
</g>
<!-- Node211 -->
<g id="node21" class="node">
<title>Node211</title>
<g id="a_node21"><a xlink:href="_linear_profile_8cpp.html" target="_top" xlink:title="LinearProfile.cpp">
<polygon fill="#ffffff" stroke="#000000" points="2906.5,-67.5 2906.5,-86.5 3004.5,-86.5 3004.5,-67.5 2906.5,-67.5"/>
<text text-anchor="middle" x="2955.5" y="-74.5" font-family="Helvetica,sans-Serif" font-size="10.00" fill="#000000">LinearProfile.cpp</text>
</a>
</g>
</g>
<!-- Node2&#45;&gt;Node211 -->
<g id="edge55" class="edge">
<title>Node2&#45;&gt;Node211</title>
<path fill="none" stroke="#191970" d="M1615.8862,-188.5549C1835.9815,-185.7049 3009.0224,-169.2964 3034.5,-143 3055.8897,-120.9229 3012.8751,-98.7184 2982.3439,-86.5237"/>
<polygon fill="#191970" stroke="#191970" points="1615.5184,-185.0592 1605.5642,-188.6876 1615.6084,-192.0587 1615.5184,-185.0592"/>
</g>
<!-- Node70 -->
<g id="node22" class="node">
<title>Node70</title>
<g id="a_node22"><a xlink:href="_power_law_profile_8cpp.html" target="_top" xlink:title="PowerLawProfile.cpp">
<polygon fill="#ffffff" stroke="#000000" points="1285,-67.5 1285,-86.5 1402,-86.5 1402,-67.5 1285,-67.5"/>
<text text-anchor="middle" x="1343.5" y="-74.5" font-family="Helvetica,sans-Serif" font-size="10.00" fill="#000000">PowerLawProfile.cpp</text>
</a>
</g>
</g>
<!-- Node2&#45;&gt;Node70 -->
<g id="edge56" class="edge">
<title>Node2&#45;&gt;Node70</title>
<path fill="none" stroke="#191970" d="M1545.3086,-187.8448C1412.316,-183.3116 946.8094,-165.8584 925.5,-143 919.4388,-136.4982 919.5683,-129.6202 925.5,-123 949.0373,-96.7304 1175.2353,-83.9087 1284.7111,-79.2014"/>
<polygon fill="#191970" stroke="#191970" points="1545.2539,-191.3449 1555.3664,-188.1846 1545.4903,-184.3489 1545.2539,-191.3449"/>
</g>
<!-- Node212 -->
<g id="node23" class="node">
<title>Node212</title>
<g id="a_node23"><a xlink:href="_u_d_f_8cpp.html" target="_top" xlink:title="UDF.cpp">
<polygon fill="#ffffff" stroke="#000000" points="1862.5,-67.5 1862.5,-86.5 1918.5,-86.5 1918.5,-67.5 1862.5,-67.5"/>
<text text-anchor="middle" x="1890.5" y="-74.5" font-family="Helvetica,sans-Serif" font-size="10.00" fill="#000000">UDF.cpp</text>
</a>
</g>
</g>
<!-- Node2&#45;&gt;Node212 -->
<g id="edge57" class="edge">
<title>Node2&#45;&gt;Node212</title>
<path fill="none" stroke="#191970" d="M1544.991,-187.6973C1415.9838,-182.7954 978.591,-164.6317 958.5,-143 952.4508,-136.4869 952.3715,-129.4385 958.5,-123 974.4862,-106.2053 1707.6456,-82.6488 1862.1186,-77.8667"/>
<polygon fill="#191970" stroke="#191970" points="1544.9992,-191.2 1555.1239,-188.0791 1545.2628,-184.205 1544.9992,-191.2"/>
</g>
<!-- Node217 -->
<g id="node24" class="node">
<title>Node217</title>
<g id="a_node24"><a xlink:href="_field_b_c_ops_8_h.html" target="_top" xlink:title="FieldBCOps.H">
<polygon fill="#ffffff" stroke="#ff0000" points="653.5,-123.5 653.5,-142.5 735.5,-142.5 735.5,-123.5 653.5,-123.5"/>
<text text-anchor="middle" x="694.5" y="-130.5" font-family="Helvetica,sans-Serif" font-size="10.00" fill="#000000">FieldBCOps.H</text>
</a>
</g>
</g>
<!-- Node2&#45;&gt;Node217 -->
<g id="edge25" class="edge">
<title>Node2&#45;&gt;Node217</title>
<path fill="none" stroke="#191970" d="M1545.456,-187.7387C1407.7182,-182.678 903.3118,-163.1462 744.5,-143 741.6019,-142.6324 738.6201,-142.1933 735.6244,-141.7074"/>
<polygon fill="#191970" stroke="#191970" points="1545.3407,-191.2367 1555.462,-188.1045 1545.5965,-184.2414 1545.3407,-191.2367"/>
</g>
<!-- Node218 -->
<g id="node25" class="node">
<title>Node218</title>
<g id="a_node25"><a xlink:href="_a_b_l_field_init_8_h.html" target="_top" xlink:title="ABLFieldInit.H">
<polygon fill="#ffffff" stroke="#ff0000" points="387.5,-123.5 387.5,-142.5 471.5,-142.5 471.5,-123.5 387.5,-123.5"/>
<text text-anchor="middle" x="429.5" y="-130.5" font-family="Helvetica,sans-Serif" font-size="10.00" fill="#000000">ABLFieldInit.H</text>
</a>
</g>
</g>
<!-- Node2&#45;&gt;Node218 -->
<g id="edge27" class="edge">
<title>Node2&#45;&gt;Node218</title>
<path fill="none" stroke="#191970" d="M1545.0038,-188.2417C1380.8042,-184.6226 693.867,-168.2316 480.5,-143 477.6327,-142.6609 474.6853,-142.2504 471.7227,-141.7915"/>
<polygon fill="#191970" stroke="#191970" points="1544.9786,-191.7419 1555.0528,-188.4616 1545.1318,-184.7436 1544.9786,-191.7419"/>
</g>
<!-- Node47 -->
<g id="node26" class="node">
<title>Node47</title>
<g id="a_node26"><a xlink:href="_field_plane_averaging_8_h.html" target="_top" xlink:title="FieldPlaneAveraging.H">
<polygon fill="#ffffff" stroke="#ff0000" points="104,-123.5 104,-142.5 229,-142.5 229,-123.5 104,-123.5"/>
<text text-anchor="middle" x="166.5" y="-130.5" font-family="Helvetica,sans-Serif" font-size="10.00" fill="#000000">FieldPlaneAveraging.H</text>
</a>
</g>
</g>
<!-- Node2&#45;&gt;Node47 -->
<g id="edge28" class="edge">
<title>Node2&#45;&gt;Node47</title>
<path fill="none" stroke="#191970" d="M1545.0897,-188.2369C1360.5252,-184.1904 507.1972,-164.6106 243.5,-143 238.7977,-142.6146 233.9418,-142.1477 229.0624,-141.6288"/>
<polygon fill="#191970" stroke="#191970" points="1545.2393,-191.7409 1555.3133,-188.4602 1545.3922,-184.7426 1545.2393,-191.7409"/>
</g>
<!-- Node48 -->
<g id="node27" class="node">
<title>Node48</title>
<g id="a_node27"><a xlink:href="_second_moment_averaging_8_h.html" target="_top" xlink:title="SecondMomentAveraging.H">
<polygon fill="#ffffff" stroke="#ff0000" points="0,-67.5 0,-86.5 151,-86.5 151,-67.5 0,-67.5"/>
<text text-anchor="middle" x="75.5" y="-74.5" font-family="Helvetica,sans-Serif" font-size="10.00" fill="#000000">SecondMomentAveraging.H</text>
</a>
</g>
</g>
<!-- Node2&#45;&gt;Node48 -->
<g id="edge32" class="edge">
<title>Node2&#45;&gt;Node48</title>
<path fill="none" stroke="#191970" d="M1545.1158,-188.4771C1322.5115,-185.1183 124.0747,-165.9873 94.5,-143 77.1776,-129.536 74.9407,-101.3308 75.0527,-86.5304"/>
<polygon fill="#191970" stroke="#191970" points="1545.2066,-191.9788 1555.2581,-188.6294 1545.3118,-184.9796 1545.2066,-191.9788"/>
</g>
<!-- Node50 -->
<g id="node28" class="node">
<title>Node50</title>
<g id="a_node28"><a xlink:href="_third_moment_averaging_8_h.html" target="_top" xlink:title="ThirdMomentAveraging.H">
<polygon fill="#ffffff" stroke="#ff0000" points="169.5,-67.5 169.5,-86.5 309.5,-86.5 309.5,-67.5 169.5,-67.5"/>
<text text-anchor="middle" x="239.5" y="-74.5" font-family="Helvetica,sans-Serif" font-size="10.00" fill="#000000">ThirdMomentAveraging.H</text>
</a>
</g>
</g>
<!-- Node2&#45;&gt;Node50 -->
<g id="edge33" class="edge">
<title>Node2&#45;&gt;Node50</title>
<path fill="none" stroke="#191970" d="M1545.2775,-188.7278C1342.6086,-187.0402 332.1674,-176.9429 276.5,-143 255.8633,-130.4169 245.7776,-101.8263 241.7368,-86.7394"/>
<polygon fill="#191970" stroke="#191970" points="1545.3421,-192.2283 1555.3704,-188.8104 1545.3994,-185.2285 1545.3421,-192.2283"/>
</g>
<!-- Node53 -->
<g id="node29" class="node">
<title>Node53</title>
<g id="a_node29"><a xlink:href="_a_b_l_boundary_plane_8_h.html" target="_top" xlink:title="ABLBoundaryPlane.H">
<polygon fill="#ffffff" stroke="#ff0000" points="754,-123.5 754,-142.5 873,-142.5 873,-123.5 754,-123.5"/>
<text text-anchor="middle" x="813.5" y="-130.5" font-family="Helvetica,sans-Serif" font-size="10.00" fill="#000000">ABLBoundaryPlane.H</text>
</a>
</g>
</g>
<!-- Node2&#45;&gt;Node53 -->
<g id="edge31" class="edge">
<title>Node2&#45;&gt;Node53</title>
<path fill="none" stroke="#191970" d="M1545.212,-187.5073C1443.1585,-183.0074 1138.9393,-168.3046 887.5,-143 882.8564,-142.5327 878.0555,-141.999 873.2332,-141.427"/>
<polygon fill="#191970" stroke="#191970" points="1545.1328,-191.0071 1555.276,-187.9467 1545.4382,-184.0137 1545.1328,-191.0071"/>
</g>
<!-- Node220 -->
<g id="node30" class="node">
<title>Node220</title>
<g id="a_node30"><a xlink:href="_field_fill_patch_ops_8_h.html" target="_top" xlink:title="FieldFillPatchOps.H">
<polygon fill="#ffffff" stroke="#ff0000" points="489.5,-123.5 489.5,-142.5 597.5,-142.5 597.5,-123.5 489.5,-123.5"/>
<text text-anchor="middle" x="543.5" y="-130.5" font-family="Helvetica,sans-Serif" font-size="10.00" fill="#000000">FieldFillPatchOps.H</text>
</a>
</g>
</g>
<!-- Node2&#45;&gt;Node220 -->
<g id="edge34" class="edge">
<title>Node2&#45;&gt;Node220</title>
<path fill="none" stroke="#191970" d="M1545.0848,-188.5781C1418.2839,-186.8001 975.1386,-178.2827 611.5,-143 606.9868,-142.5621 602.3152,-142.0339 597.6316,-141.4518"/>
<polygon fill="#191970" stroke="#191970" points="1545.3095,-192.0814 1555.3559,-188.7169 1545.4041,-185.082 1545.3095,-192.0814"/>
</g>
<!-- Node221 -->
<g id="node31" class="node">
<title>Node221</title>
<g id="a_node31"><a xlink:href="field__ops_8_h.html" target="_top" xlink:title="field_ops.H">
<polygon fill="#ffffff" stroke="#ff0000" points="3094,-67.5 3094,-86.5 3165,-86.5 3165,-67.5 3094,-67.5"/>
<text text-anchor="middle" x="3129.5" y="-74.5" font-family="Helvetica,sans-Serif" font-size="10.00" fill="#000000">field_ops.H</text>
</a>
</g>
</g>
<!-- Node2&#45;&gt;Node221 -->
<g id="edge37" class="edge">
<title>Node2&#45;&gt;Node221</title>
<path fill="none" stroke="#191970" d="M1615.8148,-188.5467C1833.0729,-185.6768 2981.3807,-169.3037 3050.5,-143 3081.2339,-131.304 3108.5993,-102.3253 3121.5613,-86.95"/>
<polygon fill="#191970" stroke="#191970" points="1615.5706,-185.0495 1605.6174,-188.6805 1615.6625,-192.0489 1615.5706,-185.0495"/>
</g>
<!-- Node222 -->
<g id="node32" class="node">
<title>Node222</title>
<g id="a_node32"><a xlink:href="_multi_phase_8_h.html" target="_top" xlink:title="MultiPhase.H">
<polygon fill="#ffffff" stroke="#ff0000" points="967.5,-123.5 967.5,-142.5 1047.5,-142.5 1047.5,-123.5 967.5,-123.5"/>
<text text-anchor="middle" x="1007.5" y="-130.5" font-family="Helvetica,sans-Serif" font-size="10.00" fill="#000000">MultiPhase.H</text>
</a>
</g>
</g>
<!-- Node2&#45;&gt;Node222 -->
<g id="edge40" class="edge">
<title>Node2&#45;&gt;Node222</title>
<path fill="none" stroke="#191970" d="M1545.1932,-187.2902C1460.5214,-182.8877 1239.3621,-169.5977 1056.5,-143 1053.5788,-142.5751 1050.5692,-142.0867 1047.5462,-141.5591"/>
<polygon fill="#191970" stroke="#191970" points="1545.129,-190.7914 1555.2947,-187.8066 1545.4864,-183.8005 1545.129,-190.7914"/>
</g>
<!-- Node99 -->
<g id="node33" class="node">
<title>Node99</title>
<g id="a_node33"><a xlink:href="_m_m_s_8_h.html" target="_top" xlink:title="MMS.H">
<polygon fill="#ffffff" stroke="#ff0000" points="1065.5,-123.5 1065.5,-142.5 1115.5,-142.5 1115.5,-123.5 1065.5,-123.5"/>
<text text-anchor="middle" x="1090.5" y="-130.5" font-family="Helvetica,sans-Serif" font-size="10.00" fill="#000000">MMS.H</text>
</a>
</g>
</g>
<!-- Node2&#45;&gt;Node99 -->
<g id="edge41" class="edge">
<title>Node2&#45;&gt;Node99</title>
<path fill="none" stroke="#191970" d="M1545.1827,-187.6681C1468.134,-184.2767 1279.4375,-173.3272 1124.5,-143 1121.6017,-142.4327 1118.5949,-141.7265 1115.6222,-140.9536"/>
<polygon fill="#191970" stroke="#191970" points="1545.1589,-191.1702 1555.2985,-188.0977 1545.456,-184.1765 1545.1589,-191.1702"/>
</g>
<!-- Node223 -->
<g id="node34" class="node">
<title>Node223</title>
<g id="a_node34"><a xlink:href="_boussinesq_bubble_8_h.html" target="_top" xlink:title="BoussinesqBubble.H">
<polygon fill="#ffffff" stroke="#ff0000" points="1133.5,-123.5 1133.5,-142.5 1249.5,-142.5 1249.5,-123.5 1133.5,-123.5"/>
<text text-anchor="middle" x="1191.5" y="-130.5" font-family="Helvetica,sans-Serif" font-size="10.00" fill="#000000">BoussinesqBubble.H</text>
</a>
</g>
</g>
<!-- Node2&#45;&gt;Node223 -->
<g id="edge42" class="edge">
<title>Node2&#45;&gt;Node223</title>
<path fill="none" stroke="#191970" d="M1545.167,-183.98C1486.0386,-175.5696 1363.3034,-158.0702 1259.5,-143 1256.3116,-142.5371 1253.0394,-142.0606 1249.7365,-141.5786"/>
<polygon fill="#191970" stroke="#191970" points="1544.7185,-187.4514 1555.1117,-185.3942 1545.7041,-180.5211 1544.7185,-187.4514"/>
</g>
<!-- Node103 -->
<g id="node35" class="node">
<title>Node103</title>
<g id="a_node35"><a xlink:href="_channel_flow_8_h.html" target="_top" xlink:title="ChannelFlow.H">
<polygon fill="#ffffff" stroke="#ff0000" points="1268,-123.5 1268,-142.5 1357,-142.5 1357,-123.5 1268,-123.5"/>
<text text-anchor="middle" x="1312.5" y="-130.5" font-family="Helvetica,sans-Serif" font-size="10.00" fill="#000000">ChannelFlow.H</text>
</a>
</g>
</g>
<!-- Node2&#45;&gt;Node103 -->
<g id="edge43" class="edge">
<title>Node2&#45;&gt;Node103</title>
<path fill="none" stroke="#191970" d="M1545.3083,-181.6465C1497.018,-171.556 1410.1961,-153.4141 1357.3147,-142.3643"/>
<polygon fill="#191970" stroke="#191970" points="1544.7827,-185.1122 1555.2872,-183.7317 1546.2145,-178.2602 1544.7827,-185.1122"/>
</g>
<!-- Node105 -->
<g id="node36" class="node">
<title>Node105</title>
<g id="a_node36"><a xlink:href="_convecting_taylor_vortex_8_h.html" target="_top" xlink:title="ConvectingTaylorVortex.H">
<polygon fill="#ffffff" stroke="#ff0000" points="1375,-123.5 1375,-142.5 1518,-142.5 1518,-123.5 1375,-123.5"/>
<text text-anchor="middle" x="1446.5" y="-130.5" font-family="Helvetica,sans-Serif" font-size="10.00" fill="#000000">ConvectingTaylorVortex.H</text>
</a>
</g>
</g>
<!-- Node2&#45;&gt;Node105 -->
<g id="edge44" class="edge">
<title>Node2&#45;&gt;Node105</title>
<path fill="none" stroke="#191970" d="M1547.9172,-175.3833C1523.5464,-165.1985 1490.8358,-151.5284 1469.2348,-142.5011"/>
<polygon fill="#191970" stroke="#191970" points="1546.8883,-178.7466 1557.4646,-179.3733 1549.5875,-172.2879 1546.8883,-178.7466"/>
</g>
<!-- Node107 -->
<g id="node37" class="node">
<title>Node107</title>
<g id="a_node37"><a xlink:href="_ekman_spiral_8_h.html" target="_top" xlink:title="EkmanSpiral.H">
<polygon fill="#ffffff" stroke="#ff0000" points="1536,-123.5 1536,-142.5 1625,-142.5 1625,-123.5 1536,-123.5"/>
<text text-anchor="middle" x="1580.5" y="-130.5" font-family="Helvetica,sans-Serif" font-size="10.00" fill="#000000">EkmanSpiral.H</text>
</a>
</g>
</g>
<!-- Node2&#45;&gt;Node107 -->
<g id="edge45" class="edge">
<title>Node2&#45;&gt;Node107</title>
<path fill="none" stroke="#191970" d="M1580.5,-169.1575C1580.5,-160.155 1580.5,-149.9199 1580.5,-142.6427"/>
<polygon fill="#191970" stroke="#191970" points="1577.0001,-169.2455 1580.5,-179.2455 1584.0001,-169.2456 1577.0001,-169.2455"/>
</g>
<!-- Node224 -->
<g id="node38" class="node">
<title>Node224</title>
<g id="a_node38"><a xlink:href="_free_stream_8_h.html" target="_top" xlink:title="FreeStream.H">
<polygon fill="#ffffff" stroke="#ff0000" points="1643,-123.5 1643,-142.5 1726,-142.5 1726,-123.5 1643,-123.5"/>
<text text-anchor="middle" x="1684.5" y="-130.5" font-family="Helvetica,sans-Serif" font-size="10.00" fill="#000000">FreeStream.H</text>
</a>
</g>
</g>
<!-- Node2&#45;&gt;Node224 -->
<g id="edge46" class="edge">
<title>Node2&#45;&gt;Node224</title>
<path fill="none" stroke="#191970" d="M1607.5029,-174.46C1626.1136,-164.4388 1650.3299,-151.3993 1666.5922,-142.6427"/>
<polygon fill="#191970" stroke="#191970" points="1605.7608,-171.4228 1598.6154,-179.2455 1609.0795,-177.5861 1605.7608,-171.4228"/>
</g>
<!-- Node225 -->
<g id="node39" class="node">
<title>Node225</title>
<g id="a_node39"><a xlink:href="_dam_break_8_h.html" target="_top" xlink:title="DamBreak.H">
<polygon fill="#ffffff" stroke="#ff0000" points="1744,-123.5 1744,-142.5 1823,-142.5 1823,-123.5 1744,-123.5"/>
<text text-anchor="middle" x="1783.5" y="-130.5" font-family="Helvetica,sans-Serif" font-size="10.00" fill="#000000">DamBreak.H</text>
</a>
</g>
</g>
<!-- Node2&#45;&gt;Node225 -->
<g id="edge47" class="edge">
<title>Node2&#45;&gt;Node225</title>
<path fill="none" stroke="#191970" d="M1615.7533,-179.275C1653.1756,-168.9515 1711.9306,-152.7433 1749.0459,-142.5046"/>
<polygon fill="#191970" stroke="#191970" points="1614.5088,-175.9875 1605.7996,-182.0208 1616.3703,-182.7354 1614.5088,-175.9875"/>
</g>
<!-- Node226 -->
<g id="node40" class="node">
<title>Node226</title>
<g id="a_node40"><a xlink:href="_rain_drop_8_h.html" target="_top" xlink:title="RainDrop.H">
<polygon fill="#ffffff" stroke="#ff0000" points="1841.5,-123.5 1841.5,-142.5 1913.5,-142.5 1913.5,-123.5 1841.5,-123.5"/>
<text text-anchor="middle" x="1877.5" y="-130.5" font-family="Helvetica,sans-Serif" font-size="10.00" fill="#000000">RainDrop.H</text>
</a>
</g>
</g>
<!-- Node2&#45;&gt;Node226 -->
<g id="edge48" class="edge">
<title>Node2&#45;&gt;Node226</title>
<path fill="none" stroke="#191970" d="M1615.6308,-183.0228C1664.4027,-174.6255 1755.3408,-158.6096 1832.5,-143 1835.3239,-142.4287 1838.2435,-141.8203 1841.176,-141.1966"/>
<polygon fill="#191970" stroke="#191970" points="1614.8617,-179.6035 1605.5981,-184.745 1616.0461,-186.5026 1614.8617,-179.6035"/>
</g>
<!-- Node227 -->
<g id="node41" class="node">
<title>Node227</title>
<g id="a_node41"><a xlink:href="_sloshing_tank_8_h.html" target="_top" xlink:title="SloshingTank.H">
<polygon fill="#ffffff" stroke="#ff0000" points="1932,-123.5 1932,-142.5 2023,-142.5 2023,-123.5 1932,-123.5"/>
<text text-anchor="middle" x="1977.5" y="-130.5" font-family="Helvetica,sans-Serif" font-size="10.00" fill="#000000">SloshingTank.H</text>
</a>
</g>
</g>
<!-- Node2&#45;&gt;Node227 -->
<g id="edge49" class="edge">
<title>Node2&#45;&gt;Node227</title>
<path fill="none" stroke="#191970" d="M1615.9382,-184.7806C1678.1258,-177.2544 1810.9021,-160.6408 1922.5,-143 1925.5676,-142.5151 1928.7276,-141.9952 1931.9091,-141.4566"/>
<polygon fill="#191970" stroke="#191970" points="1615.3811,-181.3224 1605.8719,-185.994 1616.2189,-188.2721 1615.3811,-181.3224"/>
</g>
<!-- Node228 -->
<g id="node42" class="node">
<title>Node228</title>
<g id="a_node42"><a xlink:href="_vortex_patch_8_h.html" target="_top" xlink:title="VortexPatch.H">
<polygon fill="#ffffff" stroke="#ff0000" points="2041,-123.5 2041,-142.5 2126,-142.5 2126,-123.5 2041,-123.5"/>
<text text-anchor="middle" x="2083.5" y="-130.5" font-family="Helvetica,sans-Serif" font-size="10.00" fill="#000000">VortexPatch.H</text>
</a>
</g>
</g>
<!-- Node2&#45;&gt;Node228 -->
<g id="edge50" class="edge">
<title>Node2&#45;&gt;Node228</title>
<path fill="none" stroke="#191970" d="M1615.5959,-186.5365C1691.7762,-180.9464 1877.8794,-165.9768 2032.5,-143 2035.2667,-142.5889 2038.1111,-142.1307 2040.974,-141.6428"/>
<polygon fill="#191970" stroke="#191970" points="1615.3111,-183.0479 1605.5908,-187.2629 1615.818,-190.0295 1615.3111,-183.0479"/>
</g>
<!-- Node229 -->
<g id="node43" class="node">
<title>Node229</title>
<g id="a_node43"><a xlink:href="_zalesak_disk_8_h.html" target="_top" xlink:title="ZalesakDisk.H">
<polygon fill="#ffffff" stroke="#ff0000" points="2144.5,-123.5 2144.5,-142.5 2232.5,-142.5 2232.5,-123.5 2144.5,-123.5"/>
<text text-anchor="middle" x="2188.5" y="-130.5" font-family="Helvetica,sans-Serif" font-size="10.00" fill="#000000">ZalesakDisk.H</text>
</a>
</g>
</g>
<!-- Node2&#45;&gt;Node229 -->
<g id="edge51" class="edge">
<title>Node2&#45;&gt;Node229</title>
<path fill="none" stroke="#191970" d="M1616.0236,-187.3371C1704.2422,-182.9294 1940.2851,-169.4339 2135.5,-143 2138.3765,-142.6105 2141.3335,-142.1687 2144.3094,-141.693"/>
<polygon fill="#191970" stroke="#191970" points="1615.5861,-183.8543 1605.7702,-187.8414 1615.9301,-190.8458 1615.5861,-183.8543"/>
</g>
<!-- Node230 -->
<g id="node44" class="node">
<title>Node230</title>
<g id="a_node44"><a xlink:href="_rayleigh_taylor_8_h.html" target="_top" xlink:title="RayleighTaylor.H">
<polygon fill="#ffffff" stroke="#ff0000" points="2250.5,-123.5 2250.5,-142.5 2348.5,-142.5 2348.5,-123.5 2250.5,-123.5"/>
<text text-anchor="middle" x="2299.5" y="-130.5" font-family="Helvetica,sans-Serif" font-size="10.00" fill="#000000">RayleighTaylor.H</text>
</a>
</g>
</g>
<!-- Node2&#45;&gt;Node230 -->
<g id="edge52" class="edge">
<title>Node2&#45;&gt;Node230</title>
<path fill="none" stroke="#191970" d="M1615.8651,-187.7999C1714.9314,-184.1667 2003.4881,-171.7252 2241.5,-143 2244.3404,-142.6572 2247.2534,-142.2697 2250.189,-141.8515"/>
<polygon fill="#191970" stroke="#191970" points="1615.6699,-184.3046 1605.8023,-188.1624 1615.9219,-191.3001 1615.6699,-184.3046"/>
</g>
<!-- Node116 -->
<g id="node45" class="node">
<title>Node116</title>
<g id="a_node45"><a xlink:href="_synthetic_turbulence_8_h.html" target="_top" xlink:title="SyntheticTurbulence.H">
<polygon fill="#ffffff" stroke="#ff0000" points="2367,-123.5 2367,-142.5 2492,-142.5 2492,-123.5 2367,-123.5"/>
<text text-anchor="middle" x="2429.5" y="-130.5" font-family="Helvetica,sans-Serif" font-size="10.00" fill="#000000">SyntheticTurbulence.H</text>
</a>
</g>
</g>
<!-- Node2&#45;&gt;Node116 -->
<g id="edge53" class="edge">
<title>Node2&#45;&gt;Node116</title>
<path fill="none" stroke="#191970" d="M1615.9169,-187.8985C1726.0396,-184.2602 2072.1628,-171.217 2357.5,-143 2360.5141,-142.7019 2363.5959,-142.3719 2366.7061,-142.0184"/>
<polygon fill="#191970" stroke="#191970" points="1615.5925,-184.4071 1605.7118,-188.2308 1615.8204,-191.4034 1615.5925,-184.4071"/>
</g>
<!-- Node231 -->
<g id="node46" class="node">
<title>Node231</title>
<g id="a_node46"><a xlink:href="_taylor_green_vortex_8_h.html" target="_top" xlink:title="TaylorGreenVortex.H">
<polygon fill="#ffffff" stroke="#ff0000" points="2510,-123.5 2510,-142.5 2627,-142.5 2627,-123.5 2510,-123.5"/>
<text text-anchor="middle" x="2568.5" y="-130.5" font-family="Helvetica,sans-Serif" font-size="10.00" fill="#000000">TaylorGreenVortex.H</text>
</a>
</g>
</g>
<!-- Node2&#45;&gt;Node231 -->
<g id="edge54" class="edge">
<title>Node2&#45;&gt;Node231</title>
<path fill="none" stroke="#191970" d="M1616.1719,-188.4785C1739.306,-186.41 2157.805,-177.1486 2501.5,-143 2504.1917,-142.7326 2506.9406,-142.4325 2509.7146,-142.1077"/>
<polygon fill="#191970" stroke="#191970" points="1615.782,-184.9843 1605.8403,-188.6466 1615.8959,-191.9833 1615.782,-184.9843"/>
</g>
<!-- Node232 -->
<g id="node47" class="node">
<title>Node232</title>
<g id="a_node47"><a xlink:href="_sampling_container_8cpp.html" target="_top" xlink:title="SamplingContainer.cpp">
<polygon fill="#ffffff" stroke="#000000" points="2645,-123.5 2645,-142.5 2774,-142.5 2774,-123.5 2645,-123.5"/>
<text text-anchor="middle" x="2709.5" y="-130.5" font-family="Helvetica,sans-Serif" font-size="10.00" fill="#000000">SamplingContainer.cpp</text>
</a>
</g>
</g>
<!-- Node2&#45;&gt;Node232 -->
<g id="edge58" class="edge">
<title>Node2&#45;&gt;Node232</title>
<path fill="none" stroke="#191970" d="M1615.5382,-188.6507C1748.7755,-187.0732 2236.5616,-179.0258 2636.5,-143 2639.1755,-142.759 2641.9032,-142.4902 2644.6567,-142.1999"/>
<polygon fill="#191970" stroke="#191970" points="1615.4618,-185.1513 1605.5024,-188.7651 1615.5416,-192.1508 1615.4618,-185.1513"/>
</g>
<!-- Node233 -->
<g id="node48" class="node">
<title>Node233</title>
<g id="a_node48"><a xlink:href="_actuator_container_8cpp.html" target="_top" xlink:title="ActuatorContainer.cpp">
<polygon fill="#ffffff" stroke="#000000" points="2792,-123.5 2792,-142.5 2917,-142.5 2917,-123.5 2792,-123.5"/>
<text text-anchor="middle" x="2854.5" y="-130.5" font-family="Helvetica,sans-Serif" font-size="10.00" fill="#000000">ActuatorContainer.cpp</text>
</a>
</g>
</g>
<!-- Node2&#45;&gt;Node233 -->
<g id="edge59" class="edge">
<title>Node2&#45;&gt;Node233</title>
<path fill="none" stroke="#191970" d="M1615.893,-188.1335C1789.0361,-183.8204 2547.9852,-164.0334 2783.5,-143 2786.2277,-142.7564 2789.011,-142.4808 2791.82,-142.1805"/>
<polygon fill="#191970" stroke="#191970" points="1615.7082,-184.637 1605.7981,-188.384 1615.8819,-191.6348 1615.7082,-184.637"/>
</g>
<!-- Node4 -->
<g id="node4" class="node">
<title>Node4</title>
<g id="a_node4"><a xlink:href="_b_c_interface_8cpp.html" target="_top" xlink:title="BCInterface.cpp">
<polygon fill="#ffffff" stroke="#000000" points="444.5,-67.5 444.5,-86.5 538.5,-86.5 538.5,-67.5 444.5,-67.5"/>
<text text-anchor="middle" x="491.5" y="-74.5" font-family="Helvetica,sans-Serif" font-size="10.00" fill="#000000">BCInterface.cpp</text>
</a>
</g>
</g>
<!-- Node3&#45;&gt;Node4 -->
<g id="edge3" class="edge">
<title>Node3&#45;&gt;Node4</title>
<path fill="none" stroke="#191970" d="M365.4044,-120.057C395.4184,-109.8084 436.6507,-95.729 463.6753,-86.5011"/>
<polygon fill="#191970" stroke="#191970" points="364.0251,-116.8295 355.6926,-123.3733 366.2871,-123.454 364.0251,-116.8295"/>
</g>
<!-- Node3&#45;&gt;Node5 -->
<g id="edge4" class="edge">
<title>Node3&#45;&gt;Node5</title>
<path fill="none" stroke="#191970" d="M379.5226,-122.8174C463.8848,-106.7254 551.199,-90.6224 595.8267,-82.4321"/>
<polygon fill="#191970" stroke="#191970" points="378.6843,-119.4141 369.5186,-124.7283 379.9977,-126.2898 378.6843,-119.4141"/>
</g>
<!-- Node6 -->
<g id="node6" class="node">
<title>Node6</title>
<g id="a_node6"><a xlink:href="_b_c_ops_8_h.html" target="_top" xlink:title="BCOps.H">
<polygon fill="#ffffff" stroke="#ff0000" points="328,-67.5 328,-86.5 387,-86.5 387,-67.5 328,-67.5"/>
<text text-anchor="middle" x="357.5" y="-74.5" font-family="Helvetica,sans-Serif" font-size="10.00" fill="#000000">BCOps.H</text>
</a>
</g>
</g>
<!-- Node3&#45;&gt;Node6 -->
<g id="edge5" class="edge">
<title>Node3&#45;&gt;Node6</title>
<path fill="none" stroke="#191970" d="M337.498,-114.3372C342.4676,-105.0605 348.2644,-94.2398 352.3343,-86.6427"/>
<polygon fill="#191970" stroke="#191970" points="334.3627,-112.7779 332.7256,-123.2455 340.5331,-116.0835 334.3627,-112.7779"/>
</g>
<!-- Node16&#45;&gt;Node4 -->
<g id="edge7" class="edge">
<title>Node16&#45;&gt;Node4</title>
<path fill="none" stroke="#191970" d="M2925.3463,-123.1396C2393.331,-64.1603 1102.3264,-118.0542 586.5,-87 570.939,-86.0632 553.9971,-84.4661 538.7864,-82.8199"/>
<polygon fill="#191970" stroke="#191970" points="2925.1185,-126.6361 2935.4489,-124.2838 2925.9063,-119.6806 2925.1185,-126.6361"/>
</g>
<!-- Node16&#45;&gt;Node5 -->
<g id="edge19" class="edge">
<title>Node16&#45;&gt;Node5</title>
<path fill="none" stroke="#191970" d="M2925.4666,-123.5508C2760.1819,-114.1751 911.8573,-81.9604 655.0419,-77.5108"/>
<polygon fill="#191970" stroke="#191970" points="2925.2135,-127.0416 2935.4471,-124.2987 2925.7367,-120.0612 2925.2135,-127.0416"/>
</g>
<!-- Node16&#45;&gt;Node20 -->
<g id="edge8" class="edge">
<title>Node16&#45;&gt;Node20</title>
<path fill="none" stroke="#191970" d="M2994.2116,-117.2097C3007.7353,-107.3743 3024.6958,-95.0394 3036.2413,-86.6427"/>
<polygon fill="#191970" stroke="#191970" points="2991.9411,-114.5332 2985.9124,-123.2455 2996.0584,-120.1944 2991.9411,-114.5332"/>
</g>
<!-- Node16&#45;&gt;Node175 -->
<g id="edge20" class="edge">
<title>Node16&#45;&gt;Node175</title>
<path fill="none" stroke="#191970" d="M2941.5564,-119.2473C2918.6735,-109.0771 2888.0986,-95.4883 2867.8775,-86.5011"/>
<polygon fill="#191970" stroke="#191970" points="2940.2802,-122.5102 2950.8398,-123.3733 2943.1232,-116.1135 2940.2802,-122.5102"/>
</g>
<!-- Node16&#45;&gt;Node95 -->
<g id="edge21" class="edge">
<title>Node16&#45;&gt;Node95</title>
<path fill="none" stroke="#191970" d="M3019.5138,-122.5109C3066.7545,-111.9711 3138.7809,-95.9015 3183.403,-85.9459"/>
<polygon fill="#191970" stroke="#191970" points="3018.5338,-119.1434 3009.5359,-124.737 3020.0581,-125.9754 3018.5338,-119.1434"/>
</g>
<!-- Node16&#45;&gt;Node211 -->
<g id="edge22" class="edge">
<title>Node16&#45;&gt;Node211</title>
<path fill="none" stroke="#191970" d="M2966.5663,-113.4538C2963.8119,-104.3803 2960.6607,-93.9998 2958.4272,-86.6427"/>
<polygon fill="#191970" stroke="#191970" points="2963.2849,-114.6934 2969.5388,-123.2455 2969.983,-112.66 2963.2849,-114.6934"/>
</g>
<!-- Node16&#45;&gt;Node70 -->
<g id="edge23" class="edge">
<title>Node16&#45;&gt;Node70</title>
<path fill="none" stroke="#191970" d="M2925.4544,-123.2108C2732.5953,-103.4942 1665.2026,-82.9039 1402.0985,-78.0598"/>
<polygon fill="#191970" stroke="#191970" points="2925.1165,-126.6948 2935.4436,-124.3281 2925.8946,-119.7382 2925.1165,-126.6948"/>
</g>
<!-- Node16&#45;&gt;Node212 -->
<g id="edge24" class="edge">
<title>Node16&#45;&gt;Node212</title>
<path fill="none" stroke="#191970" d="M2925.5046,-123.1249C2703.5424,-96.135 2060.926,-80.748 1918.6103,-77.6022"/>
<polygon fill="#191970" stroke="#191970" points="2925.078,-126.5988 2935.4374,-124.3776 2925.9539,-119.6538 2925.078,-126.5988"/>
</g>
<!-- Node21 -->
<g id="node9" class="node">
<title>Node21</title>
<g id="a_node9"><a xlink:href="incflo__set__velocity__bcs_8cpp.html" target="_top" xlink:title="incflo_set_velocity\l_bcs.cpp">
<polygon fill="#ffffff" stroke="#000000" points="3121,-.5 3121,-30.5 3228,-30.5 3228,-.5 3121,-.5"/>
<text text-anchor="start" x="3129" y="-18.5" font-family="Helvetica,sans-Serif" font-size="10.00" fill="#000000">incflo_set_velocity</text>
<text text-anchor="middle" x="3174.5" y="-7.5" font-family="Helvetica,sans-Serif" font-size="10.00" fill="#000000">_bcs.cpp</text>
</a>
</g>
</g>
<!-- Node20&#45;&gt;Node21 -->
<g id="edge9" class="edge">
<title>Node20&#45;&gt;Node21</title>
<path fill="none" stroke="#191970" d="M3078.1138,-62.922C3097.7756,-53.2484 3123.8505,-40.4196 3143.9216,-30.5446"/>
<polygon fill="#191970" stroke="#191970" points="3076.4589,-59.8355 3069.0313,-67.3906 3079.5492,-66.1164 3076.4589,-59.8355"/>
</g>
<!-- Node22 -->
<g id="node10" class="node">
<title>Node22</title>
<g id="a_node10"><a xlink:href="derive_8cpp.html" target="_top" xlink:title="derive.cpp">
<polygon fill="#ffffff" stroke="#000000" points="2349.5,-6 2349.5,-25 2417.5,-25 2417.5,-6 2349.5,-6"/>
<text text-anchor="middle" x="2383.5" y="-13" font-family="Helvetica,sans-Serif" font-size="10.00" fill="#000000">derive.cpp</text>
</a>
</g>
</g>
<!-- Node20&#45;&gt;Node22 -->
<g id="edge10" class="edge">
<title>Node20&#45;&gt;Node22</title>
<path fill="none" stroke="#191970" d="M3012.8208,-67.2729C2753.8292,-25.2914 2679.23,-83.1814 2426.5,-31 2419.8165,-29.62 2412.7707,-27.418 2406.3604,-25.102"/>
<polygon fill="#191970" stroke="#191970" points="3012.4663,-70.7618 3022.9038,-68.9424 3013.6098,-63.8558 3012.4663,-70.7618"/>
</g>
<!-- Node23 -->
<g id="node11" class="node">
<title>Node23</title>
<g id="a_node11"><a xlink:href="incflo__diffusion_8cpp.html" target="_top" xlink:title="incflo_diffusion.cpp">
<polygon fill="#ffffff" stroke="#000000" points="2435.5,-6 2435.5,-25 2545.5,-25 2545.5,-6 2435.5,-6"/>
<text text-anchor="middle" x="2490.5" y="-13" font-family="Helvetica,sans-Serif" font-size="10.00" fill="#000000">incflo_diffusion.cpp</text>
</a>
</g>
</g>
<!-- Node20&#45;&gt;Node23 -->
<g id="edge11" class="edge">
<title>Node20&#45;&gt;Node23</title>
<path fill="none" stroke="#191970" d="M3012.8194,-67.2327C2810.1613,-32.4577 2753.3234,-62.6663 2554.5,-31 2545.0164,-29.4896 2534.8658,-27.3015 2525.5069,-25.0432"/>
<polygon fill="#191970" stroke="#191970" points="3012.4415,-70.7196 3022.8949,-68.9941 3013.647,-63.8242 3012.4415,-70.7196"/>
</g>
<!-- Node24 -->
<g id="node12" class="node">
<title>Node24</title>
<g id="a_node12"><a xlink:href="incflo_8cpp.html" target="_top" xlink:title="incflo.cpp">
<polygon fill="#ffffff" stroke="#000000" points="3375,-6 3375,-25 3438,-25 3438,-6 3375,-6"/>
<text text-anchor="middle" x="3406.5" y="-13" font-family="Helvetica,sans-Serif" font-size="10.00" fill="#000000">incflo.cpp</text>
</a>
</g>
</g>
<!-- Node20&#45;&gt;Node24 -->
<g id="edge12" class="edge">
<title>Node20&#45;&gt;Node24</title>
<path fill="none" stroke="#191970" d="M3086.0301,-67.1757C3210.3301,-43.0913 3246.8584,-60.6197 3365.5,-31 3371.5542,-29.4885 3377.9365,-27.3551 3383.8156,-25.1531"/>
<polygon fill="#191970" stroke="#191970" points="3085.2585,-63.7605 3076.1336,-69.1443 3086.6243,-70.626 3085.2585,-63.7605"/>
</g>
<!-- Node25 -->
<g id="node13" class="node">
<title>Node25</title>
<g id="a_node13"><a xlink:href="incflo__advance_8cpp.html" target="_top" xlink:title="incflo_advance.cpp">
<polygon fill="#ffffff" stroke="#000000" points="3246.5,-6 3246.5,-25 3356.5,-25 3356.5,-6 3246.5,-6"/>
<text text-anchor="middle" x="3301.5" y="-13" font-family="Helvetica,sans-Serif" font-size="10.00" fill="#000000">incflo_advance.cpp</text>
</a>
</g>
</g>
<!-- Node20&#45;&gt;Node25 -->
<g id="edge13" class="edge">
<title>Node20&#45;&gt;Node25</title>
<path fill="none" stroke="#191970" d="M3086.1704,-66.8984C3154.3872,-49.451 3173.018,-46.4443 3237.5,-31 3245.5049,-29.0827 3254.0695,-27.0178 3262.2458,-25.04"/>
<polygon fill="#191970" stroke="#191970" points="3085.02,-63.5802 3076.2057,-69.4589 3086.7622,-70.3599 3085.02,-63.5802"/>
</g>
<!-- Node26 -->
<g id="node14" class="node">
<title>Node26</title>
<g id="a_node14"><a xlink:href="incflo__compute__dt_8cpp.html" target="_top" xlink:title="incflo_compute_dt.cpp">
<polygon fill="#ffffff" stroke="#000000" points="2563.5,-6 2563.5,-25 2689.5,-25 2689.5,-6 2563.5,-6"/>
<text text-anchor="middle" x="2626.5" y="-13" font-family="Helvetica,sans-Serif" font-size="10.00" fill="#000000">incflo_compute_dt.cpp</text>
</a>
</g>
</g>
<!-- Node20&#45;&gt;Node26 -->
<g id="edge14" class="edge">
<title>Node20&#45;&gt;Node26</title>
<path fill="none" stroke="#191970" d="M3012.6994,-67.134C2873.8133,-40.7322 2834.8883,-53.0832 2699.5,-31 2689.2703,-29.3314 2678.3052,-27.192 2668.0634,-25.039"/>
<polygon fill="#191970" stroke="#191970" points="3012.3918,-70.6393 3022.8747,-69.1029 3013.7217,-63.7668 3012.3918,-70.6393"/>
</g>
<!-- Node27 -->
<g id="node15" class="node">
<title>Node27</title>
<g id="a_node15"><a xlink:href="incflo__regrid_8cpp.html" target="_top" xlink:title="incflo_regrid.cpp">
<polygon fill="#ffffff" stroke="#000000" points="2708,-6 2708,-25 2805,-25 2805,-6 2708,-6"/>
<text text-anchor="middle" x="2756.5" y="-13" font-family="Helvetica,sans-Serif" font-size="10.00" fill="#000000">incflo_regrid.cpp</text>
</a>
</g>
</g>
<!-- Node20&#45;&gt;Node27 -->
<g id="edge15" class="edge">
<title>Node20&#45;&gt;Node27</title>
<path fill="none" stroke="#191970" d="M3012.8739,-67.0357C2924.141,-47.18 2899.129,-49.9295 2814.5,-31 2806.668,-29.2482 2798.3002,-27.1479 2790.4275,-25.0673"/>
<polygon fill="#191970" stroke="#191970" points="3012.3063,-70.4959 3022.8333,-69.2984 3013.8572,-63.6698 3012.3063,-70.4959"/>
</g>
<!-- Node28 -->
<g id="node16" class="node">
<title>Node28</title>
<g id="a_node16"><a xlink:href="main_8cpp.html" target="_top" xlink:title="main.cpp">
<polygon fill="#ffffff" stroke="#000000" points="2823.5,-6 2823.5,-25 2885.5,-25 2885.5,-6 2823.5,-6"/>
<text text-anchor="middle" x="2854.5" y="-13" font-family="Helvetica,sans-Serif" font-size="10.00" fill="#000000">main.cpp</text>
</a>
</g>
</g>
<!-- Node20&#45;&gt;Node28 -->
<g id="edge16" class="edge">
<title>Node20&#45;&gt;Node28</title>
<path fill="none" stroke="#191970" d="M3013.0677,-66.4428C2974.8226,-55.3022 2917.2792,-38.3591 2895.5,-31 2890.1651,-29.1974 2884.4886,-27.1417 2879.1138,-25.13"/>
<polygon fill="#191970" stroke="#191970" points="3012.2394,-69.8469 3022.8191,-69.2795 3014.1947,-63.1255 3012.2394,-69.8469"/>
</g>
<!-- Node29 -->
<g id="node17" class="node">
<title>Node29</title>
<g id="a_node17"><a xlink:href="prob__bc_8cpp.html" target="_top" xlink:title="prob_bc.cpp">
<polygon fill="#ffffff" stroke="#000000" points="2904,-6 2904,-25 2979,-25 2979,-6 2904,-6"/>
<text text-anchor="middle" x="2941.5" y="-13" font-family="Helvetica,sans-Serif" font-size="10.00" fill="#000000">prob_bc.cpp</text>
</a>
</g>
</g>
<!-- Node20&#45;&gt;Node29 -->
<g id="edge17" class="edge">
<title>Node20&#45;&gt;Node29</title>
<path fill="none" stroke="#191970" d="M3023.8873,-62.415C3003.5861,-50.8546 2975.8054,-35.035 2958.2565,-25.0419"/>
<polygon fill="#191970" stroke="#191970" points="3022.2032,-65.4836 3032.625,-67.3906 3025.6671,-59.4007 3022.2032,-65.4836"/>
</g>
<!-- Node30 -->
<g id="node18" class="node">
<title>Node30</title>
<g id="a_node18"><a xlink:href="prob__init__fluid_8cpp.html" target="_top" xlink:title="prob_init_fluid.cpp">
<polygon fill="#ffffff" stroke="#000000" points="2996.5,-6 2996.5,-25 3102.5,-25 3102.5,-6 2996.5,-6"/>
<text text-anchor="middle" x="3049.5" y="-13" font-family="Helvetica,sans-Serif" font-size="10.00" fill="#000000">prob_init_fluid.cpp</text>
</a>
</g>
</g>
<!-- Node20&#45;&gt;Node30 -->
<g id="edge18" class="edge">
<title>Node20&#45;&gt;Node30</title>
<path fill="none" stroke="#191970" d="M3049.5,-57.2462C3049.5,-46.5519 3049.5,-33.814 3049.5,-25.2449"/>
<polygon fill="#191970" stroke="#191970" points="3046.0001,-57.3906 3049.5,-67.3906 3053.0001,-57.3907 3046.0001,-57.3906"/>
</g>
<!-- Node217&#45;&gt;Node5 -->
<g id="edge26" class="edge">
<title>Node217&#45;&gt;Node5</title>
<path fill="none" stroke="#191970" d="M674.697,-116.928C662.6364,-107.1397 647.6286,-94.9595 637.3812,-86.6427"/>
<polygon fill="#191970" stroke="#191970" points="672.5109,-119.6614 682.4811,-123.2455 676.9221,-114.2262 672.5109,-119.6614"/>
</g>
<!-- Node47&#45;&gt;Node48 -->
<g id="edge29" class="edge">
<title>Node47&#45;&gt;Node48</title>
<path fill="none" stroke="#191970" d="M141.7496,-117.769C125.6242,-107.8456 105.074,-95.1994 91.1693,-86.6427"/>
<polygon fill="#191970" stroke="#191970" points="140.2981,-120.9853 150.649,-123.2455 143.9668,-115.0237 140.2981,-120.9853"/>
</g>
<!-- Node47&#45;&gt;Node50 -->
<g id="edge30" class="edge">
<title>Node47&#45;&gt;Node50</title>
<path fill="none" stroke="#191970" d="M187.451,-116.928C200.2107,-107.1397 216.0885,-94.9595 226.9301,-86.6427"/>
<polygon fill="#191970" stroke="#191970" points="185.0196,-114.3819 179.2156,-123.2455 189.2803,-119.9359 185.0196,-114.3819"/>
</g>
<!-- Node220&#45;&gt;Node5 -->
<g id="edge35" class="edge">
<title>Node220&#45;&gt;Node5</title>
<path fill="none" stroke="#191970" d="M566.211,-117.49C580.6788,-107.6096 598.968,-95.1194 611.3804,-86.6427"/>
<polygon fill="#191970" stroke="#191970" points="564.0675,-114.7156 557.7833,-123.2455 568.0152,-120.4962 564.0675,-114.7156"/>
</g>
<!-- Node221&#45;&gt;Node25 -->
<g id="edge38" class="edge">
<title>Node221&#45;&gt;Node25</title>
<path fill="none" stroke="#191970" d="M3165.9965,-63.9504C3198.6032,-52.2916 3245.6065,-35.4852 3274.8137,-25.0419"/>
<polygon fill="#191970" stroke="#191970" points="3164.6128,-60.7281 3156.375,-67.3906 3166.9696,-67.3194 3164.6128,-60.7281"/>
</g>
<!-- Node234&#45;&gt;Node24 -->
<g id="edge64" class="edge">
<title>Node234&#45;&gt;Node24</title>
<path fill="none" stroke="#191970" d="M3300.8783,-116.3987C3326.9254,-91.5163 3375.2718,-45.3318 3396.2953,-25.2484"/>
<polygon fill="#191970" stroke="#191970" points="3298.3789,-113.9461 3293.5656,-123.3845 3303.2142,-119.0077 3298.3789,-113.9461"/>
</g>
<!-- Node234&#45;&gt;Node25 -->
<g id="edge65" class="edge">
<title>Node234&#45;&gt;Node25</title>
<path fill="none" stroke="#191970" d="M3286.5011,-113.4095C3290.3979,-87.9723 3297.0494,-44.5527 3300.0066,-25.2484"/>
<polygon fill="#191970" stroke="#191970" points="3283.0277,-112.9698 3284.973,-123.3845 3289.947,-114.0298 3283.0277,-112.9698"/>
</g>
<!-- Node234&#45;&gt;Node95 -->
<g id="edge63" class="edge">
<title>Node234&#45;&gt;Node95</title>
<path fill="none" stroke="#191970" d="M3265.6722,-116.3607C3255.2922,-106.6727 3242.5709,-94.7995 3233.8314,-86.6427"/>
<polygon fill="#191970" stroke="#191970" points="3263.3501,-118.981 3273.0488,-123.2455 3268.1263,-113.8636 3263.3501,-118.981"/>
</g>
</g>
</svg>
