<?xml version="1.0" encoding="UTF-8" standalone="no"?>
<!DOCTYPE svg PUBLIC "-//W3C//DTD SVG 1.1//EN"
 "http://www.w3.org/Graphics/SVG/1.1/DTD/svg11.dtd">
<!-- Generated by graphviz version 2.40.1 (20161225.0304)
 -->
<!-- Title: Graphical Class Hierarchy Pages: 1 -->
<svg width="228pt" height="88pt"
 viewBox="0.00 0.00 228.00 88.00" xmlns="http://www.w3.org/2000/svg" xmlns:xlink="http://www.w3.org/1999/xlink">
<g id="graph0" class="graph" transform="scale(1 1) rotate(0) translate(4 84)">
<title>Graphical Class Hierarchy</title>
<polygon fill="#ffffff" stroke="transparent" points="-4,4 -4,-84 224,-84 224,4 -4,4"/>
<!-- Node88 -->
<g id="node1" class="node">
<title>Node88</title>
<polygon fill="#ffffff" stroke="#bfbfbf" points="0,-30 0,-49 56,-49 56,-30 0,-30"/>
<text text-anchor="middle" x="28" y="-37" font-family="Helvetica,sans-Serif" font-size="10.00" fill="#000000">Register</text>
</g>
<!-- Node0 -->
<g id="node2" class="node">
<title>Node0</title>
<g id="a_node2"><a xlink:href="classamr__wind_1_1field__norms_1_1_field_norms.html" target="_top" xlink:title="field norm objectA concrete impelementation of the post&#45;processing interface that deals with norms of...">
<polygon fill="#ffffff" stroke="#000000" points="92,-49.5 92,-79.5 220,-79.5 220,-49.5 92,-49.5"/>
<text text-anchor="start" x="100" y="-67.5" font-family="Helvetica,sans-Serif" font-size="10.00" fill="#000000">amr_wind::field_norms</text>
<text text-anchor="middle" x="156" y="-56.5" font-family="Helvetica,sans-Serif" font-size="10.00" fill="#000000">::FieldNorms</text>
</a>
</g>
</g>
<!-- Node88&#45;&gt;Node0 -->
<g id="edge1" class="edge">
<title>Node88&#45;&gt;Node0</title>
<path fill="none" stroke="#191970" d="M65.9913,-46.9202C74.1335,-48.5105 82.9526,-50.2329 91.7773,-51.9565"/>
<polygon fill="#191970" stroke="#191970" points="66.5756,-43.4682 56.0901,-44.9864 65.2338,-50.3384 66.5756,-43.4682"/>
</g>
<!-- Node90 -->
<g id="node3" class="node">
<title>Node90</title>
<g id="a_node3"><a xlink:href="classamr__wind_1_1sampling_1_1_sampling.html" target="_top" xlink:title="Collection of data sampling objectsA concrete impelementation of the post&#45;processing interface that d...">
<polygon fill="#ffffff" stroke="#000000" points="98,-.5 98,-30.5 214,-30.5 214,-.5 98,-.5"/>
<text text-anchor="start" x="106" y="-18.5" font-family="Helvetica,sans-Serif" font-size="10.00" fill="#000000">amr_wind::sampling</text>
<text text-anchor="middle" x="156" y="-7.5" font-family="Helvetica,sans-Serif" font-size="10.00" fill="#000000">::Sampling</text>
</a>
</g>
</g>
<!-- Node88&#45;&gt;Node90 -->
<g id="edge2" class="edge">
<title>Node88&#45;&gt;Node90</title>
<path fill="none" stroke="#191970" d="M66.0648,-32.3629C76.0372,-30.493 87.0207,-28.4336 97.7842,-26.4155"/>
<polygon fill="#191970" stroke="#191970" points="65.2738,-28.9501 56.0901,-34.2331 66.5639,-35.8302 65.2738,-28.9501"/>
</g>
</g>
</svg>
